<?xml version="1.0" encoding="UTF-8"?>
<svg width="867px" height="309px" viewBox="0 0 867 309" version="1.1" xmlns="http://www.w3.org/2000/svg" xmlns:xlink="http://www.w3.org/1999/xlink">
    <!-- Generator: Sketch 53.2 (72643) - https://sketchapp.com -->
    <title>Logo+Write</title>
    <desc>Created with Sketch.</desc>
    <g id="Consegne" stroke="none" stroke-width="1" fill="none" fill-rule="evenodd">
        <g id="Artboard-Copy" transform="translate(-570.000000, -377.000000)" fill="#FFFFFF" fill-rule="nonzero" stroke="#979797">
            <g id="Logo+Write" transform="translate(571.000000, 378.000000)">
                <g id="Logo" transform="translate(0.386343, 0.188221)">
                    <path d="M208.953657,6.57177935 C196.613657,-0.378220654 179.783657,-1.91822065 158.613657,2.44177935 C129.613657,8.34177935 104.613657,19.0517793 83.8236573,34.5617793 C64.1251608,49.1405666 47.2464418,67.1849711 34.0136573,87.8117793 C20.8836573,108.011779 11.6736573,127.571779 6.39365731,146.731779 C1.11365731,165.891779 -0.936342689,182.501779 0.393657311,196.031779 C2.59365731,215.431779 10.4736573,234.521779 23.4936573,252.841779 C36.7336573,270.891779 58.2936573,285.111779 88.1336573,295.271779 C117.973657,305.431779 158.613657,308.811779 209.613657,304.891779 C252.413657,300.581779 289.013657,291.441779 319.393657,277.201779 C325.313657,274.381779 331.003657,271.561779 336.393657,268.551779 C369.523657,249.551779 393.743657,228.491779 408.533657,205.141779 C423.323657,181.791779 428.213657,161.141779 423.423657,143.281779 C421.033657,131.841779 412.723657,120.741779 398.933657,109.721779 C384.933657,98.7217793 362.873657,91.9717793 332.543657,89.3017793 C321.87588,88.6119402 311.168143,88.8595566 300.543657,90.0417793 C274.673657,92.1417793 244.013657,98.4517793 208.543657,108.731779 C192.670324,114.065113 182.220324,121.328446 177.193657,130.521779 C172.403657,139.701779 171.813657,148.701779 175.463657,157.771779 C178.675607,166.556528 184.868858,173.935345 192.963657,178.621779 C201.183657,183.751779 210.253657,185.081779 220.423657,182.321779 C228.703657,180.741779 240.353657,178.081779 255.683657,174.801779 C270.706087,171.618765 285.963549,169.668941 301.303657,168.971779 C303.71998,168.919499 306.137309,169.006309 308.543657,169.231779 C320.763657,169.741779 331.733657,172.621779 340.963657,177.901779 C351.813657,184.511779 357.233657,196.391779 357.263657,214.031779 C354.443657,227.971779 346.210324,239.971779 332.563657,250.031779 C327.693657,253.511779 322.803657,256.731779 317.663657,259.981779 C307.686251,265.792656 297.195368,270.673226 286.323657,274.561779 C268.323657,280.561779 252.153657,285.451779 237.323657,288.681779 C222.733657,291.881779 212.943657,293.361779 207.753657,293.681779 C201.333657,294.061779 191.443657,294.571779 177.753657,294.681779 C164.353657,294.791779 150.003657,292.991779 134.483657,289.341779 C119.501337,285.875814 105.729027,278.438697 94.6136573,267.811779 C82.8736573,257.321779 75.3236573,241.681779 72.5136573,221.091779 C71.9936573,203.501779 76.6336573,187.871779 86.5136573,174.471779 C96.6516394,160.683631 109.183983,148.828711 123.513657,139.471779 C136.479328,130.688524 150.057395,122.845127 164.143657,116.001779 C176.463657,110.001779 184.993657,106.001779 189.493657,103.761779 C206.193657,96.8717793 218.143657,87.2217793 225.053657,74.3617793 C231.973657,61.7417793 233.933657,49.1117793 231.413657,36.4517793 C228.886991,23.5451127 221.430324,13.608446 209.043657,6.64177935" id="Path"></path>
                    <path d="M329.783657,215.051779 C329.293657,205.161779 325.993657,197.051779 319.663657,190.981779 C316.90251,188.160147 313.644702,185.871884 310.053657,184.231779 C305.319114,181.976141 300.08783,180.964301 294.853657,181.291779 C284.963657,181.791779 276.853657,185.341779 270.853657,191.911779 C264.259968,198.445885 260.74583,207.469262 261.183657,216.741779 C261.663657,226.621779 265.183657,234.741779 272.023657,240.741779 C278.593657,246.741779 286.863657,249.921779 296.553657,249.941779 C304.213657,249.421779 310.693657,247.281779 316.043657,243.511779 C317.653657,242.351779 319.043657,241.231779 320.633657,239.831779 C326.883333,233.131158 330.189427,224.206864 329.813657,215.051779" id="Path"></path>
                </g>
                <g id="Write" transform="translate(452.000000, 87.000000)">
                    <path d="M88.05,87.67 C91.1230594,88.7751773 94.0536685,90.2421604 96.78,92.04 C104.64,97.28 108.48,105.14 108.48,115.8 C108.48,126.63 104.64,134.66 96.78,139.9 C89.9866667,144.26 80.0266667,146.53 66.9,146.71 C56.78,146.55 51.7166667,144.63 51.71,140.95 L51.71,83.44 C68.48,83.44 80.54,84.84 88.05,87.63 L88.05,87.67 Z M191.29,60.94 C194.537299,58.5402136 198.443586,57.1962274 202.48,57.09 C203.83832,57.0419933 205.178656,57.4119817 206.32,58.15 C207.72,59.01 208.42,60.94 208.42,63.74 C208.42,80.16 197.07,92.39 174.18,100.42 C170.506667,101.64 166.483333,102.863333 162.11,104.09 C165.479401,95.9632826 169.516553,88.1298031 174.18,80.67 C175.108583,79.0244068 176.158138,77.450074 177.32,75.96 C182.04,69.15 186.75,64.07 191.29,60.94 Z M51.71,16.44 C51.71,14.1733333 54.1566667,13.1233333 59.05,13.29 C88.57,13.29 103.43,23.29 103.43,43.17 C103.551432,47.6887582 102.577007,52.1697384 100.59,56.23 C99.5694144,58.2041088 98.2768064,60.025205 96.75,61.64 C94.3462491,63.8603885 91.5661469,65.6347777 88.54,66.88 C83.83,68.8 74.05,69.67 59.19,69.67 L51.71,69.67 L51.71,16.44 Z M234.97,61.87 C237.59,62.39 238.82,63.61 238.82,65.36 C238.64,71.12 235.5,84.23 229.04,104.68 C222.56,124.76 219.26,139.08 219.26,147.68 C219.26,153.09 220.65,157.28 223.26,159.9 C225.53,161.99 228.85,163.04 233.04,163.04 C241.61,163.04 250.17,158.15 258.73,148.55 C258.788843,153.008869 261.169344,157.114094 265.01,159.38 C268.343333,161.473333 272.54,162.52 277.6,162.52 C286.33,162.52 293.32,159.73 298.39,153.96 C303.81,147.85 306.39,140.34 306.6,131.25 L306.6,69.32 C306.6,64.96 307.3,62.32 308.52,61.82 C312.448186,60.3586995 316.567921,59.4761397 320.75,59.2 L320.75,49.75 L269.75,49.75 L269.75,59.2 L280.75,60.94 C282.67,61.82 283.55,63.94 283.55,67.23 L283.55,145.15 C283.55,148.15 283.02,149.52 281.98,149.52 L281.1,147.25 C278.48,139.9 274.81,136.25 269.74,136.25 C268.979248,136.214992 268.217052,136.272073 267.47,136.42 C268.34,134.84 269.4,133.42 270.27,131.88 L264.32,127.16 C261.32,130.83 258.74,134.16 256.47,136.78 C250.88,143.23 246.69,146.38 244.05,146.38 C243.7,146.38 243.53,146.2 243.37,145.86 C243.221295,145.658667 243.153498,145.408889 243.18,145.16 C243.18,143.59 244.93,136.94 248.26,124.89 L268.69,48.89 L265.9,46.62 C246.5,50.62 233.05,52.73 225.19,52.91 C224.713852,52.4431006 224.187286,52.0305682 223.62,51.68 C219.234206,48.2627595 213.79801,46.474258 208.24,46.62 C196.37452,46.5853017 184.74322,49.921411 174.7,56.24 C169.793497,59.310965 165.171723,62.814946 160.89,66.71 C158.97,68.4633333 157.05,70.3866667 155.13,72.48 C147.27,81.21 141.33,90.13 137.48,99.21 C132.59,88.38 122.48,80.68 106.92,75.97 C104.99,76.49 104.92,75.49 106.92,76.01 C118.79,72.34 126.48,65.71 130.14,56.28 C131.763715,51.795886 132.533643,47.0474356 132.41,42.28 C132.41,27.08 125.6,15.9 111.98,8.57 C101.67,2.79 88.4,-2.84217094e-14 72.32,-2.84217094e-14 L0,-2.84217094e-14 L0,8.92 C15.19,9.79 22.7,14.68 22.7,23.59 L22.7,135.88 C22.7,142.69 20.96,146.88 17.28,148.82 C14.66,150.57 8.9,151.26 0,150.74 L0,160.17 L84.2,160.17 C88.4076928,160.1512 92.6097763,159.860595 96.78,159.3 C105.941391,158.132593 114.720263,154.908887 122.46,149.87 C126.576094,147.070878 130.178849,143.583142 133.11,139.56 C136.775605,152.179144 147.802255,161.260849 160.89,162.44 C162.46,162.61 164.22,162.61 165.97,162.79 C168.714576,162.789814 171.456501,162.619487 174.18,162.28 C191.48,159.99 206.67,150.39 219.61,133.79 L214.53,128.02 C200.38,140.6 188.32,146.88 178.53,146.88 C177.074564,146.911836 175.618539,146.855065 174.17,146.71 C168.05,146.02 163.51,143.71 160.88,139.71 C158.606667,136.376667 157.56,132.18 157.74,127.12 C157.877823,122.752853 158.52555,118.416776 159.67,114.2 C160.02,114.03 160.36,114.03 160.88,113.85 C165.6,112.96 169.98,112.1 174.17,111.22 C211.55,102.49 230.25,87.12 230.25,65.28 C230.227741,64.1091257 230.110691,62.9419771 229.9,61.79 L234.97,61.87 Z" id="Shape"></path>
                    <path d="M385.39,57.09 C389.39,57.09 391.34,59.37 391.34,63.74 C391.34,82.74 375.96,96.23 345.04,104.09 C349.17116,94.2391125 354.258864,84.8173137 360.23,75.96 C368.983333,63.3866667 377.37,57.0966667 385.39,57.09 L385.39,57.09 Z M391.17,46.61 C389.478196,46.5788198 387.785915,46.635563 386.1,46.78 C375.992981,47.6791631 366.233072,50.9142084 357.59,56.23 C350.317953,60.643069 343.737046,66.1052555 338.06,72.44 C333.55577,77.4144163 329.515631,82.7901109 325.99,88.5 C318.31,101.093333 314.47,114.026667 314.47,127.3 C314.47,137.966667 317.613333,146.526667 323.9,152.98 C330.18,159.44 338.58,162.58 348.9,162.76 C369.7,162.76 387.52,153.15 402.54,133.76 L397.48,127.99 C383.32,140.57 371.27,146.85 361.48,146.85 C347.48,146.85 340.48,140.23 340.69,127.12 C340.81963,122.764041 341.457278,118.438102 342.59,114.23 C389.59,106.18 413.17,89.94 413.17,65.31 C413.279123,62.129134 412.48887,58.9819865 410.89,56.23 C409.716457,54.4651715 408.240456,52.9214646 406.53,51.67 C402.149556,48.2571666 396.721199,46.4689187 391.17,46.61 L391.17,46.61 Z" id="Shape"></path>
                    <circle id="Oval" cx="255.11" cy="25.73" r="15.72"></circle>
                </g>
            </g>
        </g>
    </g>
</svg>