<?xml version="1.0" encoding="UTF-8"?>
<svg id="Livello_1" xmlns="http://www.w3.org/2000/svg" viewBox="0 0 399.41 157.8">
    <defs>
        <style>.cls-1{fill:#fff;}</style>
    </defs>
    <g id="Write">
        <path id="Shape" class="cls-1" d="M85.1,84.9c2.95,1.08,5.77,2.48,8.4,4.2,7.6,5.1,11.3,12.7,11.3,23s-3.7,18.2-11.3,23.3c-6.6,4.2-16.2,6.4-28.9,6.6-9.8-.2-14.7-2-14.7-5.6v-55.6c16.3,0,27.9,1.4,35.2,4.1h0Zm99.8-25.8c3.14-2.31,6.91-3.6,10.8-3.7,1.3-.02,2.59,.32,3.7,1,1.4,.8,2,2.7,2,5.4,0,15.9-11.03,27.73-33.1,35.5-3.6,1.2-7.4,2.4-11.7,3.5,3.28-7.84,7.19-15.4,11.7-22.6,.91-1.59,1.91-3.13,3-4.6,4.7-6.6,9.2-11.5,13.6-14.5h0ZM50,16c0-2.2,2.4-3.2,7.1-3,28.5,0,42.9,9.7,42.9,28.9,.12,4.36-.81,8.68-2.7,12.6-.97,1.91-2.21,3.66-3.7,5.2-2.32,2.14-4.99,3.87-7.9,5.1-4.6,1.9-14,2.7-28.4,2.7h-7.2V16h-.1ZM227.2,60c2.5,.5,3.7,1.7,3.7,3.4-.2,5.6-3.2,18.2-9.5,38-6.3,19.4-9.5,33.3-9.5,41.6,0,5.2,1.3,9.3,3.9,11.8,2.2,2,5.4,3,9.5,3,8.3,0,16.6-4.7,24.8-14,.1,4.31,2.4,8.28,6.1,10.5,3.2,2,7.3,3,12.2,3,8.4,0,15.2-2.7,20.1-8.3,5.2-5.9,7.7-13.2,7.9-22v-59.8c0-4.2,.7-6.8,1.9-7.3,3.78-1.42,7.76-2.27,11.8-2.5v-9.1h-49.3v9.1l10.6,1.7c1.9,.9,2.7,2.9,2.7,6.1v75.3c0,2.9-.5,4.2-1.5,4.2l-.9-2.2c-2.5-7.1-6.1-10.6-11-10.6-.74-.03-1.48,.03-2.2,.2,.8-1.5,1.9-2.9,2.7-4.4l-5.8-4.6c-2.9,3.5-5.4,6.8-7.6,9.3-5.4,6.2-9.5,9.3-12,9.3-.3,0-.5-.2-.7-.5-.13-.21-.19-.45-.2-.7,0-1.5,1.7-7.9,4.9-19.6l19.8-73.5-2.7-2.2c-18.8,3.9-31.8,5.9-39.4,6.1-.45-.46-.95-.86-1.5-1.2-4.26-3.3-9.52-5.03-14.9-4.9-11.46-.02-22.69,3.21-32.4,9.3-4.72,3.02-9.2,6.39-13.4,10.1-1.9,1.7-3.7,3.6-5.6,5.6-7.05,7.62-12.83,16.33-17.1,25.8-4.7-10.5-14.5-17.9-29.5-22.5-1.9,.5-1.9-.5,0,0,11.5-3.5,18.9-10,22.5-19.1,1.58-4.32,2.33-8.9,2.2-13.5,0-14.7-6.6-25.5-19.8-32.6C98,2.7,85.2,0,69.7,0H0V8.6c14.7,.8,21.9,5.6,21.9,14.2v108.7c0,6.6-1.7,10.6-5.2,12.5-2.5,1.7-8.1,2.4-16.7,1.9v9.1H81.4c4.08-.02,8.15-.28,12.2-.8,8.85-1.09,17.34-4.21,24.8-9.1,4-2.7,7.48-6.08,10.3-10,3.53,12.23,14.22,21.01,26.9,22.1,1.5,.2,3.2,.2,4.9,.3,2.64-.01,5.28-.18,7.9-.5,16.7-2.2,31.4-11.5,43.9-27.5l-4.9-5.6c-13.7,12.2-25.3,18.2-34.8,18.2-1.4,.03-2.81-.03-4.2-.2-5.9-.7-10.3-2.9-12.8-6.8-2.2-3.2-3.2-7.3-3-12.2,.13-4.23,.77-8.42,1.9-12.5,.38-.17,.79-.27,1.2-.3,4.6-.9,8.8-1.7,12.8-2.5,36.1-8.4,54.2-23.3,54.2-44.4,0-1.14-.1-2.28-.3-3.4l4.8,.2Z" />
        <path id="Shape-2" class="cls-1" d="M372.6,55.4c3.9,0,5.8,2.2,5.8,6.4,0,18.4-14.93,31.4-44.8,39,4-9.52,8.93-18.63,14.7-27.2,8.4-12.2,16.5-18.2,24.3-18.2Zm5.6-10.2c-1.64-.03-3.27,.03-4.9,.2-9.77,.89-19.21,4-27.6,9.1-7.04,4.27-13.41,9.56-18.9,15.7-4.38,4.79-8.3,9.98-11.7,15.5-7.4,12.2-11.1,24.7-11.1,37.5,0,10.3,3,18.6,9.1,24.8s14.2,9.3,24.2,9.5c20.1,0,37.3-9.3,51.9-28l-4.9-5.6c-13.7,12.2-25.3,18.2-34.8,18.2-13.5,0-20.3-6.4-20.1-19.1,.1-4.22,.71-8.42,1.8-12.5,45.4-7.8,68.2-23.5,68.2-47.3,.08-3.08-.68-6.12-2.2-8.8-1.13-1.7-2.55-3.19-4.2-4.4-4.25-3.22-9.47-4.92-14.8-4.8h0Z" />
        <circle id="Oval" class="cls-1" cx="246.57" cy="25.05" r="15.2" transform="translate(129.72 243.62) rotate(-67.67)" />
    </g>
</svg>