<?xml version="1.0" encoding="utf-8"?>
<!-- Generator: Adobe Illustrator 27.0.1, SVG Export Plug-In . SVG Version: 6.00 Build 0)  -->
<svg version="1.1" id="Livello_1" xmlns="http://www.w3.org/2000/svg" xmlns:xlink="http://www.w3.org/1999/xlink" x="0px" y="0px"
  viewBox="0 0 426 307" style="enable-background:new 0 0 426 307;" xml:space="preserve">
  <style type="text/css">
	.st0{opacity:4.000000e-02;}
	.st1{fill:#323E48;}
</style>
  <g id="Consegne" class="st0">
    <g id="Artboard-Copy" transform="translate(-571.000000, -378.000000)">
      <g id="Logo_x2B_Write" transform="translate(571.000000, 378.000000)">
        <g id="Logo" transform="translate(0.386343, 0.188221)">
          <path id="Path" class="st1" d="M210,5.6c-12.3-6.9-29.2-8.5-50.3-4.1c-29,5.9-54,16.6-74.8,32.1C65.1,48.1,48.2,66.2,35,86.8
					C21.9,107,12.7,126.6,7.4,145.7s-7.3,35.8-6,49.3c2.2,19.4,10.1,38.5,23.1,56.8c13.2,18,34.8,32.3,64.6,42.4
					s70.5,13.5,121.5,9.6c42.8-4.3,79.4-13.5,109.8-27.7c5.9-2.8,11.6-5.6,17-8.6c33.1-19,57.4-40.1,72.1-63.4s19.7-44,14.9-61.9
					c-2.4-11.4-10.7-22.5-24.5-33.6c-14-11-36.1-17.8-66.4-20.4c-10.7-0.7-21.4-0.4-32,0.7c-25.9,2.1-56.5,8.4-92,18.7
					c-15.9,5.3-26.3,12.6-31.3,21.8c-4.8,9.2-5.4,18.2-1.7,27.2c3.2,8.8,9.4,16.2,17.5,20.9c8.2,5.1,17.3,6.5,27.5,3.7
					c8.3-1.6,19.9-4.2,35.3-7.5c15-3.2,30.3-5.1,45.6-5.8c2.4-0.1,4.8,0,7.2,0.3c12.2,0.5,23.2,3.4,32.4,8.7
					c10.9,6.6,16.3,18.5,16.3,36.1c-2.8,13.9-11.1,25.9-24.7,36c-4.9,3.5-9.8,6.7-14.9,9.9c-10,5.8-20.5,10.7-31.3,14.6
					c-18,6-34.2,10.9-49,14.1c-14.6,3.2-24.4,4.7-29.6,5c-6.4,0.4-16.3,0.9-30,1c-13.4,0.1-27.8-1.7-43.3-5.3
					c-15-3.5-28.8-10.9-39.9-21.5c-11.7-10.5-19.3-26.1-22.1-46.7c-0.5-17.6,4.1-33.2,14-46.6c10.1-13.8,22.7-25.6,37-35
					c13-8.8,26.5-16.6,40.6-23.5c12.3-6,20.8-10,25.3-12.2c16.7-6.9,28.7-16.5,35.6-29.4c6.9-12.6,8.9-25.2,6.4-37.9
					C229.9,22.5,222.4,12.6,210,5.6" />
          <path id="Path_00000086671207038671162970000016569029012566067358_" class="st1" d="M330.8,214.1c-0.5-9.9-3.8-18-10.1-24.1
					c-2.8-2.8-6-5.1-9.6-6.8c-4.7-2.3-10-3.3-15.2-2.9c-9.9,0.5-18,4.1-24,10.6c-6.6,6.5-10.1,15.6-9.7,24.8c0.5,9.9,4,18,10.8,24
					c6.6,6,14.8,9.2,24.5,9.2c7.7-0.5,14.1-2.7,19.5-6.4c1.6-1.2,3-2.3,4.6-3.7C327.9,232.1,331.2,223.2,330.8,214.1" />
        </g>
      </g>
    </g>
  </g>
</svg>