<?xml version="1.0" encoding="UTF-8"?>
<svg id="Livello_1" data-name="Livello 1" xmlns="http://www.w3.org/2000/svg" version="1.1" viewBox="0 0 539 253">
  <defs>
    <style>
      .cls-1 {
        fill: #262e36;
        stroke-width: 0px;
      }
    </style>
  </defs>
  <g>
    <path class="cls-1" d="M48.1,9.6c8.7-.5,17.4,1.6,24.9,6.1,6.9,4.7,10.9,12.6,10.4,20.9,0,20.5-17.5,29-32,29.3-1.4,0-2.7,0-4-.3l-8.8-2.4v20.5c0,11.8,1,12.5,13.5,13.5v4.7H9.7v-4.7c11.1-1.3,12.5-2,12.5-13.8V28.5c0-12.1-1.3-13.1-12.5-13.8v-4.7h38.4v-.3ZM38.3,57.4c2.7,1.2,5.7,1.8,8.8,1.7,7.7,0,18.9-4.4,18.9-22.6s-9.4-21.2-19.5-21.2-5.7.7-6.4,1.7-1.3,2.4-1.3,5.4v35h-.3Z"/>
    <path class="cls-1" d="M170,78.3c-.7,3.7-4.7,19.2-6.1,23.2h-71.4v-4.7c13.1-1,13.8-2,13.8-13.8V28.5c0-12.1-1.7-13.1-11.8-13.8v-4.7h44.8c14.1,0,19.5,0,21.2-.3,0,3,.7,14.1,1.3,22.2l-5.1.7c-1.1-4.3-2.9-8.4-5.4-12.1-2.4-3.7-4.7-4.4-12.8-4.4h-11.1c-5.1,0-5.4.3-5.4,4.7v30.3h14.8c9.1,0,10.1-2,12.1-12.1h5.1v30.6h-5.1c-2-10.4-3.4-11.8-12.1-11.8h-14.5v25.9c0,9.8,1.3,11.8,9.4,12.1h11.4c8.1,0,10.1-1,13.1-4.7,3.3-4.2,6-8.9,8.1-13.8l5.4,1Z"/>
    <path class="cls-1" d="M227.9,7.6c25.3-.5,46.3,19.6,46.8,44.9,0,.6,0,1.3,0,1.9,0,30.3-21.2,49.2-47.5,49.2-25.7.8-47.3-19.3-48.1-45.1,0-.9,0-1.8,0-2.7-.6-26,20.1-47.6,46.1-48.2.9,0,1.8,0,2.7,0ZM225.5,13.7c-15.2,0-27.3,13.8-27.3,39.4s11.4,45.1,31,45.1,26.6-12.8,26.6-39.4c0-29-13.1-45.1-30.3-45.1h0Z"/>
    <path class="cls-1" d="M325.5,9.6c8.7-.5,17.4,1.6,24.9,6.1,6.9,4.7,10.9,12.6,10.4,20.9,0,20.5-17.5,29-32,29.3-1.4,0-2.7,0-4-.3l-8.8-2.4v20.5c0,11.8,1,12.5,13.5,13.5v4.7h-42.4v-4.7c11.1-1.3,12.5-2,12.5-13.8V28.5c0-12.1-1.3-13.1-12.5-13.8v-4.7h38.4v-.3ZM315.8,57.4c2.7,1.2,5.7,1.8,8.8,1.7,7.7,0,18.9-4.4,18.9-22.6s-9.4-21.2-19.5-21.2-5.7.7-6.4,1.7-1.3,2.4-1.3,5.4v35h-.3Z"/>
    <path class="cls-1" d="M444.7,77.3c-1,5.4-5.1,20.2-6.4,24.2h-68.4v-4.7c12.8-1,13.8-2,13.8-13.8V28.1c0-11.8-1.3-12.8-12.5-13.8v-4.7h41.4v4.7c-11.1,1-12.8,2-12.8,13.8v55.9c0,8.1.7,11.1,8.4,11.1h9.1c7.7,0,9.8-1.3,13.1-5.1,3.7-4.4,6.7-9.4,8.8-14.8l5.4,2Z"/>
    <path class="cls-1" d="M528.9,78.3c-.7,3.7-4.7,19.2-6.1,23.2h-71.4v-4.7c13.1-1,13.8-2,13.8-13.8V28.5c0-12.1-1.7-13.1-11.8-13.8v-4.7h44.8c14.1,0,19.5,0,21.2-.3,0,3,.7,14.1,1.3,22.2l-5.1.7c-1.1-4.3-2.9-8.4-5.4-12.1-2.4-3.7-4.7-4.4-12.8-4.4h-11.1c-5.1,0-5.4.3-5.4,4.7v30.3h14.8c9.1,0,10.1-2,12.1-12.1h5.1v30.6h-5.1c-2-10.4-3.4-11.8-12.1-11.8h-14.5v25.9c0,9.8,1.3,11.8,9.4,12.1h11.4c8.1,0,10.1-1,13.1-4.7,3.3-4.2,6-8.9,8.1-13.8l5.4,1Z"/>
  </g>
  <path class="cls-1" d="M72.4,175.7c-1.2-4.2-2.9-8.2-5.3-11.9-2.6-3.6-4.6-4.6-11.9-4.6h-12.2c-4.3,0-4.9.3-4.9,4.6v31h15.8c8.9,0,9.9-2,11.9-11.5h4.6v30h-4.9c-1.6-9.6-3.3-11.9-11.9-11.9h-15.5v23.1c0,12.5,1,13.2,13.5,14.2v4.6H9.7v-4.6c10.9-1,12.2-1.6,12.2-14.2v-52.8c0-12.2-1.3-13.2-12.2-14.2v-4.6h45.5c12.2,0,18.1,0,20.5-.3,0,3.6.7,14.5,1.3,22.1l-4.6,1Z"/>
  <path class="cls-1" d="M87.5,243.4v-4.6c10.9-1,12.2-1.6,12.2-13.5v-53.5c0-11.9-1.3-12.5-12.2-13.5v-4.6h40.3v4.6c-10.9,1-12.2,2-12.2,13.5v53.8c0,11.5,1.3,12.2,12.2,13.5v4.6h-40.3v-.3Z"/>
  <path class="cls-1" d="M224.5,244.4c-1.5,0-3.1,0-4.6-.3-14.5-.7-19.8-4-24.7-10.9s-9.9-15.8-14.5-23.8c-2.3-4-4.3-4.9-9.9-4.9h-3.6v20.8c0,11.5,1.3,12.2,12.2,13.5v4.6h-40.3v-4.6c10.9-1.3,12.2-2,12.2-13.5v-54.1c0-11.2-1.3-12.2-12.2-13.5v-4.6h37.9c11.5,0,18.5,1.3,23.8,4.9,6.1,4.1,9.6,11.1,9.2,18.5,0,12.2-7.9,19.1-17.5,23.1,2.3,4.3,7.9,13.2,12.2,19.8,3.2,5,6.8,9.9,10.6,14.5,2.4,2.9,5.6,5.1,9.2,6.3v4.3ZM172.4,199.2c6.6,0,11.2-1,14.2-3.6,4.9-4,7.5-10.2,6.9-16.5,0-14.8-8.9-20.1-18.1-20.1-2.4-.2-4.8.2-6.9,1.3-1,1-1.3,2.3-1.3,5.6v33.3h5.3Z"/>
  <path class="cls-1" d="M277.6,175.4c-2.6-8.9-6.6-18.5-19.5-18.5-7.3-.4-13.5,5.2-13.9,12.5,0,.6,0,1.1,0,1.7,0,8.6,5.6,13.2,17.5,19.1,15.5,7.9,24.1,14.8,24.1,28.4s-13.2,27.1-32,27.1c-7.7-.2-15.2-1.7-22.4-4.3-1-3.6-3-15.8-4-22.8l4.9-1.3c2.6,8.9,9.9,22.8,23.8,22.8s14.5-5.9,14.5-14.8-5.3-13.9-17.2-20.1c-14.5-7.9-23.4-14.5-23.4-28.4s10.9-25.1,30.7-25.1c6.5.1,12.9,1,19.1,2.6.7,4.9,1.3,11.5,2.3,20.5l-4.6.7Z"/>
  <path class="cls-1" d="M372.3,176.4c-1.1-4.4-2.9-8.7-5.3-12.5-2.3-3.3-3.6-4.3-11.5-4.3h-10.9v66c0,11.2,1.3,12.5,13.9,13.2v4.6h-43.6v-4.6c12.2-1,13.5-2,13.5-13.2v-66h-10.2c-7.6,0-9.9,1-12.5,4.6-2.2,3.8-4,7.9-5.3,12.2h-4.9c1-9.2,2-19.5,2.3-26.4h3.6c2,3.3,3.6,3.3,7.6,3.3h55.1c2.9.4,5.9-.9,7.6-3.3h3.6c0,6.3.7,17.5,1.3,26.1l-4.3.3Z"/>
</svg>