<?xml version="1.0" encoding="UTF-8"?>
<svg xmlns="http://www.w3.org/2000/svg" xmlns:xlink="http://www.w3.org/1999/xlink" viewBox="0 0 500 500" width="500px" height="500px">
<g id="surface29264639">
<path style=" stroke:none;fill-rule:nonzero;fill:rgb(19.607843%,24.313726%,28.235295%);fill-opacity:1;" d="M 80 30.097656 C 45.300781 30.097656 20.097656 50.890625 20.097656 79.492188 C 20.097656 108.191406 45.898438 129.902344 80 129.902344 C 114.699219 129.902344 139.902344 108.707031 139.902344 78.90625 C 138.300781 50.207031 113.601562 30.097656 80 30.097656 Z M 30 150 C 24.5 150 20 154.5 20 160 L 20 450 C 20 455.5 24.5 460 30 460 L 130 460 C 135.5 460 140 455.5 140 450 L 140 160 C 140 154.5 135.5 150 130 150 Z M 180 150 C 174.5 150 170 154.5 170 160 L 170 450 C 170 455.5 174.5 460 180 460 L 270 460 C 275.519531 460 280 455.519531 280 450 L 280 295 C 280 271.300781 298.207031 251.996094 321.40625 250.195312 C 322.605469 249.996094 323.800781 250 325 250 C 326.199219 250 327.394531 249.996094 328.59375 250.195312 C 351.792969 251.996094 370 271.300781 370 295 L 370 450 C 370 455.519531 374.480469 460 380 460 L 470 460 C 475.5 460 480 455.5 480 450 L 480 280 C 480 215.300781 445.289062 150 367.890625 150 C 332.691406 150 306.101562 163.601562 290 174.902344 L 290 160 C 290 154.5 285.5 150 280 150 Z M 180 150 "/>
</g>
</svg>
