<?xml version="1.0" encoding="UTF-8"?>
<svg xmlns="http://www.w3.org/2000/svg" xmlns:xlink="http://www.w3.org/1999/xlink" viewBox="0 0 512 512" width="512px" height="512px">
<g id="surface29277561">
<path style=" stroke:none;fill-rule:nonzero;fill:rgb(19.607843%,24.313726%,28.235295%);fill-opacity:1;" d="M 129.125 56.21875 L 158.8125 163.46875 L 158.828125 163.46875 L 158.828125 214.921875 L 184.53125 214.921875 L 184.53125 163.46875 L 214.609375 56.21875 L 188.703125 56.21875 L 177.921875 105.015625 C 174.890625 119.261719 172.949219 129.414062 172.0625 135.453125 L 171.296875 135.453125 C 170.039062 127.011719 168.078125 116.789062 165.4375 104.828125 L 155.03125 56.21875 Z M 244.59375 96.71875 C 235.875 96.71875 228.851562 98.425781 223.5 101.90625 C 218.132812 105.371094 214.199219 110.894531 211.671875 118.453125 C 209.160156 126.027344 207.890625 136.050781 207.890625 148.53125 L 207.890625 165.359375 C 207.890625 177.703125 208.996094 187.605469 211.203125 195.046875 C 213.410156 202.488281 217.128906 207.972656 222.359375 211.5 C 227.597656 215.027344 234.832031 216.796875 244.03125 216.828125 C 252.984375 216.828125 260.074219 215.097656 265.296875 211.625 C 270.519531 208.152344 274.3125 202.683594 276.640625 195.171875 C 278.96875 187.660156 280.140625 177.75 280.140625 165.390625 L 280.140625 148.53125 C 280.140625 136.050781 278.9375 126.074219 276.546875 118.5625 C 274.15625 111.066406 270.386719 105.542969 265.203125 102.015625 C 260.035156 98.488281 253.160156 96.71875 244.59375 96.71875 Z M 293.65625 98.96875 L 293.65625 185.578125 C 293.65625 196.304688 295.507812 204.203125 299.15625 209.234375 C 302.820312 214.265625 308.492188 216.796875 316.1875 216.796875 C 327.285156 216.796875 335.605469 211.453125 341.140625 200.734375 L 341.71875 200.734375 L 343.984375 214.90625 L 364.40625 214.90625 L 364.40625 98.96875 L 338.296875 98.96875 L 338.296875 191.0625 C 337.296875 193.222656 335.761719 194.96875 333.671875 196.359375 C 331.582031 197.757812 329.429688 198.453125 327.15625 198.453125 C 324.492188 198.453125 322.605469 197.347656 321.46875 195.140625 C 320.332031 192.933594 319.765625 189.261719 319.765625 184.078125 L 319.765625 98.96875 Z M 244.03125 114.6875 C 247.679688 114.6875 250.246094 116.589844 251.6875 120.4375 C 253.144531 124.269531 253.859375 130.359375 253.859375 138.6875 L 253.859375 174.8125 C 253.859375 183.398438 253.128906 189.574219 251.6875 193.359375 C 250.246094 197.136719 247.671875 199.023438 244.03125 199.046875 C 240.382812 199.046875 237.859375 197.144531 236.46875 193.359375 C 235.070312 189.574219 234.390625 183.378906 234.390625 174.8125 L 234.390625 138.6875 C 234.390625 130.375 235.121094 124.285156 236.5625 120.4375 C 238.003906 116.605469 240.503906 114.6875 244.03125 114.6875 Z M 112 248 C 89.910156 248 72 265.910156 72 288 L 72 416 C 72 438.089844 89.910156 456 112 456 L 400 456 C 422.089844 456 440 438.089844 440 416 L 440 288 C 440 265.910156 422.089844 248 400 248 Z M 256.953125 278.453125 L 277.75 278.453125 L 277.75 328.9375 L 277.90625 328.9375 C 279.769531 325.289062 282.433594 322.347656 285.875 320.109375 C 289.316406 317.871094 293.015625 316.75 296.984375 316.75 C 302.097656 316.75 306.105469 318.109375 309 320.8125 C 311.894531 323.515625 314.015625 327.90625 315.3125 333.953125 C 316.609375 340.007812 317.265625 348.398438 317.265625 359.125 L 317.265625 374.265625 L 317.28125 374.265625 C 317.28125 388.546875 315.550781 399.039062 312.109375 405.765625 C 308.667969 412.492188 303.304688 415.859375 296.015625 415.859375 C 291.953125 415.859375 288.25 414.910156 284.90625 413.046875 C 281.5625 411.183594 279.085938 408.613281 277.421875 405.375 L 276.9375 405.375 L 274.765625 414.4375 L 256.953125 414.4375 Z M 128 283.296875 L 191.921875 283.296875 L 191.921875 300.65625 L 170.515625 300.65625 L 170.515625 414.4375 L 149.421875 414.4375 L 149.421875 300.65625 L 128 300.65625 Z M 356.171875 316.8125 C 363.554688 316.8125 369.234375 318.171875 373.203125 320.875 C 377.148438 323.59375 379.953125 327.820312 381.578125 333.53125 C 383.1875 339.257812 384 347.175781 384 357.28125 L 384 373.71875 L 347.90625 373.71875 L 347.90625 378.5625 C 347.90625 384.722656 348.09375 389.34375 348.46875 392.40625 C 348.84375 395.46875 349.589844 397.734375 350.734375 399.125 C 351.878906 400.53125 353.640625 401.21875 356.03125 401.21875 C 359.253906 401.21875 361.480469 399.957031 362.6875 397.46875 C 363.878906 394.980469 364.519531 390.800781 364.625 384.96875 L 383.234375 386.0625 C 383.332031 386.878906 383.390625 388.042969 383.390625 389.5 C 383.390625 398.355469 380.972656 405 376.125 409.359375 C 371.277344 413.75 364.425781 415.921875 355.5625 415.921875 C 344.9375 415.921875 337.492188 412.570312 333.203125 405.90625 C 328.914062 399.242188 326.796875 388.929688 326.796875 374.96875 L 326.796875 358.234375 C 326.796875 343.859375 329.027344 333.367188 333.453125 326.734375 C 337.878906 320.101562 345.445312 316.8125 356.171875 316.8125 Z M 222.421875 318.578125 L 244 318.578125 L 244 414.390625 L 243.953125 414.390625 L 243.953125 414.4375 L 227.078125 414.4375 L 225.203125 402.703125 L 224.734375 402.703125 C 220.132812 411.574219 213.261719 416 204.09375 416 C 197.726562 416 193.054688 413.925781 190.03125 409.75 C 187 405.589844 185.5 399.042969 185.5 390.203125 L 185.5 318.609375 L 207.09375 318.609375 L 207.09375 388.953125 C 207.09375 393.210938 207.5625 396.292969 208.5 398.09375 C 209.453125 399.925781 210.996094 400.828125 213.203125 400.828125 C 215.066406 400.828125 216.859375 400.253906 218.578125 399.09375 C 220.3125 397.949219 221.574219 396.480469 222.421875 394.703125 Z M 355.703125 331.359375 C 353.40625 331.359375 351.714844 332.046875 350.609375 333.390625 C 349.511719 334.75 348.78125 336.96875 348.4375 340.046875 C 348.0625 343.109375 347.875 347.792969 347.875 354.03125 L 347.875 360.90625 L 363.65625 360.90625 L 363.65625 354.03125 C 363.65625 347.871094 363.4375 343.222656 363.03125 340.046875 C 362.632812 336.855469 361.894531 334.617188 360.796875 333.3125 C 359.699219 332.015625 358.015625 331.359375 355.703125 331.359375 Z M 287.265625 332.078125 C 285.1875 332.078125 283.261719 332.890625 281.484375 334.5625 C 279.714844 336.234375 278.453125 338.382812 277.734375 340.96875 L 277.734375 395.375 C 278.6875 397.046875 279.902344 398.285156 281.40625 399.125 C 282.910156 399.941406 284.542969 400.390625 286.328125 400.390625 C 288.625 400.390625 290.4375 399.5625 291.796875 397.890625 C 293.15625 396.21875 294.136719 393.414062 294.6875 389.453125 C 295.261719 385.507812 295.546875 380.023438 295.546875 373.046875 L 295.546875 360.703125 C 295.546875 353.207031 295.316406 347.421875 294.84375 343.34375 C 294.402344 339.28125 293.550781 336.34375 292.375 334.640625 C 291.183594 332.9375 289.480469 332.078125 287.265625 332.078125 Z M 287.265625 332.078125 "/>
</g>
</svg>
