<?xml version="1.0" encoding="UTF-8"?>
<svg xmlns="http://www.w3.org/2000/svg" xmlns:xlink="http://www.w3.org/1999/xlink" viewBox="0 0 480 480" width="480px" height="480px">
<g id="surface29363170">
<path style=" stroke:none;fill-rule:nonzero;fill:rgb(83.92157%,89.019608%,89.803922%);fill-opacity:1;" d="M 431.640625 123.71875 C 427.039062 106.519531 413.480469 92.960938 396.28125 88.359375 C 365.078125 80 240 80 240 80 C 240 80 114.921875 80 83.71875 88.359375 C 66.519531 92.960938 52.960938 106.519531 48.359375 123.71875 C 40 154.921875 40 240 40 240 C 40 240 40 325.078125 48.359375 356.28125 C 52.960938 373.480469 66.519531 387.039062 83.71875 391.640625 C 114.921875 400 240 400 240 400 C 240 400 365.078125 400 396.28125 391.640625 C 413.5 387.039062 427.039062 373.480469 431.640625 356.28125 C 440 325.078125 440 240 440 240 C 440 240 440 154.921875 431.640625 123.71875 Z M 200 309.28125 L 200 170.71875 L 320 240 Z M 200 309.28125 "/>
</g>
</svg>
