<?xml version="1.0" encoding="utf-8"?>
<!-- Generator: Adobe Illustrator 26.0.3, SVG Export Plug-In . SVG Version: 6.00 Build 0)  -->
<svg version="1.1" id="Livello_1" xmlns="http://www.w3.org/2000/svg" xmlns:xlink="http://www.w3.org/1999/xlink" x="0px" y="0px"
	 viewBox="0 0 1200 627" style="enable-background:new 0 0 1200 627;" xml:space="preserve">
<style type="text/css">
	.st0{fill:#FFFFFF;}
</style>
<g>
	<g>
		<path class="st0" d="M344,366c0-102.9,0-205.8,0-309c124.7,0,249.3,0,374,0c-4.5,2.1-6.1,5.8-5.7,10.6c0.2,2.5,0.4,5.1-0.1,7.5
			c-0.4,1.7-1.7,3.6-3.2,4.7c-4.2,3.1-7.9,2.3-10.8-2c-0.9-1.4-2.3-2.4-3.5-3.6c-5.2-5-8.4-5-13.6,0.1c-9.2,9.2-18.3,18.5-27.7,27.5
			c-10,9.6-10.2,12,0.3,21.4c3.1,2.8,4.2,5.2,2.2,9.3c-1.6,3.4-3.3,5-7,4.6c-3-0.3-6-0.1-9,0c-4.4,0.2-6.9,2.6-7,6.9
			c-0.1,16.5-0.1,33,0,49.5c0,4.4,2.8,6.6,7.1,6.8c3,0.1,6,0.3,9,0c3.5-0.3,5.2,0.9,6.7,4.3c1.7,3.9,1.8,6.7-1.8,9.4
			c-2,1.5-3.6,3.4-5.3,5.3c-3.6,3.9-3.7,7.7,0,11.4c11.1,11.3,22.3,22.5,33.6,33.5c3.8,3.8,7.4,3.6,11.4-0.1c2.4-2.3,4.6-4.8,7.1-7
			c1-0.8,2.6-1.6,3.7-1.4c6.8,1.4,7.8,2.8,7.8,9.6c0,2.5-0.2,5,0.1,7.5c0.4,4.1,2.7,7.1,7,7.1c16.5,0.2,33,0.2,49.5,0
			c4.4,0,7-2.8,7.1-7.4c0.1-3.5-0.2-7,0.2-10.5c0.2-1.5,1.3-3.2,2.6-4.1c4.6-3.2,8.8-3.1,12.1,2.1c0.5,0.8,1.4,1.4,2.1,2.1
			c6.4,6.4,9.1,6.4,15.7-0.2c8.6-8.6,17.2-17.2,25.8-25.8c11.1-11.1,11.2-11.3,0-22.4c-2.1-2.1-4.3-3.8-2.4-7.5
			c1.8-3.6,3.1-7,8.1-5.9c1.8,0.4,3.7-0.1,5.5,0.1c4.6,0.5,8.1-1.2,10.4-5.2c0,54,0,108,0,162c-2.2-3.8-5.4-5.7-9.9-5.2
			c-2.8,0.3-3.9-0.8-4.7-3.7c-1.5-5.2-3.2-10.6-5.9-15.3c-2.5-4.3-3.5-7.1,0.9-10.8c3.2-2.6,2.8-6.6-0.1-9.8c-2.7-3-6.8-2.9-10.3,0
			c-1.5,1.3-2.9,2.7-3.7,3.4c-7.2-3-13.6-6.2-20.3-8.1c-4-1.1-5.4-2.3-5.3-6.5c0.2-5.7-3.8-9.1-8.8-7.9c-4.5,1.1-5.5,4.6-5.8,8.8
			c-0.1,1.7-1.2,4.3-2.5,4.8c-7.3,3.1-14.8,5.7-23,8.7c-3.3-2.5-7.5-9.3-13.6-3.1c-6,6.1,0.5,10.3,3.4,13.8
			c-3.6,8.7-7,16.8-10.6,25.4c-4.5,0.4-11.9-1.2-12.1,7.1c-0.2,8.6,7.4,7.1,12.1,7.5c3.7,8.8,7.1,17,10.6,25.4
			c-5.9,6.9-6.9,10.1-3.8,13.7c3.3,3.8,5.9,3.2,14.6-3c6.8,2.8,13,6,19.6,7.9c4,1.2,5.8,2.3,5.6,6.8c-0.2,5.7,4.1,9.1,9,7.8
			c4.2-1.1,5.4-4.3,5.6-8.4c0.1-1.8,0.9-4.6,2.2-5.1c7.4-3.1,15.1-5.7,23.5-8.8c3.3,2.5,7.4,9.3,13.5,3.1c6-6.1-0.6-10.3-3.2-13.7
			c3.1-7.8,6.1-14.8,8.5-22c0.9-2.7,1.8-4.1,4.7-3.7c4.5,0.6,7.6-1.4,9.9-5.1c0,69.3,0,138.5,0,208c-103,0-206,0-309,0
			c4.4-2.2,5.9-5.9,5.6-10.7c-0.2-4.2,0.1-8.3-0.1-12.5c-0.2-2.9,0.9-4.1,3.7-4.8c5.8-1.3,11.6-3.2,17.4-4.4
			c1.4-0.3,3.8,0.6,4.6,1.8c2.7,4,4.9,8.3,7.4,12.5c3.3,5.6,6.7,6.5,12.5,3.2c11-6.3,21.9-12.6,32.9-19c5.7-3.3,6.6-6.7,3.4-12.4
			c-2.8-5.1-5.8-10.1-8-14c6.3-6.3,12-12.2,18.1-18.3c4.4,2.5,9.4,5.5,14.5,8.3c5.2,2.9,8.9,2,11.8-3.1
			c6.7-11.3,13.2-22.7,19.7-34.2c2.8-5,1.8-8.3-3.1-11.3c-4.1-2.5-8.3-4.9-12.6-7.2c-2.4-1.3-3.3-2.6-2.4-5.5
			c1.8-5.7,3-11.6,4.8-17.3c0.4-1.4,2.4-3.1,3.8-3.2c5-0.4,10-0.1,15-0.2c5.8-0.1,8.6-2.7,8.7-8.6c0.1-13,0.1-26,0-39
			c-0.1-6.1-2.7-8.6-9-8.8c-4.7-0.1-9.3-0.1-14,0c-2.7,0.1-4.2-0.6-4.8-3.6c-1.1-5.5-2.5-11-4.4-16.4c-1.2-3.3-0.2-4.8,2.6-6.3
			c4.3-2.2,8.4-4.7,12.5-7.2c4.4-2.8,5.5-6.2,3-10.6c-6.6-11.7-13.4-23.4-20.2-35c-2.7-4.6-6.4-5.5-11.1-2.9
			c-4.5,2.5-8.8,5.3-13.5,7.6c-1.2,0.6-3.8,0.2-4.9-0.8c-4.4-4-8.4-8.6-12.8-12.6c-2.2-2-2.3-3.5-0.8-5.9c2.7-4.2,5.1-8.6,7.5-13
			c2.5-4.7,1.6-8.3-3-11c-11.5-6.8-23-13.4-34.6-20c-4.9-2.8-8.2-1.7-11.3,3.3c-2.5,4.1-5,8.3-7.2,12.5c-1.3,2.5-2.7,3.1-5.5,2.2
			c-5.5-1.8-11.2-3.4-16.9-4.5c-3-0.6-3.7-2-3.7-4.7c0.1-4.8,0.2-9.7,0-14.5c-0.2-5.7-2.7-8.4-8.3-8.5c-13.3-0.2-26.7-0.2-40,0
			c-5.5,0.1-8,3-8.1,8.6c-0.1,5,0.2,10-0.2,15c-0.1,1.3-1.5,3.3-2.7,3.7c-6,1.9-12.1,3.6-18.3,4.9c-1.4,0.3-3.7-0.8-4.6-2
			c-2.6-3.8-4.7-8-7.1-12c-3.6-6.1-6.7-7-12.7-3.5c-11,6.3-21.9,12.6-32.9,19c-5.6,3.2-6.5,6.8-3.3,12.5c2.8,5,5.8,10,8.8,15.3
			c-5.5,5.5-10.7,10.9-16.2,15.9c-0.8,0.7-3.1,0.6-4.2,0c-4.6-2.4-8.9-5.2-13.5-7.6c-4.7-2.5-8.3-1.6-11,3
			c-6.8,11.5-13.4,23-20,34.6c-2.7,4.8-1.6,8.3,3.3,11.3c4.3,2.6,8.8,4.8,12.9,7.6c1.2,0.8,2.1,3.2,1.8,4.6
			c-1.2,5.8-3.1,11.6-4.4,17.4c-0.6,2.8-2,3.8-4.8,3.7c-4.2-0.2-8.3,0.1-12.5-0.1C350,360.2,346.2,361.6,344,366z"/>
		<path d="M344,366c2.2-4.4,6-5.8,10.7-5.6c4.2,0.2,8.3-0.1,12.5,0.1c2.8,0.1,4.2-0.8,4.8-3.7c1.3-5.8,3.2-11.5,4.4-17.4
			c0.3-1.4-0.7-3.8-1.8-4.6c-4.1-2.8-8.6-5-12.9-7.6c-4.9-3-6-6.5-3.3-11.3c6.6-11.6,13.2-23.1,20-34.6c2.7-4.6,6.4-5.5,11-3
			c4.5,2.5,8.9,5.3,13.5,7.6c1.2,0.6,3.4,0.7,4.2,0c5.5-5.1,10.7-10.4,16.2-15.9c-3-5.2-6-10.2-8.8-15.3c-3.2-5.7-2.3-9.3,3.3-12.5
			c10.9-6.4,21.9-12.7,32.9-19c6-3.4,9.1-2.6,12.7,3.5c2.4,4,4.5,8.2,7.1,12c0.8,1.2,3.2,2.3,4.6,2c6.2-1.3,12.3-3,18.3-4.9
			c1.2-0.4,2.6-2.4,2.7-3.7c0.3-5,0.1-10,0.2-15c0.1-5.7,2.5-8.6,8.1-8.6c13.3-0.2,26.7-0.2,40,0c5.6,0.1,8.1,2.8,8.3,8.5
			c0.2,4.8,0.1,9.7,0,14.5c-0.1,2.7,0.6,4.1,3.7,4.7c5.7,1.1,11.3,2.7,16.9,4.5c2.8,0.9,4.2,0.3,5.5-2.2c2.2-4.3,4.7-8.4,7.2-12.5
			c3-5,6.3-6.1,11.3-3.3c11.6,6.6,23.1,13.2,34.6,20c4.6,2.7,5.6,6.3,3,11c-2.4,4.4-4.9,8.7-7.5,13c-1.5,2.4-1.4,3.9,0.8,5.9
			c4.5,4,8.4,8.6,12.8,12.6c1.1,1,3.6,1.4,4.9,0.8c4.6-2.3,8.9-5.1,13.5-7.6c4.7-2.5,8.4-1.7,11.1,2.9c6.9,11.6,13.6,23.3,20.2,35
			c2.5,4.4,1.4,7.9-3,10.6c-4.1,2.6-8.3,5-12.5,7.2c-2.8,1.5-3.8,3-2.6,6.3c1.8,5.3,3.3,10.8,4.4,16.4c0.6,3,2,3.7,4.8,3.6
			c4.7-0.1,9.3-0.1,14,0c6.3,0.2,9,2.7,9,8.8c0.1,13,0.1,26,0,39c-0.1,5.9-2.9,8.5-8.7,8.6c-5,0.1-10-0.2-15,0.2
			c-1.4,0.1-3.4,1.8-3.8,3.2c-1.8,5.7-3,11.6-4.8,17.3c-0.9,2.9,0,4.2,2.4,5.5c4.3,2.3,8.4,4.7,12.6,7.2c5,3,5.9,6.3,3.1,11.3
			c-6.5,11.5-13,22.8-19.7,34.2c-2.9,5-6.6,5.9-11.8,3.1c-5.1-2.8-10.1-5.8-14.5-8.3c-6,6.1-11.8,12-18.1,18.3c2.3,4,5.2,9,8,14
			c3.2,5.7,2.3,9.1-3.4,12.4c-10.9,6.4-21.9,12.7-32.9,19c-5.7,3.3-9.1,2.3-12.5-3.2c-2.5-4.1-4.7-8.5-7.4-12.5
			c-0.8-1.1-3.2-2.1-4.6-1.8c-5.9,1.2-11.6,3-17.4,4.4c-2.8,0.6-3.8,1.9-3.7,4.8c0.2,4.2-0.1,8.3,0.1,12.5c0.2,4.8-1.2,8.5-5.6,10.7
			c-15.3,0-30.7,0-46,0c-3.9-2.7-5.2-6.5-4.9-11.1c0.3-4.1-0.1-8.3,0.1-12.5c0.1-2.7-1-3.8-3.5-4.4c-5.7-1.3-11.4-2.6-16.9-4.4
			c-3.2-1.1-4.5-0.1-5.9,2.5c-2,3.8-4.3,7.5-6.5,11.3c-3.6,6.2-6.9,7.2-13.1,3.6c-10.8-6.2-21.6-12.4-32.4-18.7
			c-5.9-3.4-6.7-6.8-3.4-12.8c2.8-5,5.7-10,8.1-14.1c-6.3-6.3-12-12.1-17.9-18.1c-4.6,2.7-9.8,5.7-15,8.6c-4.9,2.7-8.6,1.7-11.4-3
			c-6.7-11.3-13.2-22.7-19.7-34.2c-2.9-5.1-1.8-8.6,3.3-11.7c4.3-2.6,8.7-4.9,12.9-7.6c1-0.7,2.3-2.4,2.1-3.3
			c-1.9-7.4-4-14.7-6.2-22.3c-5.2,0-10.4-0.2-15.5,0.1c-4.7,0.3-8.4-1-11.1-4.9C344,396.7,344,381.3,344,366z M453.3,238.5
			c-8.2,4.7-15.7,9.1-23.5,13.6c2.8,4.9,5.4,9.2,7.8,13.6c3.6,6.4,3,8.5-2.1,13.4c-7.1,6.7-14,13.7-20.8,20.8
			c-4.7,4.9-7.2,5.6-13,2.3c-4.6-2.6-9.1-5.2-14-8c-4.7,8.1-9,15.5-13.2,22.8c0.5,0.6,0.6,1,0.9,1.2c4.3,2.6,8.6,5.1,12.9,7.7
			c5.7,3.4,6.3,5.7,4.4,12c-2.8,9.5-5.5,19.2-7.8,28.8c-1.5,6.6-3.1,8.3-10.1,8.3c-5.3,0-10.5,0-15.8,0c0,9.5,0,18.1,0,27.2
			c5.7,0,11.2-0.1,16.6,0c5.5,0.1,7.8,2.3,9.1,7.4c2.5,10.1,5.2,20.3,8,30.3c1.7,5.9,1,8.3-4.4,11.6c-4.6,2.7-9.1,5.3-14.2,8.3
			c4.6,8,9,15.7,13.5,23.4c5.4-3.1,10-5.8,14.6-8.4c5.2-2.9,7.7-2.2,11.8,2.1c7.2,7.4,14.4,14.7,21.9,21.9c4.4,4.3,5.1,6.7,2,12.2
			c-2.6,4.6-5.2,9.2-8.2,14.3c7.9,4.6,15.4,8.9,23.4,13.5c2.9-5,5.6-9.6,8.2-14.1c3.3-5.7,5.7-6.2,12-4.4c9.5,2.8,19.2,5.5,28.9,7.7
			c6.4,1.5,8.4,3.4,8.5,10.1c0,5.3,0,10.5,0,15.7c9.4,0,18,0,27.2,0c0-5.9,0.1-11.5,0-17.1c-0.1-5.1,2.6-7.4,7.3-8.5
			c10.1-2.5,20.3-5.1,30.3-8c5.9-1.7,8.3-1.1,11.5,4.4c2.7,4.6,5.4,9.1,8.3,14.2c7.9-4.6,15.5-8.9,23.4-13.5
			c-3.1-5.4-5.9-10.2-8.7-15.1c-2.2-4-1.7-7.4,1.7-10.7c7.8-7.5,15.4-15.2,23-22.9c3.9-4,6.4-4.5,11.5-1.7c4.8,2.7,9.5,5.4,14.6,8.3
			c4.5-7.9,8.9-15.4,13.2-22.8c-0.5-0.7-0.6-1.1-0.8-1.2c-4.3-2.5-8.6-5-12.9-7.6c-5.6-3.3-6.2-5.7-4.3-12
			c2.8-9.6,5.5-19.2,7.8-28.9c1.6-6.7,3.3-8.4,10-8.5c5.3,0,10.5,0,16.1,0c0-8.6,0.1-16.4-0.2-24.2c0-1-2.1-2.8-3.3-2.8
			c-4.6-0.3-9.3-0.2-14-0.1c-5,0.1-7.4-2.4-8.6-7.2c-2.4-10-5-20-7.9-29.8c-1.9-6.5-1.3-8.8,4.7-12.3c4.5-2.7,9.1-5.3,13.8-8
			c-4.8-8.2-9.2-15.7-13.6-23.4c-5.3,3-9.9,5.7-14.5,8.3c-5,2.8-7.9,2-11.9-2.1c-7.2-7.4-14.4-14.7-21.9-21.9
			c-4.3-4.1-5-6.8-1.9-12.3c2.6-4.6,5.2-9.2,8.1-14.2c-7.9-4.6-15.5-9-23.4-13.6c-3,5.2-5.9,10-8.6,14.9c-2.5,4.3-5.9,5.2-10.6,3.9
			c-10.4-3-20.8-5.8-31.3-8.4c-4.6-1.1-6.9-3.5-6.9-8.3c0.1-4.7,0.2-9.3-0.1-14c-0.1-1.2-1.4-3.4-2.2-3.5
			c-8.1-0.3-16.2-0.2-24.9-0.2c0,6,0.1,11.5,0,16.9c-0.1,5.6-2,7.7-7.3,9c-10.3,2.6-20.6,5.4-30.8,8.2c-5.4,1.5-8,0.8-10.9-4
			C459,248.5,456.3,243.7,453.3,238.5z"/>
		<path d="M856,195c-2.3,4.1-5.7,5.7-10.4,5.2c-1.8-0.2-3.7,0.3-5.5-0.1c-5-1-6.3,2.3-8.1,5.9c-1.9,3.8,0.3,5.4,2.4,7.5
			c11.1,11.1,11.1,11.3,0,22.4c-8.6,8.6-17.2,17.2-25.8,25.8c-6.6,6.6-9.2,6.6-15.7,0.2c-0.7-0.7-1.6-1.3-2.1-2.1
			c-3.3-5.1-7.5-5.2-12.1-2.1c-1.2,0.9-2.4,2.6-2.6,4.1c-0.4,3.5-0.1,7-0.2,10.5c-0.1,4.6-2.6,7.4-7.1,7.4c-16.5,0.2-33,0.2-49.5,0
			c-4.3,0-6.6-3-7-7.1c-0.3-2.5-0.1-5-0.1-7.5c0-6.8-1-8.2-7.8-9.6c-1.1-0.2-2.8,0.6-3.7,1.4c-2.5,2.2-4.7,4.7-7.1,7
			c-4,3.7-7.5,3.9-11.4,0.1c-11.3-11.1-22.5-22.3-33.6-33.5c-3.7-3.8-3.6-7.6,0-11.4c1.7-1.8,3.3-3.8,5.3-5.3
			c3.6-2.7,3.5-5.5,1.8-9.4c-1.5-3.4-3.3-4.5-6.7-4.3c-3,0.2-6,0.1-9,0c-4.3-0.2-7.1-2.4-7.1-6.8c-0.1-16.5-0.1-33,0-49.5
			c0-4.3,2.6-6.7,7-6.9c3-0.1,6-0.3,9,0c3.8,0.4,5.4-1.2,7-4.6c2-4.2,0.9-6.5-2.2-9.3c-10.5-9.4-10.3-11.8-0.3-21.4
			c9.4-9,18.4-18.3,27.7-27.5c5.2-5.1,8.4-5.1,13.6-0.1c1.2,1.2,2.6,2.2,3.5,3.6c3,4.4,6.7,5.1,10.8,2c1.5-1.1,2.8-2.9,3.2-4.7
			c0.5-2.4,0.3-5,0.1-7.5c-0.4-4.8,1.3-8.4,5.7-10.6c17.7,0,35.3,0,53,0c3.9,2.5,5.5,5.9,5,10.5c-0.2,2.1,0.2,4.3-0.1,6.5
			c-0.5,3.5,1.3,4.7,4.2,6.2c4.1,2.1,7,1.6,9.7-2c1.5-2,3.4-3.6,5.3-5.3c3.8-3.4,7.4-3.5,11,0.1c11.4,11.2,22.7,22.5,33.9,33.8
			c3.5,3.6,3.4,7.3,0,11c-2.1,2.3-4.3,4.6-6.7,6.7c-2.2,1.9-2.2,3.7-1.3,6.5c1.6,4.8,4.1,6.4,9.1,6c5.5-0.4,11.5-1.4,14.9,5
			C856,159.7,856,177.3,856,195z M726.9,264.9c11.8,0,22.9,0,34.5,0c0-3.7,0-7.2,0-10.6c0.1-3.9,1.7-6.6,5.5-8.1
			c5.4-2.1,10.8-4.4,16.1-6.6c3.6-1.5,6.9-1.3,9.6,1.7c2.4,2.7,4.7,5.5,6.6,7.7c8.8-8.9,16.7-17,25.2-25.6c-1.7-1.5-4-3.5-6.3-5.4
			c-4-3.4-4.7-7.2-2.1-12c2.2-4.2,4.1-8.8,5.5-13.3c1.5-4.6,4.1-7,9.1-6.8c3.4,0.1,6.8,0,10.1,0c0-12,0-23.1,0-34.7
			c-3.7,0-7-0.1-10.3,0c-4.7,0.1-7.3-2-8.8-6.5c-1.6-4.9-3.7-9.6-6-14.2c-2.1-4.2-1.6-7.7,1.8-10.7c2.5-2.2,5-4.3,7.1-6.2
			c-8.6-8.8-16.5-16.8-25.3-25.8c-1.8,2.2-3.8,4.7-5.9,7.1c-3.3,3.8-7,4.4-11.6,2.1c-4.6-2.3-9.4-4.3-14.3-5.9
			c-4.3-1.4-6.2-4.2-6.3-8.5c-0.1-3.4,0-6.9,0-10.4c-11.9,0-23.1,0-34.5,0c0,3.4-0.1,6.4,0,9.4c0.3,5.1-1.8,8.1-6.7,9.7
			c-4.7,1.5-9.4,3.5-13.8,5.7c-4.6,2.3-8.3,1.7-11.6-2.1c-2-2.4-3.9-5-5.4-7c-9.1,9.1-17,17.1-25,25.1c-0.1-0.2,0,0.2,0.3,0.4
			c10,6.8,9.6,14.4,4.8,25.1c-4.1,9.3-8.1,14.6-18.6,12.8c-2.8-0.5-3.8,1.1-3.8,3.8c0.1,6.8,0,13.7,0,20.5c0,10.1,0,10.3,10.3,10.2
			c5.2,0,7.9,2.1,9.5,6.9c1.6,4.9,3.8,9.6,6,14.2c1.8,3.8,1.4,7.1-1.6,10c-2.6,2.5-5.3,4.8-7.4,6.6c8.7,8.8,16.5,16.7,25.4,25.6
			c1.8-2.3,3.8-4.9,6-7.4c3-3.5,6.6-3.9,10.8-1.9c4.8,2.3,9.7,4.3,14.7,6.1c4.2,1.5,6.3,4,6.2,8.5
			C726.8,257.8,726.9,261.1,726.9,264.9z"/>
		<path class="st0" d="M344,412c2.7,3.9,6.4,5.2,11.1,4.9c5.1-0.3,10.3-0.1,15.5-0.1c2.2,7.6,4.4,14.9,6.2,22.3
			c0.2,0.9-1,2.6-2.1,3.3c-4.2,2.7-8.6,5-12.9,7.6c-5.1,3.1-6.2,6.6-3.3,11.7c6.5,11.4,13.1,22.8,19.7,34.2c2.8,4.7,6.5,5.7,11.4,3
			c5.3-2.9,10.4-5.9,15-8.6c5.9,6,11.7,11.8,17.9,18.1c-2.3,4-5.2,9-8.1,14.1c-3.4,6-2.5,9.4,3.4,12.8c10.8,6.3,21.6,12.5,32.4,18.7
			c6.2,3.5,9.4,2.6,13.1-3.6c2.2-3.7,4.4-7.4,6.5-11.3c1.4-2.6,2.7-3.6,5.9-2.5c5.5,1.9,11.2,3.1,16.9,4.4c2.5,0.6,3.6,1.6,3.5,4.4
			c-0.2,4.2,0.2,8.3-0.1,12.5c-0.3,4.7,1,8.4,4.9,11.1c-52.3,0-104.7,0-157,0C344,516.7,344,464.3,344,412z"/>
		<path d="M856,361c-2.3,3.7-5.4,5.7-9.9,5.1c-2.8-0.4-3.8,1-4.7,3.7c-2.4,7.2-5.4,14.2-8.5,22c2.6,3.5,9.3,7.6,3.2,13.7
			c-6.1,6.2-10.2-0.6-13.5-3.1c-8.4,3.1-16.1,5.7-23.5,8.8c-1.3,0.5-2.1,3.3-2.2,5.1c-0.2,4.1-1.4,7.3-5.6,8.4
			c-4.9,1.3-9.2-2.1-9-7.8c0.2-4.5-1.6-5.6-5.6-6.8c-6.6-1.9-12.9-5.1-19.6-7.9c-8.7,6.3-11.3,6.8-14.6,3c-3.1-3.5-2.1-6.8,3.8-13.7
			c-3.5-8.4-6.9-16.6-10.6-25.4c-4.7-0.4-12.3,1.1-12.1-7.5c0.2-8.2,7.6-6.6,12.1-7.1c3.6-8.7,7-16.7,10.6-25.4
			c-2.8-3.6-9.4-7.8-3.4-13.8c6.1-6.2,10.2,0.6,13.6,3.1c8.2-3.1,15.7-5.6,23-8.7c1.3-0.6,2.4-3.1,2.5-4.8c0.3-4.2,1.3-7.7,5.8-8.8
			c5-1.2,9,2.2,8.8,7.9c-0.2,4.2,1.3,5.4,5.3,6.5c6.8,1.9,13.2,5.2,20.3,8.1c0.8-0.7,2.2-2.1,3.7-3.4c3.4-2.9,7.6-3,10.3,0
			c2.9,3.2,3.3,7.2,0.1,9.8c-4.4,3.7-3.4,6.5-0.9,10.8c2.7,4.6,4.4,10,5.9,15.3c0.8,2.9,1.9,4,4.7,3.7c4.5-0.5,7.7,1.4,9.9,5.2
			C856,358.3,856,359.7,856,361z M789.7,397.3c21.3-0.1,38.4-17.3,38.4-38.5c0-21.2-17.3-38.3-38.6-38.3
			c-21.2,0.1-38.5,17.4-38.5,38.5C751.1,380.2,768.5,397.4,789.7,397.3z"/>
		<path class="st0" d="M856,142c-3.3-6.4-9.4-5.4-14.9-5c-5,0.4-7.6-1.2-9.1-6c-0.9-2.8-0.9-4.5,1.3-6.5c2.4-2.1,4.6-4.3,6.7-6.7
			c3.4-3.8,3.6-7.4,0-11c-11.2-11.4-22.5-22.7-33.9-33.8c-3.7-3.6-7.3-3.5-11-0.1c-1.9,1.7-3.8,3.3-5.3,5.3c-2.8,3.7-5.6,4.1-9.7,2
			c-2.9-1.5-4.6-2.7-4.2-6.2c0.3-2.1-0.1-4.3,0.1-6.5c0.5-4.6-1.1-8-5-10.5c28.3,0,56.7,0,85,0C856,85.3,856,113.7,856,142z"/>
		<path class="st0" d="M453.3,238.5c3,5.2,5.8,10,8.6,14.7c2.9,4.8,5.5,5.6,10.9,4c10.2-2.9,20.5-5.6,30.8-8.2
			c5.3-1.3,7.2-3.4,7.3-9c0.1-5.5,0-10.9,0-16.9c8.7,0,16.8-0.1,24.9,0.2c0.8,0,2.1,2.2,2.2,3.5c0.3,4.7,0.2,9.3,0.1,14
			c-0.1,4.8,2.3,7.2,6.9,8.3c10.5,2.6,20.9,5.4,31.3,8.4c4.7,1.3,8.1,0.5,10.6-3.9c2.8-4.9,5.6-9.8,8.6-14.9c8,4.6,15.5,9,23.4,13.6
			c-2.9,5.1-5.5,9.6-8.1,14.2c-3.1,5.4-2.4,8.1,1.9,12.3c7.4,7.1,14.7,14.4,21.9,21.9c4,4.1,6.8,4.9,11.9,2.1
			c4.6-2.6,9.2-5.3,14.5-8.3c4.5,7.7,8.9,15.2,13.6,23.4c-4.8,2.8-9.3,5.4-13.8,8c-5.9,3.5-6.6,5.8-4.7,12.3
			c2.9,9.9,5.5,19.8,7.9,29.8c1.1,4.8,3.5,7.3,8.6,7.2c4.7-0.1,9.3-0.2,14,0.1c1.2,0.1,3.3,1.8,3.3,2.8c0.3,7.8,0.2,15.6,0.2,24.2
			c-5.6,0-10.9,0-16.1,0c-6.7,0-8.4,1.8-10,8.5c-2.3,9.7-5,19.3-7.8,28.9c-1.9,6.3-1.2,8.7,4.3,12c4.3,2.5,8.6,5,12.9,7.6
			c0.3,0.1,0.4,0.5,0.8,1.2c-4.3,7.4-8.6,15-13.2,22.8c-5.2-2.9-9.9-5.7-14.6-8.3c-5.1-2.8-7.6-2.3-11.5,1.7
			c-7.6,7.7-15.2,15.4-23,22.9c-3.4,3.3-4,6.7-1.7,10.7c2.8,4.9,5.6,9.8,8.7,15.1c-8,4.6-15.5,9-23.4,13.5c-2.9-5-5.6-9.6-8.3-14.2
			c-3.3-5.5-5.6-6.2-11.5-4.4c-10,2.9-20.2,5.5-30.3,8c-4.7,1.2-7.4,3.4-7.3,8.5c0.1,5.6,0,11.2,0,17.1c-9.2,0-17.8,0-27.2,0
			c0-5.2,0-10.5,0-15.7c0-6.7-2-8.6-8.5-10.1c-9.7-2.3-19.3-4.9-28.9-7.7c-6.3-1.9-8.6-1.3-12,4.4c-2.7,4.5-5.3,9.1-8.2,14.1
			c-8-4.6-15.5-9-23.4-13.5c2.9-5.1,5.6-9.7,8.2-14.3c3.1-5.5,2.5-7.9-2-12.2c-7.4-7.2-14.7-14.5-21.9-21.9c-4.2-4.3-6.6-5-11.8-2.1
			c-4.6,2.6-9.2,5.3-14.6,8.4c-4.5-7.8-8.9-15.4-13.5-23.4c5.1-3,9.6-5.6,14.2-8.3c5.5-3.2,6.1-5.6,4.4-11.6
			c-2.9-10-5.5-20.2-8-30.3c-1.3-5.1-3.6-7.3-9.1-7.4c-5.5-0.1-10.9,0-16.6,0c0-9.1,0-17.7,0-27.2c5.2,0,10.5,0,15.8,0
			c7,0,8.6-1.8,10.1-8.3c2.3-9.7,4.9-19.3,7.8-28.8c1.9-6.3,1.3-8.6-4.4-12c-4.3-2.6-8.6-5.1-12.9-7.7c-0.3-0.2-0.4-0.5-0.9-1.2
			c4.2-7.3,8.5-14.8,13.2-22.8c4.8,2.8,9.4,5.4,14,8c5.8,3.3,8.3,2.6,13-2.3c6.8-7.1,13.7-14.1,20.8-20.8c5.2-4.9,5.8-7,2.1-13.4
			c-2.5-4.3-5-8.6-7.8-13.6C437.6,247.6,445.1,243.3,453.3,238.5z M631.4,387.4c-0.2-3-0.2-7.2-0.7-11.3
			c-7.5-66.5-75.2-109.9-139.1-89.3c-42.8,13.8-72.6,53-74.3,97.9c-0.6,15.5,2.1,30.5,8.1,44.9c1.5,3.6,4.3,6.3,8.1,4.9
			c2.5-0.9,4.7-3.8,6-6.3c0.7-1.3-0.6-3.8-1.3-5.6c-5.6-14.9-7.5-30.2-5.5-46.1c6.3-50.5,55.4-87.5,105.5-79.2
			c49.5,8.2,82.7,51.3,78.1,101.4c-4.2,45.2-43.9,81.9-89.4,82.5c-28.4,0.4-52.2-10-71.5-30.9c-1.4-1.5-3.1-3.3-5-4
			c-3.2-1.2-6.4-0.5-8.3,2.7c-2.2,3.7-1.2,7,1.5,10c24.5,26.8,54.8,39.4,91.1,36.1C589.5,490,631.5,443.6,631.4,387.4z M527.9,313.2
			c-5.3,0.4-10.1,0.4-14.9,1.1c-41.3,6.3-68.8,44.3-62.8,86.5c5.6,39.3,43.7,67.7,84.2,62.1c29-4,49.5-20.3,60-47.4
			c10.5-27.2,5.7-52.7-12.7-75.4c-5-6.2-8.9-7.3-12.9-4.1c-3.9,3.2-3.4,7.3,1.6,13.3c11.5,13.9,16.4,29.8,13.9,47.9
			c-3.5,25.2-23.3,46.2-47.8,50.9c-26.5,5-52.3-7-65.2-30.3c-12.4-22.4-9.3-50.9,8.3-69.6c16.8-17.9,37.5-23.8,61.4-17.7
			c5.7,1.4,9.7-0.5,10.8-5c1-4.2-1.6-7.8-7.1-9.1C539,315,533.2,314.2,527.9,313.2z"/>
		<path class="st0" d="M726.9,264.9c0-3.8-0.1-7.1,0-10.5c0.1-4.5-2-7-6.2-8.5c-5-1.8-9.9-3.8-14.7-6.1c-4.2-2-7.7-1.6-10.8,1.9
			c-2.2,2.5-4.2,5.2-6,7.4c-8.9-9-16.7-16.9-25.4-25.6c2.1-1.8,4.8-4.2,7.4-6.6c3.1-2.9,3.4-6.2,1.6-10c-2.2-4.7-4.3-9.4-6-14.2
			c-1.6-4.8-4.4-7-9.5-6.9c-10.3,0-10.3-0.1-10.3-10.2c0-6.8,0.1-13.7,0-20.5c0-2.8,1-4.3,3.8-3.8c10.5,1.8,14.5-3.5,18.6-12.8
			c4.8-10.7,5.1-18.3-4.8-25.1c-0.3-0.2-0.4-0.5-0.3-0.4c8-8,15.9-16,25-25.1c1.6,2,3.4,4.6,5.4,7c3.2,3.8,7,4.5,11.6,2.1
			c4.4-2.2,9.1-4.2,13.8-5.7c4.9-1.6,7-4.6,6.7-9.7c-0.2-3,0-6,0-9.4c11.5,0,22.7,0,34.5,0c0,3.5,0,6.9,0,10.4c0.1,4.3,2,7,6.3,8.5
			c4.9,1.6,9.7,3.6,14.3,5.9c4.6,2.3,8.3,1.7,11.6-2.1c2.1-2.4,4-4.9,5.9-7.1c8.8,9,16.7,17,25.3,25.8c-2.1,1.8-4.6,3.9-7.1,6.2
			c-3.4,3.1-3.9,6.5-1.8,10.7c2.3,4.6,4.3,9.4,6,14.2c1.5,4.5,4.1,6.6,8.8,6.5c3.3-0.1,6.6,0,10.3,0c0,11.6,0,22.6,0,34.7
			c-3.3,0-6.7,0.1-10.1,0c-5-0.2-7.6,2.2-9.1,6.8c-1.5,4.6-3.3,9.1-5.5,13.3c-2.5,4.8-1.9,8.6,2.1,12c2.3,1.9,4.5,3.9,6.3,5.4
			c-8.5,8.6-16.4,16.6-25.2,25.6c-1.9-2.2-4.2-5-6.6-7.7c-2.7-3-6-3.2-9.6-1.7c-5.4,2.3-10.7,4.5-16.1,6.6c-3.8,1.5-5.4,4.2-5.5,8.1
			c-0.1,3.5,0,6.9,0,10.6C749.8,264.9,738.7,264.9,726.9,264.9z M683.4,167.5c0.4,0.1,0.8,0.2,1.2,0.3
			c-0.6,37.5,33.7,66.4,71.2,58.9c24.2-4.8,40.1-20,46.1-43.9c6.1-24.3-1.3-45.1-20.7-60.6c-19.3-15.4-40.9-17.2-63.4-7
			c-5.2,2.4-6.8,6.2-4.8,10.3c2,4.1,5.9,5.2,11,2.8c7.2-3.4,14.8-5.1,22.8-4.5c17.8,1.4,30.9,10.1,38.3,26.3
			c7.6,16.6,5.4,32.7-6.2,46.9c-11.3,13.8-26.4,19.1-43.8,15.5c-28.7-5.9-43.4-35.2-32-62.7c2.2-5.2,1.1-9.2-2.9-11.1
			c-4.1-1.9-8.3-0.3-10.2,5C687.5,151.5,685.6,159.6,683.4,167.5z"/>
		<path class="st0" d="M789.7,397.3c-21.2,0.1-38.6-17.1-38.7-38.3c-0.1-21.1,17.2-38.4,38.5-38.5c21.3-0.1,38.6,17.1,38.6,38.3
			C828.1,380.1,811,397.3,789.7,397.3z M814.1,358.9c0-13.6-10.8-24.5-24.3-24.6c-13.6-0.1-24.7,11-24.7,24.8
			c0,13.5,10.9,24.4,24.4,24.6C803,383.8,814.1,372.6,814.1,358.9z"/>
		<path d="M631.4,387.4c0.1,56.3-41.9,102.6-96.7,107.6c-36.3,3.3-66.6-9.3-91.1-36.1c-2.8-3-3.8-6.3-1.5-10
			c1.9-3.2,5.1-3.9,8.3-2.7c1.9,0.7,3.5,2.4,5,4c19.3,20.9,43.1,31.2,71.5,30.9c45.5-0.6,85.2-37.3,89.4-82.5
			c4.7-50.1-28.5-93.3-78.1-101.4c-50.1-8.3-99.2,28.8-105.5,79.2c-2,15.9-0.1,31.2,5.5,46.1c0.7,1.8,1.9,4.3,1.3,5.6
			c-1.3,2.5-3.5,5.5-6,6.3c-3.7,1.3-6.6-1.3-8.1-4.9c-5.9-14.4-8.6-29.4-8.1-44.9c1.7-44.9,31.5-84.1,74.3-97.9
			c63.9-20.6,131.5,22.8,139.1,89.3C631.2,380.2,631.2,384.4,631.4,387.4z"/>
		<path d="M527.9,313.2c5.4,1,11.1,1.8,16.8,3.1c5.5,1.3,8,4.9,7.1,9.1c-1,4.5-5.1,6.4-10.8,5c-23.9-6.1-44.6-0.2-61.4,17.7
			c-17.6,18.8-20.7,47.2-8.3,69.6c12.9,23.3,38.7,35.3,65.2,30.3c24.5-4.6,44.3-25.7,47.8-50.9c2.5-18-2.4-33.9-13.9-47.9
			c-5-6.1-5.6-10.1-1.6-13.3c4-3.2,7.9-2.2,12.9,4.1c18.4,22.7,23.1,48.2,12.7,75.4c-10.5,27.2-31,43.4-60,47.4
			c-40.5,5.6-78.6-22.8-84.2-62.1c-6-42.2,21.5-80.2,62.8-86.5C517.7,313.6,522.6,313.6,527.9,313.2z"/>
		<path d="M683.4,167.5c2.2-7.9,4.1-16,6.8-23.8c1.8-5.3,6-6.9,10.2-5c4,1.8,5,5.9,2.9,11.1c-11.4,27.5,3.2,56.8,32,62.7
			c17.4,3.6,32.5-1.7,43.8-15.5c11.5-14.1,13.7-30.2,6.2-46.9c-7.4-16.2-20.5-24.9-38.3-26.3c-8-0.6-15.5,1-22.8,4.5
			c-5.1,2.4-9,1.4-11-2.8c-2-4.1-0.4-8,4.8-10.3c22.5-10.2,44.1-8.4,63.4,7c19.4,15.5,26.8,36.4,20.7,60.6
			c-6,24-21.9,39.1-46.1,43.9c-37.5,7.5-71.8-21.4-71.2-58.9C684.2,167.7,683.8,167.6,683.4,167.5z"/>
		<path d="M814.1,358.9c0,13.8-11.1,24.9-24.7,24.8c-13.5-0.2-24.3-11.1-24.4-24.6c0-13.7,11.1-24.9,24.7-24.8
			C803.3,334.4,814.1,345.3,814.1,358.9z M779.7,359c0,5.5,4.3,9.9,9.7,10.1c5.5,0.2,10.3-4.5,10.3-10.1c0-5.6-4.7-10.2-10.2-10
			C783.9,349.1,779.7,353.5,779.7,359z"/>
		<path class="st0" d="M779.7,359c0-5.5,4.2-9.9,9.7-10c5.5-0.1,10.2,4.5,10.2,10c0,5.5-4.8,10.2-10.3,10.1
			C784,368.9,779.7,364.4,779.7,359z"/>
	</g>
</g>
</svg>
