<?xml version="1.0" encoding="utf-8"?>
<!-- Generator: Adobe Illustrator 26.0.3, SVG Export Plug-In . SVG Version: 6.00 Build 0)  -->
<svg version="1.1" id="Livello_1" xmlns="http://www.w3.org/2000/svg" xmlns:xlink="http://www.w3.org/1999/xlink" x="0px" y="0px"
	 viewBox="0 0 1200 627" style="enable-background:new 0 0 1200 627;" xml:space="preserve">
<style type="text/css">
	.st0{fill:#FFFFFF;}
</style>
<g>
	<g>
		<path class="st0" d="M344,309c0-84,0-167.9,0-252c170.5,0,341.1,0,512,0c0,108,0,216,0,324c-0.4-0.7-0.8-1.4-1.1-2.1
			c-6-21.8-29-30.7-47.9-18.3c-31.2,20.7-62.3,41.7-93.4,62.4c-2.1,1.4-4.7,2.5-7.2,2.6c-4.5,0.2-9-0.5-13.5-0.5
			c-3.5,0-4.9-1.1-5.2-4.8c-2.1-23-18.8-39.8-41.7-41.9c-28.3-2.6-56.7-5.2-85.1-7.2c-15.2-1-29.5-4.2-42.8-11.9
			c-8.1-4.6-16.1-9.6-24.6-13.2c-11-4.6-22.3-8.4-33.7-11.9c-5.3-1.6-11.1-1.7-17-2.6c0-5.6,0-11.1,0-16.6
			c0-13.6-6.7-20.4-20.2-20.4c-18.5-0.1-37,0.4-55.5-0.2C355.8,294.1,347.8,297.9,344,309z M599.6,58.1c0,0.3,0,0.6,0,1
			c-25.2,0-50.3,0-75.5,0c-9.2,0-15,5-16,13.8c-2.9,25.4-15.7,43.7-38.7,54.8c-9.2,4.5-13,9.9-11.3,19.9
			c3.1,17.8,5.9,35.9,11.3,53.1c20.8,66.7,60.8,117.7,124.6,148.5c4.7,2.3,9.2,2.7,13.8,0.1c7.3-4.1,14.8-7.7,21.8-12.2
			c69.2-44.6,102.1-110.7,112.2-190.2c1.4-11.2-2.2-16.2-12.6-21.2c-21.8-10.4-34.4-27.8-38.1-51.5c-1.9-12-6.4-16-18.5-16
			C648.2,58.1,623.9,58.1,599.6,58.1z"/>
		<path class="st0" d="M856,390c0,59.7,0,119.3,0,179c-170.7,0-341.3,0-512,0c0-20,0-40,0-60c3.3,7.8,8,13.9,17.4,14
			c21.5,0.1,43,0.1,64.5,0c7.7,0,14.1-5.1,16.1-12.6c0.8-3.1,0.9-6.5,1.4-10c2.1,0.7,4,1.2,5.8,1.9c27.4,10.4,54.7,20.9,82.2,31
			c6.1,2.2,13,3.7,19.4,3.4c11.8-0.6,23.4-2.6,35.1-4.3c38-5.4,76-11.3,114.1-16.2c20.7-2.7,38.5-10.1,53.9-24.4
			c27.7-25.8,56-50.8,84.3-75.9C846.3,408.4,853.6,401,856,390z"/>
		<path d="M856,390c-2.4,11.1-9.7,18.5-17.8,25.7c-28.3,25.1-56.6,50.2-84.3,75.9C738.4,506,720.7,513.4,700,516
			c-38.1,4.9-76.1,10.8-114.1,16.2c-11.7,1.7-23.4,3.7-35.1,4.3c-6.4,0.3-13.3-1.2-19.4-3.4c-27.5-10-54.8-20.6-82.2-31
			c-1.8-0.7-3.7-1.2-5.8-1.9c-0.5,3.5-0.6,6.9-1.4,10c-2,7.5-8.3,12.6-16.1,12.6c-21.5,0.1-43,0.1-64.5,0c-9.4,0-14.1-6.2-17.4-14
			c0-66.7,0-133.3,0-200c3.8-11.1,11.8-14.8,23.2-14.5c18.5,0.6,37,0.1,55.5,0.2c13.5,0,20.1,6.8,20.2,20.4c0,5.5,0,10.9,0,16.6
			c5.9,0.9,11.7,1,17,2.6c11.4,3.5,22.7,7.3,33.7,11.9c8.5,3.6,16.5,8.5,24.6,13.2c13.3,7.6,27.6,10.8,42.8,11.9
			c28.4,1.9,56.7,4.6,85.1,7.2c22.9,2.1,39.6,18.9,41.7,41.9c0.3,3.7,1.7,4.8,5.2,4.8c4.5,0,9,0.8,13.5,0.5c2.5-0.1,5.1-1.2,7.2-2.6
			c31.2-20.7,62.2-41.7,93.4-62.4c18.9-12.5,41.9-3.5,47.9,18.3c0.2,0.8,0.7,1.4,1.1,2.1C856,384,856,387,856,390z M442.8,346.8
			c0,6.4,0.5,12.1-0.2,17.6c-0.3,2.5-2.6,5.4-4.8,6.7c-1.6,0.9-5.3,0.2-6.7-1.2c-1.7-1.8-2.8-4.9-2.8-7.5c-0.2-15.7-0.3-31.3,0-47
			c0.1-4.8-1.5-6.5-6.3-6.5c-19,0.2-38,0.1-57,0c-4.4,0-6.2,1.3-6.2,6.1c0.1,62.5,0.1,125,0,187.5c0,4.7,1.7,6.1,6.1,6
			c18.8-0.2,37.7-0.1,56.5-0.1c6.5,0,6.8-0.3,6.8-6.7c0-33.2,0-66.3,0-99.5c0-1.7-0.2-3.4,0.2-5c0.8-3.7,3.2-6,6.9-6
			c4-0.1,6.5,2.3,7.3,6.2c0.3,1.6,0.2,3.3,0.2,5c0,25.7,0.1,51.3-0.1,77c0,3.9,1.3,5.4,4.8,6.7c29.4,11,58.9,22.1,88.2,33.4
			c6.6,2.5,13.2,3.3,20.1,2.4c9.9-1.3,19.8-2.8,29.7-4.2c38.5-5.6,77.1-11.3,115.6-16.6c15.9-2.2,29.6-7.9,41.4-19
			c15.5-14.6,31.6-28.6,47.5-42.9c14.9-13.4,29.7-26.8,44.6-40.1c5.3-4.7,7.9-10.4,6-17.4c-3-11.5-15.5-15.7-26-8.8
			c-32.1,21.4-64.2,43-96.4,64.3c-2.9,1.9-7.1,2.8-10.6,2.8c-9.1,0-18.3-1.5-27.4-1c-23.1,1.1-46.2,2.9-69.3,4.3
			c-26.1,1.6-52.2,3.1-78.3,4.4c-9,0.4-16.5-3.5-22.6-9.9c-3.6-3.7-3.7-8.1-0.7-11.1c3-2.9,7.4-2.6,11,1c4.2,4.2,9,5.9,14.9,5.5
			c11.5-0.9,22.9-1.4,34.4-2.1c29.6-1.8,59.2-3.6,88.8-5.4c4.9-0.3,9.8-0.8,14.6-1.2c0.9-15.9-10.9-30.1-26.4-31.6
			c-27.2-2.6-54.4-5.4-81.6-7c-20.7-1.2-40.1-5.4-58-16.1c-7.1-4.3-14.5-8.2-21.9-12C472.1,351.2,458.3,347.3,442.8,346.8z"/>
		<path d="M599.6,58.1c24.3,0,48.6,0,73,0c12.2,0,16.7,4,18.5,16c3.7,23.8,16.3,41.1,38.1,51.5c10.4,5,14,10,12.6,21.2
			c-10,79.5-43,145.6-112.2,190.2c-7,4.5-14.5,8.1-21.8,12.2c-4.6,2.6-9,2.2-13.8-0.1c-63.8-30.8-103.8-81.8-124.6-148.5
			c-5.4-17.2-8.2-35.3-11.3-53.1c-1.7-10,2.1-15.5,11.3-19.9c23-11.2,35.9-29.4,38.7-54.8c1-8.7,6.7-13.8,16-13.8
			c25.2-0.1,50.3,0,75.5,0C599.6,58.7,599.6,58.4,599.6,58.1z M523.3,73.5c-0.4,1.6-0.8,2.5-1,3.5c-4.2,29.7-19.9,50.9-46.7,64.1
			c-1.6,0.8-3.3,4-3,5.7c3.2,16.5,5.6,33.2,10.5,49.2c18.9,61,55,108.4,112.7,138c3.6,1.9,6.5,2.3,10.1,0c4.9-3.1,10.2-5.6,15.1-8.7
			C686,283.7,717,221.8,727.3,147.6c0.7-5.1-1-7.3-5.5-9.4c-21.9-10.6-36.2-27.7-42.8-51.2c-1.3-4.6-2.1-9.3-3-13.5
			C624.8,73.5,574,73.5,523.3,73.5z"/>
		<path class="st0" d="M442.8,346.8c15.4,0.6,29.2,4.4,42.3,11.2c7.4,3.8,14.8,7.7,21.9,12c17.9,10.7,37.3,14.9,58,16.1
			c27.3,1.6,54.4,4.4,81.6,7c15.6,1.5,27.4,15.7,26.4,31.6c-4.8,0.4-9.7,0.9-14.6,1.2c-29.6,1.8-59.2,3.6-88.8,5.4
			c-11.5,0.7-23,1.3-34.4,2.1c-5.9,0.4-10.7-1.3-14.9-5.5c-3.6-3.6-8.1-3.9-11-1c-3.1,3-2.9,7.3,0.7,11.1
			c6.1,6.4,13.6,10.4,22.6,9.9c26.1-1.3,52.2-2.8,78.3-4.4c23.1-1.4,46.2-3.3,69.3-4.3c9.1-0.4,18.3,1,27.4,1
			c3.6,0,7.7-0.8,10.6-2.8c32.2-21.3,64.3-42.9,96.4-64.3c10.4-7,23-2.7,26,8.8c1.8,7-0.8,12.7-6,17.4
			c-14.9,13.4-29.7,26.7-44.6,40.1c-15.9,14.3-32,28.3-47.5,42.9c-11.8,11.1-25.5,16.8-41.4,19c-38.6,5.3-77.1,11-115.6,16.6
			c-9.9,1.4-19.8,2.9-29.7,4.2c-6.9,0.9-13.5,0.1-20.1-2.4c-29.3-11.3-58.7-22.4-88.2-33.4c-3.5-1.3-4.8-2.9-4.8-6.7
			c0.2-25.7,0.1-51.3,0.1-77c0-1.7,0.2-3.4-0.2-5c-0.8-3.9-3.3-6.2-7.3-6.2c-3.8,0.1-6.2,2.4-6.9,6c-0.3,1.6-0.2,3.3-0.2,5
			c0,33.2,0,66.3,0,99.5c0,6.4-0.2,6.7-6.8,6.7c-18.8,0-37.7-0.1-56.5,0.1c-4.4,0-6.1-1.3-6.1-6c0.1-62.5,0.1-125,0-187.5
			c0-4.7,1.8-6.1,6.2-6.1c19,0.1,38,0.1,57,0c4.8,0,6.4,1.7,6.3,6.5c-0.2,15.7-0.2,31.3,0,47c0,2.6,1.1,5.7,2.8,7.5
			c1.4,1.4,5.1,2.1,6.7,1.2c2.2-1.3,4.5-4.2,4.8-6.7C443.3,358.8,442.8,353.1,442.8,346.8z M366,468.2c0,14.7,11.6,26.5,26.1,26.5
			c14.5,0,26.3-11.9,26.2-26.5c-0.1-14.5-11.6-26-26-26.1C377.6,442,366,453.5,366,468.2z"/>
		<path class="st0" d="M523.3,73.5c50.8,0,101.5,0,152.8,0c0.9,4.2,1.7,8.9,3,13.5c6.6,23.5,20.9,40.6,42.8,51.2
			c4.5,2.2,6.2,4.4,5.5,9.4C717,221.8,686,283.7,621.1,325.3c-4.9,3.1-10.2,5.6-15.1,8.7c-3.5,2.2-6.4,1.8-10.1,0
			c-57.7-29.6-93.8-77-112.7-138c-5-16-7.3-32.7-10.5-49.2c-0.3-1.7,1.4-5,3-5.7c26.9-13.2,42.6-34.4,46.7-64.1
			C522.4,76,522.8,75,523.3,73.5z M599.6,86.4c0,0.2,0,0.4,0,0.7c-18.3,0-36.7,0-55,0c-6.8,0-10.6,2.4-12.6,8.5
			c-7,21.8-19.9,38.9-39.2,51.3c-4.3,2.8-6.1,6.9-5,12.1c1.6,7.5,3,15,4.8,22.4c1.3,5.4,5,8,9.1,7c4.3-1.1,6.2-4.8,5-10.4
			c-1.1-5.2-2.3-10.4-3.6-15.5c-0.7-2.9-0.2-4.8,2.5-6.7c18.1-12.8,31-29.6,38.4-50.4c0.9-2.6,2.1-3.6,5-3.6
			c33.5-0.2,67-0.4,100.5-0.8c3,0,4.7,0.6,5.9,3.8c7.7,20.7,20.8,37.5,39,50c2.8,1.9,3.2,3.9,2.5,6.7c-1.3,5.3-2.5,10.7-3.6,16.1
			c-1.1,5.2,0.9,8.8,5.2,9.8c4.3,1,7.7-1.3,9-6.5c1.6-6.8,2.8-13.7,4.4-20.5c1.7-7.3-0.9-12.2-7.3-16.3
			c-17.7-11.3-29.9-27.2-36.7-47.2c-2.8-8.1-5.8-10.3-14.3-10.3C635.6,86.4,617.6,86.4,599.6,86.4z M600.9,320.4
			c2.5-1.1,5.2-1.9,7.6-3.3c24.7-14,45.3-32.7,62-55.6c10.3-14.2,18.7-29.5,25.3-45.7c1.8-4.5,0.2-8.2-3.8-9.9
			c-3.8-1.6-7.3-0.1-9.4,4.1c-1,1.9-1.7,4-2.6,5.9c-16.3,36.4-40.7,65.7-75,86.6c-2.9,1.8-5,2-8.1,0.2c-18-10.6-33.7-23.8-47.1-39.7
			c-13.1-15.5-23.3-32.8-31.5-51.3c-2.1-4.9-6-6.6-9.9-4.8c-4.1,1.8-5.5,5.6-3.4,10.5c18.7,43.4,47.8,77.7,89.5,100.7
			C596.4,318.9,598.5,319.5,600.9,320.4z M595.4,219.3c-1.7-1.5-2.9-2.5-4.1-3.6c-6.9-6.5-13.7-13.1-20.7-19.5
			c-3.5-3.2-7.9-3.2-10.7-0.3c-2.8,2.9-2.7,7.4,0.7,10.7c10.1,9.7,20.2,19.3,30.4,28.9c4.2,3.9,8.6,3.4,11.9-1.2
			c2-2.7,3.7-5.5,5.5-8.3c14.4-21.8,28.9-43.5,43.3-65.4c3-4.6,2.3-8.9-1.5-11.3c-3.7-2.3-7.5-1.2-10.6,3.3
			c-1.2,1.8-2.4,3.6-3.6,5.4C622.6,178.2,609.2,198.4,595.4,219.3z"/>
		<path d="M366,468.2c0-14.7,11.7-26.2,26.4-26.1c14.4,0.1,25.9,11.7,26,26.1c0.1,14.5-11.8,26.5-26.2,26.5
			C377.6,494.7,365.9,482.8,366,468.2z M380.5,468.1c-0.1,6.5,5.1,11.9,11.5,12c6.3,0.1,11.9-5.5,11.9-11.8
			c0-6.2-5.1-11.4-11.4-11.6C385.8,456.5,380.6,461.5,380.5,468.1z"/>
		<path d="M599.6,86.4c18,0,36,0,54,0c8.5,0,11.6,2.2,14.3,10.3c6.8,19.9,19,35.8,36.7,47.2c6.4,4.1,8.9,9,7.3,16.3
			c-1.5,6.8-2.7,13.7-4.4,20.5c-1.2,5.2-4.7,7.5-9,6.5c-4.3-1-6.3-4.6-5.2-9.8c1.1-5.4,2.3-10.7,3.6-16.1c0.7-2.8,0.3-4.8-2.5-6.7
			c-18.3-12.5-31.3-29.2-39-50c-1.2-3.2-2.9-3.8-5.9-3.8c-33.5,0.3-67,0.6-100.5,0.8c-2.9,0-4.1,1-5,3.6
			c-7.4,20.9-20.3,37.7-38.4,50.4c-2.7,1.9-3.2,3.8-2.5,6.7c1.3,5.2,2.5,10.3,3.6,15.5c1.2,5.6-0.6,9.3-5,10.4c-4.1,1-7.8-1.6-9.1-7
			c-1.8-7.4-3.3-14.9-4.8-22.4c-1.1-5.1,0.7-9.3,5-12.1c19.3-12.4,32.3-29.5,39.2-51.3c1.9-6.1,5.7-8.5,12.6-8.5c18.3,0,36.7,0,55,0
			C599.6,86.9,599.6,86.6,599.6,86.4z"/>
		<path d="M600.9,320.4c-2.4-0.9-4.5-1.5-6.4-2.5c-41.7-23-70.8-57.2-89.5-100.7c-2.1-4.8-0.7-8.7,3.4-10.5c3.9-1.7,7.8-0.1,9.9,4.8
			c8.1,18.5,18.3,35.8,31.5,51.3c13.5,15.9,29.2,29.1,47.1,39.7c3.1,1.8,5.2,1.6,8.1-0.2c34.3-20.9,58.6-50.3,75-86.6
			c0.9-2,1.6-4,2.6-5.9c2.1-4.2,5.7-5.6,9.4-4.1c4,1.7,5.6,5.5,3.8,9.9c-6.6,16.2-15,31.5-25.3,45.7c-16.7,23-37.3,41.6-62,55.6
			C606.1,318.5,603.5,319.4,600.9,320.4z"/>
		<path d="M595.4,219.3c13.8-20.9,27.3-41.1,40.7-61.4c1.2-1.8,2.4-3.6,3.6-5.4c3.1-4.4,6.9-5.6,10.6-3.3c3.8,2.4,4.6,6.7,1.5,11.3
			c-14.4,21.8-28.8,43.6-43.3,65.4c-1.8,2.8-3.6,5.6-5.5,8.3c-3.4,4.6-7.8,5.1-11.9,1.2c-10.2-9.5-20.4-19.2-30.4-28.9
			c-3.4-3.3-3.5-7.8-0.7-10.7c2.8-2.9,7.2-2.9,10.7,0.3c7,6.4,13.8,13,20.7,19.5C592.5,216.8,593.7,217.8,595.4,219.3z"/>
		<path class="st0" d="M380.5,468.1c0.1-6.6,5.4-11.5,12-11.4c6.3,0.2,11.4,5.3,11.4,11.6c0,6.3-5.6,11.8-11.9,11.8
			C385.6,480,380.4,474.6,380.5,468.1z"/>
	</g>
</g>
</svg>
