<?xml version="1.0" encoding="utf-8"?>
<!-- Generator: Adobe Illustrator 26.0.0, SVG Export Plug-In . SVG Version: 6.00 Build 0)  -->
<svg version="1.1" id="Livello_1" xmlns="http://www.w3.org/2000/svg" xmlns:xlink="http://www.w3.org/1999/xlink" x="0px" y="0px"
	 viewBox="0 0 865.7 307.3" style="enable-background:new 0 0 865.7 307.3;" xml:space="preserve">
<style type="text/css">
	.st0{fill:#323E48;stroke:#979797;stroke-width:0.9669;}
	.st1{fill:#B12009;stroke:#979797;stroke-width:0.9669;}
</style>
<g>
	<g>
		<path class="st0" d="M578.4,261.4c3.2,0,5.6,0.6,7.4,1.8c1.9,1.3,3.1,3.3,3.1,6.2c0,6.1-5.2,8.6-9.5,8.7c-0.4,0-0.9,0-1.2-0.1
			l-2.6-0.7v6.1c0,3.5,0.3,3.7,4,4v1.4H567v-1.4c3.3-0.4,3.7-0.6,3.7-4.1V267c0-3.6-0.4-3.9-3.7-4.1v-1.4H578.4z M575.5,275.6
			c0.5,0.3,1.5,0.5,2.6,0.5c2.3,0,5.6-1.3,5.6-6.7c0-4.7-2.8-6.3-5.8-6.3c-1,0-1.7,0.2-1.9,0.5c-0.3,0.3-0.4,0.7-0.4,1.6V275.6z"/>
		<path class="st0" d="M614.6,281.8c-0.2,1.1-1.4,5.7-1.8,6.9h-21.2v-1.4c3.9-0.3,4.1-0.6,4.1-4.1V267c0-3.6-0.5-3.9-3.5-4.1v-1.4
			h13.3c4.2,0,5.8,0,6.3-0.1c0,0.9,0.2,4.2,0.4,6.6l-1.5,0.2c-0.4-1.4-1-2.8-1.6-3.6c-0.7-1.1-1.4-1.3-3.8-1.3h-3.3
			c-1.5,0-1.6,0.1-1.6,1.4v9h4.4c2.7,0,3-0.6,3.6-3.6h1.5v9.1h-1.5c-0.6-3.1-1-3.5-3.6-3.5h-4.3v7.7c0,2.9,0.4,3.5,2.8,3.6h3.4
			c2.4,0,3-0.3,3.9-1.4c0.9-1.1,1.8-2.7,2.4-4.1L614.6,281.8z"/>
		<path class="st0" d="M631.8,260.8c7.5,0,13.9,5.6,13.9,13.9c0,9-6.3,14.6-14.1,14.6c-8.3,0-14.3-6.1-14.3-14.2
			C617.3,267.9,622.5,260.8,631.8,260.8z M631.1,262.6c-4.5,0-8.1,4.1-8.1,11.7c0,7.4,3.4,13.4,9.2,13.4c4.5,0,7.9-3.8,7.9-11.7
			C640.1,267.4,636.2,262.6,631.1,262.6z"/>
		<path class="st0" d="M660.8,261.4c3.2,0,5.6,0.6,7.4,1.8c1.9,1.3,3.1,3.3,3.1,6.2c0,6.1-5.2,8.6-9.5,8.7c-0.4,0-0.9,0-1.2-0.1
			l-2.6-0.7v6.1c0,3.5,0.3,3.7,4,4v1.4h-12.6v-1.4c3.3-0.4,3.7-0.6,3.7-4.1V267c0-3.6-0.4-3.9-3.7-4.1v-1.4H660.8z M657.9,275.6
			c0.5,0.3,1.5,0.5,2.6,0.5c2.3,0,5.6-1.3,5.6-6.7c0-4.7-2.8-6.3-5.8-6.3c-1,0-1.7,0.2-1.9,0.5c-0.3,0.3-0.4,0.7-0.4,1.6V275.6z"/>
		<path class="st0" d="M696.2,281.5c-0.3,1.6-1.5,6-1.9,7.2H674v-1.4c3.8-0.3,4.1-0.6,4.1-4.1v-16.3c0-3.5-0.4-3.8-3.7-4.1v-1.4
			h12.3v1.4c-3.3,0.3-3.8,0.6-3.8,4.1v16.6c0,2.4,0.2,3.3,2.5,3.3c0.1,0,2.5,0,2.7,0c2.3,0,2.9-0.4,3.9-1.5c0.9-0.9,1.9-2.7,2.6-4.4
			L696.2,281.5z"/>
		<path class="st0" d="M721.2,281.8c-0.2,1.1-1.4,5.7-1.8,6.9h-21.2v-1.4c3.9-0.3,4.1-0.6,4.1-4.1V267c0-3.6-0.5-3.9-3.5-4.1v-1.4
			h13.3c4.2,0,5.8,0,6.3-0.1c0,0.9,0.2,4.2,0.4,6.6l-1.5,0.2c-0.4-1.4-1-2.8-1.6-3.6c-0.7-1.1-1.4-1.3-3.8-1.3h-3.3
			c-1.5,0-1.6,0.1-1.6,1.4v9h4.4c2.7,0,3-0.6,3.6-3.6h1.5v9.1h-1.5c-0.6-3.1-1-3.5-3.6-3.5h-4.3v7.7c0,2.9,0.4,3.5,2.8,3.6h3.4
			c2.4,0,3-0.3,3.9-1.4c0.9-1.1,1.8-2.7,2.4-4.1L721.2,281.8z"/>
		<path class="st0" d="M752.4,268.2c-0.4-1.4-1-2.7-1.6-3.6c-0.8-1.1-1.4-1.4-3.6-1.4h-3.7c-1.3,0-1.5,0.1-1.5,1.4v9.4h4.8
			c2.7,0,3-0.6,3.6-3.5h1.4v9.1h-1.5c-0.5-2.9-1-3.6-3.6-3.6H742v7c0,3.8,0.3,4,4.1,4.3v1.4h-12.7v-1.4c3.3-0.3,3.7-0.5,3.7-4.3v-16
			c0-3.7-0.4-4-3.7-4.3v-1.4h13.8c3.7,0,5.5,0,6.2-0.1c0,1.1,0.2,4.4,0.4,6.7L752.4,268.2z"/>
		<path class="st0" d="M757,288.7v-1.4c3.3-0.3,3.7-0.5,3.7-4.1V267c0-3.6-0.4-3.8-3.7-4.1v-1.4h12.2v1.4c-3.3,0.3-3.7,0.6-3.7,4.1
			v16.3c0,3.5,0.4,3.7,3.7,4.1v1.4H757z"/>
		<path class="st0" d="M798.5,289c-0.4,0-0.9,0-1.4-0.1c-4.4-0.2-6-1.2-7.5-3.3c-1.6-2.2-3-4.8-4.4-7.2c-0.7-1.2-1.3-1.5-3-1.5
			l-1.1,0v6.3c0,3.5,0.4,3.7,3.7,4.1v1.4h-12.2v-1.4c3.3-0.4,3.7-0.6,3.7-4.1v-16.4c0-3.4-0.4-3.7-3.7-4.1v-1.4h11.5
			c3.5,0,5.6,0.4,7.2,1.5c1.7,1.1,2.8,3,2.8,5.6c0,3.7-2.4,5.8-5.3,7c0.7,1.3,2.4,4,3.7,6c1.5,2.3,2.4,3.4,3.2,4.4
			c1,1.1,1.7,1.5,2.8,1.9L798.5,289z M782.7,275.3c2,0,3.4-0.3,4.3-1.1c1.5-1.2,2.1-2.8,2.1-5c0-4.5-2.7-6.1-5.5-6.1
			c-1.2,0-1.8,0.2-2.1,0.4c-0.3,0.3-0.4,0.7-0.4,1.7v10.1H782.7z"/>
		<path class="st0" d="M814.6,268.1c-0.8-2.7-2-5.6-5.9-5.6c-2.8,0-4.2,2-4.2,4.3c0,2.6,1.7,4,5.3,5.8c4.7,2.4,7.3,4.5,7.3,8.6
			c0,4.7-4,8.2-9.7,8.2c-2.6,0-4.9-0.7-6.8-1.3c-0.3-1.1-0.9-4.8-1.2-6.9l1.5-0.4c0.8,2.7,3,6.9,7.2,6.9c2.8,0,4.4-1.8,4.4-4.5
			c0-2.8-1.6-4.2-5.2-6.1c-4.4-2.4-7.1-4.4-7.1-8.6c0-4.1,3.3-7.6,9.3-7.6c2.7,0,4.9,0.6,5.8,0.8c0.2,1.5,0.4,3.5,0.7,6.2
			L814.6,268.1z"/>
		<path class="st0" d="M843.3,268.4c-0.4-1.7-1.2-3.2-1.6-3.8c-0.7-1-1.1-1.3-3.5-1.3h-3.3v20c0,3.4,0.4,3.8,4.2,4v1.4h-13.2v-1.4
			c3.7-0.3,4.1-0.6,4.1-4v-20h-3.1c-2.3,0-3,0.3-3.8,1.4c-0.6,0.8-1,2.1-1.6,3.7H820c0.3-2.8,0.6-5.9,0.7-8h1.1c0.6,1,1.1,1,2.3,1
			h16.7c1.2,0,1.6-0.2,2.3-1h1.1c0,1.9,0.2,5.3,0.4,7.9L843.3,268.4z"/>
	</g>
</g>
<g>
	<desc>Created with Sketch.</desc>
	<g id="Consegne_00000049935197975384921710000016506255842490250129_">
		<g id="Artboard-Copy_00000021084657715928971420000001691707899986490241_" transform="translate(-570.000000, -377.000000)">
			<g id="Logo_x2B_Write_00000160168611359335099520000015841766920405147063_" transform="translate(571.000000, 378.000000)">
				<g id="Logo_00000062883143602225899560000016014047974945884556_" transform="translate(0.386343, 0.188221)">
					<path id="Path_00000080891173661402792880000002818055327949799570_" class="st1" d="M223.9,8.9c-11.9-6.7-28.2-8.2-48.7-4
						c-28,5.7-52.2,16.1-72.3,31.1C83.8,50,67.5,67.5,54.7,87.4C42,107,33.1,125.9,28,144.4s-7.1,34.6-5.8,47.7
						c2.1,18.8,9.7,37.2,22.3,54.9c12.8,17.5,33.6,31.2,62.5,41c28.9,9.8,68.1,13.1,117.5,9.3c41.4-4.2,76.8-13,106.1-26.8
						c5.7-2.7,11.2-5.5,16.4-8.4c32-18.4,55.5-38.7,69.8-61.3s19-42.5,14.4-59.8c-2.3-11.1-10.3-21.8-23.7-32.4
						C394,98,372.7,91.5,343.4,88.9c-10.3-0.7-20.7-0.4-30.9,0.7c-25,2-54.7,8.1-89,18.1c-15.3,5.2-25.5,12.2-30.3,21.1
						c-4.6,8.9-5.2,17.6-1.7,26.3c3.1,8.5,9.1,15.6,16.9,20.2c7.9,5,16.7,6.2,26.6,3.6c8-1.5,19.3-4.1,34.1-7.3
						c14.5-3.1,29.3-5,44.1-5.6c2.3-0.1,4.7,0,7,0.3c11.8,0.5,22.4,3.3,31.3,8.4c10.5,6.4,15.7,17.9,15.8,34.9
						c-2.7,13.5-10.7,25.1-23.9,34.8c-4.7,3.4-9.4,6.5-14.4,9.6c-9.6,5.6-19.8,10.3-30.3,14.1c-17.4,5.8-33,10.5-47.4,13.7
						c-14.1,3.1-23.6,4.5-28.6,4.8c-6.2,0.4-15.8,0.9-29,1c-13,0.1-26.8-1.6-41.8-5.2c-14.5-3.4-27.8-10.5-38.5-20.8
						c-11.4-10.1-18.7-25.3-21.4-45.2c-0.5-17,4-32.1,13.5-45.1c9.8-13.3,21.9-24.8,35.8-33.8c12.5-8.5,25.7-16.1,39.3-22.7
						c11.9-5.8,20.2-9.7,24.5-11.8c16.1-6.7,27.7-16,34.4-28.4c6.7-12.2,8.6-24.4,6.1-36.7C243.1,25.3,235.9,15.7,223.9,8.9"/>
					<path id="Path_00000085220356124146233990000008208311598854810285_" class="st0" d="M340.7,210.5c-0.5-9.6-3.7-17.4-9.8-23.3
						c-2.7-2.7-5.8-4.9-9.3-6.5c-4.6-2.2-9.6-3.2-14.7-2.8c-9.6,0.5-17.4,3.9-23.2,10.3c-6.4,6.3-9.8,15-9.3,24
						c0.5,9.6,3.9,17.4,10.5,23.2c6.4,5.8,14.3,8.9,23.7,8.9c7.4-0.5,13.7-2.6,18.8-6.2c1.6-1.1,2.9-2.2,4.4-3.6
						C337.9,227.9,341.1,219.3,340.7,210.5"/>
				</g>
				<g id="Write_00000062156107733758264750000017542160016291968701_" transform="translate(452.000000, 87.000000)">
					<path id="Shape_00000067921756740740346150000012817962004119621524_" class="st0" d="M92,84.4c3,1.1,5.8,2.5,8.4,4.2
						c7.6,5.1,11.3,12.7,11.3,23c0,10.5-3.7,18.2-11.3,23.3c-6.6,4.2-16.2,6.4-28.9,6.6c-9.8-0.2-14.7-2-14.7-5.6V80.3
						C73.1,80.3,84.7,81.7,92,84.4L92,84.4z M191.8,58.6c3.1-2.3,6.9-3.6,10.8-3.7c1.3,0,2.6,0.3,3.7,1c1.4,0.8,2,2.7,2,5.4
						c0,15.9-11,27.7-33.1,35.5c-3.6,1.2-7.4,2.4-11.7,3.5c3.3-7.9,7.2-15.4,11.7-22.6c0.9-1.6,1.9-3.1,3-4.6
						C182.9,66.5,187.4,61.6,191.8,58.6z M56.9,15.5c0-2.2,2.4-3.2,7.1-3c28.5,0,42.9,9.7,42.9,28.9c0.1,4.4-0.8,8.7-2.7,12.6
						c-1,1.9-2.2,3.7-3.7,5.2c-2.3,2.1-5,3.9-7.9,5.1c-4.6,1.9-14,2.7-28.4,2.7h-7.2V15.5z M234.1,59.5c2.5,0.5,3.7,1.7,3.7,3.4
						c-0.2,5.6-3.2,18.2-9.5,38c-6.3,19.4-9.5,33.3-9.5,41.6c0,5.2,1.3,9.3,3.9,11.8c2.2,2,5.4,3,9.5,3c8.3,0,16.6-4.7,24.8-14
						c0.1,4.3,2.4,8.3,6.1,10.5c3.2,2,7.3,3,12.2,3c8.4,0,15.2-2.7,20.1-8.3c5.2-5.9,7.7-13.2,7.9-22V66.7c0-4.2,0.7-6.8,1.9-7.3
						c3.8-1.4,7.8-2.3,11.8-2.5v-9.1h-49.3v9.1l10.6,1.7c1.9,0.9,2.7,2.9,2.7,6.1V140c0,2.9-0.5,4.2-1.5,4.2l-0.9-2.2
						c-2.5-7.1-6.1-10.6-11-10.6c-0.7,0-1.5,0-2.2,0.2c0.8-1.5,1.9-2.9,2.7-4.4l-5.8-4.6c-2.9,3.5-5.4,6.8-7.6,9.3
						c-5.4,6.2-9.5,9.3-12,9.3c-0.3,0-0.5-0.2-0.7-0.5c-0.1-0.2-0.2-0.4-0.2-0.7c0-1.5,1.7-7.9,4.9-19.6l19.8-73.5l-2.7-2.2
						c-18.8,3.9-31.8,5.9-39.4,6.1c-0.5-0.5-1-0.9-1.5-1.2c-4.2-3.3-9.5-5-14.9-4.9c-11.5,0-22.7,3.2-32.4,9.3
						c-4.7,3-9.2,6.4-13.4,10.1c-1.9,1.7-3.7,3.6-5.6,5.6c-7.6,8.4-13.3,17.1-17.1,25.8c-4.7-10.5-14.5-17.9-29.5-22.5
						c-1.9,0.5-1.9-0.5,0,0c11.5-3.5,18.9-10,22.5-19.1c1.6-4.3,2.3-8.9,2.2-13.5c0-14.7-6.6-25.5-19.8-32.6
						c-10-5.6-22.8-8.3-38.3-8.3H6.9v8.6c14.7,0.8,21.9,5.6,21.9,14.2V131c0,6.6-1.7,10.6-5.2,12.5c-2.5,1.7-8.1,2.4-16.7,1.9v9.1
						h81.4c4.1,0,8.1-0.3,12.2-0.8c8.9-1.1,17.3-4.2,24.8-9.1c4-2.7,7.5-6.1,10.3-10c3.5,12.2,14.2,21,26.9,22.1
						c1.5,0.2,3.2,0.2,4.9,0.3c2.7,0,5.3-0.2,7.9-0.5c16.7-2.2,31.4-11.5,43.9-27.5l-4.9-5.6c-13.7,12.2-25.3,18.2-34.8,18.2
						c-1.4,0-2.8,0-4.2-0.2c-5.9-0.7-10.3-2.9-12.8-6.8c-2.2-3.2-3.2-7.3-3-12.2c0.1-4.2,0.8-8.4,1.9-12.5c0.3-0.2,0.7-0.2,1.2-0.3
						c4.6-0.9,8.8-1.7,12.8-2.5c36.1-8.4,54.2-23.3,54.2-44.4c0-1.1-0.1-2.3-0.3-3.4L234.1,59.5z"/>
					<path id="Shape_00000104679320658799280790000008621964489476445855_" class="st0" d="M379.5,54.9c3.9,0,5.8,2.2,5.8,6.4
						c0,18.4-14.9,31.4-44.8,39c4-9.5,8.9-18.6,14.7-27.2C363.6,60.9,371.7,54.9,379.5,54.9L379.5,54.9z M385.1,44.7
						c-1.6,0-3.3,0-4.9,0.2c-9.8,0.9-19.2,4-27.6,9.1c-7,4.3-13.4,9.5-18.9,15.7c-4.4,4.8-8.3,10-11.7,15.5
						c-7.4,12.2-11.1,24.7-11.1,37.5c0,10.3,3,18.6,9.1,24.8c6.1,6.2,14.2,9.3,24.2,9.5c20.1,0,37.3-9.3,51.9-28l-4.9-5.6
						c-13.7,12.2-25.3,18.2-34.8,18.2c-13.5,0-20.3-6.4-20.1-19.1c0.1-4.2,0.7-8.4,1.8-12.5c45.4-7.8,68.2-23.5,68.2-47.3
						c0.1-3.1-0.7-6.1-2.2-8.8c-1.1-1.7-2.6-3.2-4.2-4.4C395.7,46.3,390.5,44.6,385.1,44.7L385.1,44.7z"/>
					
						<ellipse id="Oval_00000106115979092680128860000013547626352584843672_" transform="matrix(0.1633 -0.9866 0.9866 0.1633 187.9246 270.6544)" class="st0" cx="253.5" cy="24.5" rx="15.2" ry="15.2"/>
				</g>
			</g>
		</g>
	</g>
</g>
</svg>
