<?xml version="1.0" encoding="utf-8"?>
<!-- Generator: Adobe Illustrator 26.1.0, SVG Export Plug-In . SVG Version: 6.00 Build 0)  -->
<svg version="1.1" xmlns="http://www.w3.org/2000/svg" xmlns:xlink="http://www.w3.org/1999/xlink" x="0px" y="0px"
	 viewBox="0 0 897.7 881.3" style="enable-background:new 0 0 897.7 881.3;" xml:space="preserve">
<style type="text/css">
	.st0{fill:#FFFFFF;}
	.st1{fill:#FEEF87;}
</style>
<g id="Background">
</g>
<g id="Illustration">
	<g id="Front_end_development">
		<g>
			<g>
				<path d="M749.8,175.4l-618.5-17.5c-14.6,0-26.5,11.9-26.5,26.5v429.5c0,14.6,11.9,26.5,26.5,26.5h218.2l-28.8,105.1l-25.8-15.7
					c-9.4,0-17.1,7.7-17.1,17.1c0,9.4,7.7,17.1,17.1,17.1l240.3-11c9.4,0,28.9-23.1,28.9-23.1l-24.5-89.4
					C539.5,640.5,764.4,175.4,749.8,175.4z"/>
				<g>
					<polygon class="st0" points="535.5,585.5 378.6,585.5 334.1,748 580,748 					"/>
					<path d="M580,749H334.1c-0.3,0-0.6-0.1-0.8-0.4c-0.2-0.2-0.3-0.6-0.2-0.9l44.5-162.5c0.1-0.4,0.5-0.7,1-0.7h156.9
						c0.5,0,0.8,0.3,1,0.7L581,747.7c0.1,0.3,0,0.6-0.2,0.9C580.6,748.9,580.4,749,580,749z M335.4,747h243.3l-44-160.5H379.4
						L335.4,747z"/>
				</g>
				<g>
					<path class="st0" d="M770.3,159.4H143.9c-13.8,0-25,11.2-25,25v429.5c0,13.8,11.2,25,25,25h626.4c13.8,0,25-11.2,25-25V184.4
						C795.3,170.6,784.1,159.4,770.3,159.4z"/>
					<path d="M770.3,640.5H143.9c-14.6,0-26.5-11.9-26.5-26.5V184.4c0-14.6,11.9-26.5,26.5-26.5h626.4c14.6,0,26.5,11.9,26.5,26.5
						v429.5C796.8,628.6,784.9,640.5,770.3,640.5z M143.9,160.9c-13,0-23.5,10.6-23.5,23.5v429.5c0,13,10.6,23.5,23.5,23.5h626.4
						c13,0,23.5-10.6,23.5-23.5V184.4c0-13-10.6-23.5-23.5-23.5H143.9z"/>
				</g>
				<g>
					<path class="st0" d="M606.7,731.3H307.4c-8.6,0-15.6,7-15.6,15.6c0,8.6,7,15.6,15.6,15.6h299.3c8.6,0,15.6-7,15.6-15.6
						C622.3,738.3,615.3,731.3,606.7,731.3z"/>
					<path d="M606.7,763.5H307.4c-9.1,0-16.6-7.4-16.6-16.6s7.4-16.6,16.6-16.6h299.3c9.1,0,16.6,7.4,16.6,16.6
						S615.9,763.5,606.7,763.5z M307.4,732.3c-8,0-14.6,6.5-14.6,14.6c0,8,6.5,14.6,14.6,14.6h299.3c8,0,14.6-6.5,14.6-14.6
						c0-8-6.5-14.6-14.6-14.6H307.4z"/>
				</g>
			</g>
			<g>
				<g>
					<g>
						<path d="M749.3,226.3H164.9c-6.6,0-12-5.4-12-12v-8.1c0-6.6,5.4-12,12-12h584.5c6.6,0,12,5.4,12,12v8.1
							C761.3,220.9,755.9,226.3,749.3,226.3z M164.9,196.3c-5.5,0-10,4.5-10,10v8.1c0,5.5,4.5,10,10,10h584.5c5.5,0,10-4.5,10-10
							v-8.1c0-5.5-4.5-10-10-10H164.9z"/>
						<path class="st0" d="M746.5,210.3c0,4-3.2,7.2-7.2,7.2c-4,0-7.2-3.2-7.2-7.2c0-4,3.2-7.2,7.2-7.2
							C743.2,203.1,746.5,206.3,746.5,210.3z"/>
					</g>
					<g>
						<g>
							<rect x="154.1" y="239.4" class="st0" width="293.5" height="364.7"/>
							<path d="M447.6,605.1h-12c-0.6,0-1-0.4-1-1c0-0.6,0.4-1,1-1h12c0.6,0,1,0.4,1,1C448.6,604.7,448.2,605.1,447.6,605.1z
								 M423.6,605.1h-12c-0.6,0-1-0.4-1-1c0-0.6,0.4-1,1-1h12c0.6,0,1,0.4,1,1C424.6,604.7,424.2,605.1,423.6,605.1z M399.6,605.1
								h-12c-0.6,0-1-0.4-1-1c0-0.6,0.4-1,1-1h12c0.6,0,1,0.4,1,1C400.6,604.7,400.2,605.1,399.6,605.1z M375.6,605.1h-12
								c-0.6,0-1-0.4-1-1c0-0.6,0.4-1,1-1h12c0.6,0,1,0.4,1,1C376.6,604.7,376.2,605.1,375.6,605.1z M351.6,605.1h-12
								c-0.6,0-1-0.4-1-1c0-0.6,0.4-1,1-1h12c0.6,0,1,0.4,1,1C352.6,604.7,352.2,605.1,351.6,605.1z M327.6,605.1h-12
								c-0.6,0-1-0.4-1-1c0-0.6,0.4-1,1-1h12c0.6,0,1,0.4,1,1C328.6,604.7,328.2,605.1,327.6,605.1z M303.6,605.1h-12
								c-0.6,0-1-0.4-1-1c0-0.6,0.4-1,1-1h12c0.6,0,1,0.4,1,1C304.6,604.7,304.2,605.1,303.6,605.1z M279.6,605.1h-12
								c-0.6,0-1-0.4-1-1c0-0.6,0.4-1,1-1h12c0.6,0,1,0.4,1,1C280.6,604.7,280.2,605.1,279.6,605.1z M255.6,605.1h-12
								c-0.6,0-1-0.4-1-1c0-0.6,0.4-1,1-1h12c0.6,0,1,0.4,1,1C256.6,604.7,256.2,605.1,255.6,605.1z M231.6,605.1h-12
								c-0.6,0-1-0.4-1-1c0-0.6,0.4-1,1-1h12c0.6,0,1,0.4,1,1C232.6,604.7,232.2,605.1,231.6,605.1z M207.6,605.1h-12
								c-0.6,0-1-0.4-1-1c0-0.6,0.4-1,1-1h12c0.6,0,1,0.4,1,1C208.6,604.7,208.2,605.1,207.6,605.1z M183.6,605.1h-12
								c-0.6,0-1-0.4-1-1c0-0.6,0.4-1,1-1h12c0.6,0,1,0.4,1,1C184.6,604.7,184.2,605.1,183.6,605.1z M159.6,605.1h-5.5
								c-0.6,0-1-0.4-1-1v-6.5c0-0.6,0.4-1,1-1c0.6,0,1,0.4,1,1v5.5h4.5c0.6,0,1,0.4,1,1C160.6,604.7,160.2,605.1,159.6,605.1z
								 M447.6,596.8c-0.6,0-1-0.4-1-1v-12c0-0.6,0.4-1,1-1c0.6,0,1,0.4,1,1v12C448.6,596.3,448.2,596.8,447.6,596.8z M154.1,586.6
								c-0.6,0-1-0.4-1-1v-12c0-0.6,0.4-1,1-1c0.6,0,1,0.4,1,1v12C155.1,586.1,154.7,586.6,154.1,586.6z M447.6,572.8
								c-0.6,0-1-0.4-1-1v-12c0-0.6,0.4-1,1-1c0.6,0,1,0.4,1,1v12C448.6,572.3,448.2,572.8,447.6,572.8z M154.1,562.6
								c-0.6,0-1-0.4-1-1v-12c0-0.6,0.4-1,1-1c0.6,0,1,0.4,1,1v12C155.1,562.1,154.7,562.6,154.1,562.6z M447.6,548.8
								c-0.6,0-1-0.4-1-1v-12c0-0.6,0.4-1,1-1c0.6,0,1,0.4,1,1v12C448.6,548.3,448.2,548.8,447.6,548.8z M154.1,538.6
								c-0.6,0-1-0.4-1-1v-12c0-0.6,0.4-1,1-1c0.6,0,1,0.4,1,1v12C155.1,538.1,154.7,538.6,154.1,538.6z M447.6,524.8
								c-0.6,0-1-0.4-1-1v-12c0-0.6,0.4-1,1-1c0.6,0,1,0.4,1,1v12C448.6,524.3,448.2,524.8,447.6,524.8z M154.1,514.6
								c-0.6,0-1-0.4-1-1v-12c0-0.6,0.4-1,1-1c0.6,0,1,0.4,1,1v12C155.1,514.1,154.7,514.6,154.1,514.6z M447.6,500.8
								c-0.6,0-1-0.4-1-1v-12c0-0.6,0.4-1,1-1c0.6,0,1,0.4,1,1v12C448.6,500.3,448.2,500.8,447.6,500.8z M154.1,490.6
								c-0.6,0-1-0.4-1-1v-12c0-0.6,0.4-1,1-1c0.6,0,1,0.4,1,1v12C155.1,490.1,154.7,490.6,154.1,490.6z M447.6,476.8
								c-0.6,0-1-0.4-1-1v-12c0-0.6,0.4-1,1-1c0.6,0,1,0.4,1,1v12C448.6,476.3,448.2,476.8,447.6,476.8z M154.1,466.6
								c-0.6,0-1-0.4-1-1v-12c0-0.6,0.4-1,1-1c0.6,0,1,0.4,1,1v12C155.1,466.1,154.7,466.6,154.1,466.6z M447.6,452.8
								c-0.6,0-1-0.4-1-1v-12c0-0.6,0.4-1,1-1c0.6,0,1,0.4,1,1v12C448.6,452.3,448.2,452.8,447.6,452.8z M154.1,442.6
								c-0.6,0-1-0.4-1-1v-12c0-0.6,0.4-1,1-1c0.6,0,1,0.4,1,1v12C155.1,442.1,154.7,442.6,154.1,442.6z M447.6,428.8
								c-0.6,0-1-0.4-1-1v-12c0-0.6,0.4-1,1-1c0.6,0,1,0.4,1,1v12C448.6,428.3,448.2,428.8,447.6,428.8z M154.1,418.6
								c-0.6,0-1-0.4-1-1v-12c0-0.6,0.4-1,1-1c0.6,0,1,0.4,1,1v12C155.1,418.1,154.7,418.6,154.1,418.6z M447.6,404.8
								c-0.6,0-1-0.4-1-1v-12c0-0.6,0.4-1,1-1c0.6,0,1,0.4,1,1v12C448.6,404.3,448.2,404.8,447.6,404.8z M154.1,394.6
								c-0.6,0-1-0.4-1-1v-12c0-0.6,0.4-1,1-1c0.6,0,1,0.4,1,1v12C155.1,394.1,154.7,394.6,154.1,394.6z M447.6,380.8
								c-0.6,0-1-0.4-1-1v-12c0-0.6,0.4-1,1-1c0.6,0,1,0.4,1,1v12C448.6,380.3,448.2,380.8,447.6,380.8z M154.1,370.6
								c-0.6,0-1-0.4-1-1v-12c0-0.6,0.4-1,1-1c0.6,0,1,0.4,1,1v12C155.1,370.1,154.7,370.6,154.1,370.6z M447.6,356.8
								c-0.6,0-1-0.4-1-1v-12c0-0.6,0.4-1,1-1c0.6,0,1,0.4,1,1v12C448.6,356.3,448.2,356.8,447.6,356.8z M154.1,346.6
								c-0.6,0-1-0.4-1-1v-12c0-0.6,0.4-1,1-1c0.6,0,1,0.4,1,1v12C155.1,346.1,154.7,346.6,154.1,346.6z M447.6,332.8
								c-0.6,0-1-0.4-1-1v-12c0-0.6,0.4-1,1-1c0.6,0,1,0.4,1,1v12C448.6,332.3,448.2,332.8,447.6,332.8z M154.1,322.6
								c-0.6,0-1-0.4-1-1v-12c0-0.6,0.4-1,1-1c0.6,0,1,0.4,1,1v12C155.1,322.1,154.7,322.6,154.1,322.6z M447.6,308.8
								c-0.6,0-1-0.4-1-1v-12c0-0.6,0.4-1,1-1c0.6,0,1,0.4,1,1v12C448.6,308.3,448.2,308.8,447.6,308.8z M154.1,298.6
								c-0.6,0-1-0.4-1-1v-12c0-0.6,0.4-1,1-1c0.6,0,1,0.4,1,1v12C155.1,298.1,154.7,298.6,154.1,298.6z M447.6,284.8
								c-0.6,0-1-0.4-1-1v-12c0-0.6,0.4-1,1-1c0.6,0,1,0.4,1,1v12C448.6,284.3,448.2,284.8,447.6,284.8z M154.1,274.6
								c-0.6,0-1-0.4-1-1v-12c0-0.6,0.4-1,1-1c0.6,0,1,0.4,1,1v12C155.1,274.1,154.7,274.6,154.1,274.6z M447.6,260.8
								c-0.6,0-1-0.4-1-1v-12c0-0.6,0.4-1,1-1c0.6,0,1,0.4,1,1v12C448.6,260.3,448.2,260.8,447.6,260.8z M154.1,250.6
								c-0.6,0-1-0.4-1-1v-10.2c0-0.6,0.4-1,1-1h1.8c0.6,0,1,0.4,1,1c0,0.6-0.4,1-1,1h-0.8v9.2C155.1,250.1,154.7,250.6,154.1,250.6
								z M443.9,240.4h-12c-0.6,0-1-0.4-1-1c0-0.6,0.4-1,1-1h12c0.6,0,1,0.4,1,1C444.9,240,444.5,240.4,443.9,240.4z M419.9,240.4
								h-12c-0.6,0-1-0.4-1-1c0-0.6,0.4-1,1-1h12c0.6,0,1,0.4,1,1C420.9,240,420.5,240.4,419.9,240.4z M395.9,240.4h-12
								c-0.6,0-1-0.4-1-1c0-0.6,0.4-1,1-1h12c0.6,0,1,0.4,1,1C396.9,240,396.5,240.4,395.9,240.4z M371.9,240.4h-12
								c-0.6,0-1-0.4-1-1c0-0.6,0.4-1,1-1h12c0.6,0,1,0.4,1,1C372.9,240,372.5,240.4,371.9,240.4z M347.9,240.4h-12
								c-0.6,0-1-0.4-1-1c0-0.6,0.4-1,1-1h12c0.6,0,1,0.4,1,1C348.9,240,348.5,240.4,347.9,240.4z M323.9,240.4h-12
								c-0.6,0-1-0.4-1-1c0-0.6,0.4-1,1-1h12c0.6,0,1,0.4,1,1C324.9,240,324.5,240.4,323.9,240.4z M299.9,240.4h-12
								c-0.6,0-1-0.4-1-1c0-0.6,0.4-1,1-1h12c0.6,0,1,0.4,1,1C300.9,240,300.5,240.4,299.9,240.4z M275.9,240.4h-12
								c-0.6,0-1-0.4-1-1c0-0.6,0.4-1,1-1h12c0.6,0,1,0.4,1,1C276.9,240,276.5,240.4,275.9,240.4z M251.9,240.4h-12
								c-0.6,0-1-0.4-1-1c0-0.6,0.4-1,1-1h12c0.6,0,1,0.4,1,1C252.9,240,252.5,240.4,251.9,240.4z M227.9,240.4h-12
								c-0.6,0-1-0.4-1-1c0-0.6,0.4-1,1-1h12c0.6,0,1,0.4,1,1C228.9,240,228.5,240.4,227.9,240.4z M203.9,240.4h-12
								c-0.6,0-1-0.4-1-1c0-0.6,0.4-1,1-1h12c0.6,0,1,0.4,1,1C204.9,240,204.5,240.4,203.9,240.4z M179.9,240.4h-12
								c-0.6,0-1-0.4-1-1c0-0.6,0.4-1,1-1h12c0.6,0,1,0.4,1,1C180.9,240,180.5,240.4,179.9,240.4z"/>
						</g>
						<g>
							<rect x="466.6" y="239.4" class="st0" width="293.5" height="122.3"/>
							<path d="M760,362.8h-12c-0.6,0-1-0.4-1-1c0-0.6,0.4-1,1-1h12c0.6,0,1,0.4,1,1C761,362.3,760.6,362.8,760,362.8z M736,362.8
								h-12c-0.6,0-1-0.4-1-1c0-0.6,0.4-1,1-1h12c0.6,0,1,0.4,1,1C737,362.3,736.6,362.8,736,362.8z M712,362.8h-12
								c-0.6,0-1-0.4-1-1c0-0.6,0.4-1,1-1h12c0.6,0,1,0.4,1,1C713,362.3,712.6,362.8,712,362.8z M688,362.8h-12c-0.6,0-1-0.4-1-1
								c0-0.6,0.4-1,1-1h12c0.6,0,1,0.4,1,1C689,362.3,688.6,362.8,688,362.8z M664,362.8h-12c-0.6,0-1-0.4-1-1c0-0.6,0.4-1,1-1h12
								c0.6,0,1,0.4,1,1C665,362.3,664.6,362.8,664,362.8z M640,362.8h-12c-0.6,0-1-0.4-1-1c0-0.6,0.4-1,1-1h12c0.6,0,1,0.4,1,1
								C641,362.3,640.6,362.8,640,362.8z M616,362.8h-12c-0.6,0-1-0.4-1-1c0-0.6,0.4-1,1-1h12c0.6,0,1,0.4,1,1
								C617,362.3,616.6,362.8,616,362.8z M592,362.8h-12c-0.6,0-1-0.4-1-1c0-0.6,0.4-1,1-1h12c0.6,0,1,0.4,1,1
								C593,362.3,592.6,362.8,592,362.8z M568,362.8h-12c-0.6,0-1-0.4-1-1c0-0.6,0.4-1,1-1h12c0.6,0,1,0.4,1,1
								C569,362.3,568.6,362.8,568,362.8z M544,362.8h-12c-0.6,0-1-0.4-1-1c0-0.6,0.4-1,1-1h12c0.6,0,1,0.4,1,1
								C545,362.3,544.6,362.8,544,362.8z M520,362.8h-12c-0.6,0-1-0.4-1-1c0-0.6,0.4-1,1-1h12c0.6,0,1,0.4,1,1
								C521,362.3,520.6,362.8,520,362.8z M496,362.8h-12c-0.6,0-1-0.4-1-1c0-0.6,0.4-1,1-1h12c0.6,0,1,0.4,1,1
								C497,362.3,496.6,362.8,496,362.8z M472,362.8h-5.5c-0.6,0-1-0.4-1-1v-6.5c0-0.6,0.4-1,1-1c0.6,0,1,0.4,1,1v5.5h4.5
								c0.6,0,1,0.4,1,1C473,362.3,472.6,362.8,472,362.8z M760,359.1c-0.6,0-1-0.4-1-1v-12c0-0.6,0.4-1,1-1c0.6,0,1,0.4,1,1v12
								C761,358.7,760.6,359.1,760,359.1z M466.6,344.2c-0.6,0-1-0.4-1-1v-12c0-0.6,0.4-1,1-1c0.6,0,1,0.4,1,1v12
								C467.6,343.8,467.1,344.2,466.6,344.2z M760,335.1c-0.6,0-1-0.4-1-1v-12c0-0.6,0.4-1,1-1c0.6,0,1,0.4,1,1v12
								C761,334.7,760.6,335.1,760,335.1z M466.6,320.2c-0.6,0-1-0.4-1-1v-12c0-0.6,0.4-1,1-1c0.6,0,1,0.4,1,1v12
								C467.6,319.8,467.1,320.2,466.6,320.2z M760,311.1c-0.6,0-1-0.4-1-1v-12c0-0.6,0.4-1,1-1c0.6,0,1,0.4,1,1v12
								C761,310.7,760.6,311.1,760,311.1z M466.6,296.2c-0.6,0-1-0.4-1-1v-12c0-0.6,0.4-1,1-1c0.6,0,1,0.4,1,1v12
								C467.6,295.8,467.1,296.2,466.6,296.2z M760,287.1c-0.6,0-1-0.4-1-1v-12c0-0.6,0.4-1,1-1c0.6,0,1,0.4,1,1v12
								C761,286.7,760.6,287.1,760,287.1z M466.6,272.2c-0.6,0-1-0.4-1-1v-12c0-0.6,0.4-1,1-1c0.6,0,1,0.4,1,1v12
								C467.6,271.8,467.1,272.2,466.6,272.2z M760,263.1c-0.6,0-1-0.4-1-1v-12c0-0.6,0.4-1,1-1c0.6,0,1,0.4,1,1v12
								C761,262.7,760.6,263.1,760,263.1z M466.6,248.2c-0.6,0-1-0.4-1-1v-7.8c0-0.6,0.4-1,1-1h4.2c0.6,0,1,0.4,1,1c0,0.6-0.4,1-1,1
								h-3.2v6.8C467.6,247.8,467.1,248.2,466.6,248.2z M758.8,240.4h-12c-0.6,0-1-0.4-1-1c0-0.6,0.4-1,1-1h12c0.6,0,1,0.4,1,1
								C759.8,240,759.3,240.4,758.8,240.4z M734.8,240.4h-12c-0.6,0-1-0.4-1-1c0-0.6,0.4-1,1-1h12c0.6,0,1,0.4,1,1
								C735.8,240,735.3,240.4,734.8,240.4z M710.8,240.4h-12c-0.6,0-1-0.4-1-1c0-0.6,0.4-1,1-1h12c0.6,0,1,0.4,1,1
								C711.8,240,711.3,240.4,710.8,240.4z M686.8,240.4h-12c-0.6,0-1-0.4-1-1c0-0.6,0.4-1,1-1h12c0.6,0,1,0.4,1,1
								C687.8,240,687.3,240.4,686.8,240.4z M662.8,240.4h-12c-0.6,0-1-0.4-1-1c0-0.6,0.4-1,1-1h12c0.6,0,1,0.4,1,1
								C663.8,240,663.3,240.4,662.8,240.4z M638.8,240.4h-12c-0.6,0-1-0.4-1-1c0-0.6,0.4-1,1-1h12c0.6,0,1,0.4,1,1
								C639.8,240,639.3,240.4,638.8,240.4z M614.8,240.4h-12c-0.6,0-1-0.4-1-1c0-0.6,0.4-1,1-1h12c0.6,0,1,0.4,1,1
								C615.8,240,615.3,240.4,614.8,240.4z M590.8,240.4h-12c-0.6,0-1-0.4-1-1c0-0.6,0.4-1,1-1h12c0.6,0,1,0.4,1,1
								C591.8,240,591.3,240.4,590.8,240.4z M566.8,240.4h-12c-0.6,0-1-0.4-1-1c0-0.6,0.4-1,1-1h12c0.6,0,1,0.4,1,1
								C567.8,240,567.3,240.4,566.8,240.4z M542.8,240.4h-12c-0.6,0-1-0.4-1-1c0-0.6,0.4-1,1-1h12c0.6,0,1,0.4,1,1
								C543.8,240,543.3,240.4,542.8,240.4z M518.8,240.4h-12c-0.6,0-1-0.4-1-1c0-0.6,0.4-1,1-1h12c0.6,0,1,0.4,1,1
								C519.8,240,519.3,240.4,518.8,240.4z M494.8,240.4h-12c-0.6,0-1-0.4-1-1c0-0.6,0.4-1,1-1h12c0.6,0,1,0.4,1,1
								C495.8,240,495.3,240.4,494.8,240.4z"/>
						</g>
						<g>
							<rect x="466.6" y="384.8" class="st0" width="293.5" height="219.3"/>
							<path d="M760,605.1h-12c-0.6,0-1-0.4-1-1c0-0.6,0.4-1,1-1h12c0.6,0,1,0.4,1,1C761,604.7,760.6,605.1,760,605.1z M736,605.1
								h-12c-0.6,0-1-0.4-1-1c0-0.6,0.4-1,1-1h12c0.6,0,1,0.4,1,1C737,604.7,736.6,605.1,736,605.1z M712,605.1h-12
								c-0.6,0-1-0.4-1-1c0-0.6,0.4-1,1-1h12c0.6,0,1,0.4,1,1C713,604.7,712.6,605.1,712,605.1z M688,605.1h-12c-0.6,0-1-0.4-1-1
								c0-0.6,0.4-1,1-1h12c0.6,0,1,0.4,1,1C689,604.7,688.6,605.1,688,605.1z M664,605.1h-12c-0.6,0-1-0.4-1-1c0-0.6,0.4-1,1-1h12
								c0.6,0,1,0.4,1,1C665,604.7,664.6,605.1,664,605.1z M640,605.1h-12c-0.6,0-1-0.4-1-1c0-0.6,0.4-1,1-1h12c0.6,0,1,0.4,1,1
								C641,604.7,640.6,605.1,640,605.1z M616,605.1h-12c-0.6,0-1-0.4-1-1c0-0.6,0.4-1,1-1h12c0.6,0,1,0.4,1,1
								C617,604.7,616.6,605.1,616,605.1z M592,605.1h-12c-0.6,0-1-0.4-1-1c0-0.6,0.4-1,1-1h12c0.6,0,1,0.4,1,1
								C593,604.7,592.6,605.1,592,605.1z M568,605.1h-12c-0.6,0-1-0.4-1-1c0-0.6,0.4-1,1-1h12c0.6,0,1,0.4,1,1
								C569,604.7,568.6,605.1,568,605.1z M544,605.1h-12c-0.6,0-1-0.4-1-1c0-0.6,0.4-1,1-1h12c0.6,0,1,0.4,1,1
								C545,604.7,544.6,605.1,544,605.1z M520,605.1h-12c-0.6,0-1-0.4-1-1c0-0.6,0.4-1,1-1h12c0.6,0,1,0.4,1,1
								C521,604.7,520.6,605.1,520,605.1z M496,605.1h-12c-0.6,0-1-0.4-1-1c0-0.6,0.4-1,1-1h12c0.6,0,1,0.4,1,1
								C497,604.7,496.6,605.1,496,605.1z M472,605.1h-5.5c-0.6,0-1-0.4-1-1v-6.5c0-0.6,0.4-1,1-1c0.6,0,1,0.4,1,1v5.5h4.5
								c0.6,0,1,0.4,1,1C473,604.7,472.6,605.1,472,605.1z M760,599.6c-0.6,0-1-0.4-1-1v-12c0-0.6,0.4-1,1-1c0.6,0,1,0.4,1,1v12
								C761,599.2,760.6,599.6,760,599.6z M466.6,586.6c-0.6,0-1-0.4-1-1v-12c0-0.6,0.4-1,1-1c0.6,0,1,0.4,1,1v12
								C467.6,586.1,467.1,586.6,466.6,586.6z M760,575.6c-0.6,0-1-0.4-1-1v-12c0-0.6,0.4-1,1-1c0.6,0,1,0.4,1,1v12
								C761,575.2,760.6,575.6,760,575.6z M466.6,562.6c-0.6,0-1-0.4-1-1v-12c0-0.6,0.4-1,1-1c0.6,0,1,0.4,1,1v12
								C467.6,562.1,467.1,562.6,466.6,562.6z M760,551.6c-0.6,0-1-0.4-1-1v-12c0-0.6,0.4-1,1-1c0.6,0,1,0.4,1,1v12
								C761,551.2,760.6,551.6,760,551.6z M466.6,538.6c-0.6,0-1-0.4-1-1v-12c0-0.6,0.4-1,1-1c0.6,0,1,0.4,1,1v12
								C467.6,538.1,467.1,538.6,466.6,538.6z M760,527.6c-0.6,0-1-0.4-1-1v-12c0-0.6,0.4-1,1-1c0.6,0,1,0.4,1,1v12
								C761,527.2,760.6,527.6,760,527.6z M466.6,514.6c-0.6,0-1-0.4-1-1v-12c0-0.6,0.4-1,1-1c0.6,0,1,0.4,1,1v12
								C467.6,514.1,467.1,514.6,466.6,514.6z M760,503.6c-0.6,0-1-0.4-1-1v-12c0-0.6,0.4-1,1-1c0.6,0,1,0.4,1,1v12
								C761,503.2,760.6,503.6,760,503.6z M466.6,490.6c-0.6,0-1-0.4-1-1v-12c0-0.6,0.4-1,1-1c0.6,0,1,0.4,1,1v12
								C467.6,490.1,467.1,490.6,466.6,490.6z M760,479.6c-0.6,0-1-0.4-1-1v-12c0-0.6,0.4-1,1-1c0.6,0,1,0.4,1,1v12
								C761,479.2,760.6,479.6,760,479.6z M466.6,466.6c-0.6,0-1-0.4-1-1v-12c0-0.6,0.4-1,1-1c0.6,0,1,0.4,1,1v12
								C467.6,466.1,467.1,466.6,466.6,466.6z M760,455.6c-0.6,0-1-0.4-1-1v-12c0-0.6,0.4-1,1-1c0.6,0,1,0.4,1,1v12
								C761,455.2,760.6,455.6,760,455.6z M466.6,442.6c-0.6,0-1-0.4-1-1v-12c0-0.6,0.4-1,1-1c0.6,0,1,0.4,1,1v12
								C467.6,442.1,467.1,442.6,466.6,442.6z M760,431.6c-0.6,0-1-0.4-1-1v-12c0-0.6,0.4-1,1-1c0.6,0,1,0.4,1,1v12
								C761,431.2,760.6,431.6,760,431.6z M466.6,418.6c-0.6,0-1-0.4-1-1v-12c0-0.6,0.4-1,1-1c0.6,0,1,0.4,1,1v12
								C467.6,418.1,467.1,418.6,466.6,418.6z M760,407.6c-0.6,0-1-0.4-1-1v-12c0-0.6,0.4-1,1-1c0.6,0,1,0.4,1,1v12
								C761,407.2,760.6,407.6,760,407.6z M466.6,394.6c-0.6,0-1-0.4-1-1v-8.8c0-0.6,0.4-1,1-1h3.2c0.6,0,1,0.4,1,1c0,0.6-0.4,1-1,1
								h-2.2v7.8C467.6,394.1,467.1,394.6,466.6,394.6z M757.8,385.8h-12c-0.6,0-1-0.4-1-1c0-0.6,0.4-1,1-1h12c0.6,0,1,0.4,1,1
								C758.8,385.4,758.4,385.8,757.8,385.8z M733.8,385.8h-12c-0.6,0-1-0.4-1-1c0-0.6,0.4-1,1-1h12c0.6,0,1,0.4,1,1
								C734.8,385.4,734.4,385.8,733.8,385.8z M709.8,385.8h-12c-0.6,0-1-0.4-1-1c0-0.6,0.4-1,1-1h12c0.6,0,1,0.4,1,1
								C710.8,385.4,710.4,385.8,709.8,385.8z M685.8,385.8h-12c-0.6,0-1-0.4-1-1c0-0.6,0.4-1,1-1h12c0.6,0,1,0.4,1,1
								C686.8,385.4,686.4,385.8,685.8,385.8z M661.8,385.8h-12c-0.6,0-1-0.4-1-1c0-0.6,0.4-1,1-1h12c0.6,0,1,0.4,1,1
								C662.8,385.4,662.4,385.8,661.8,385.8z M637.8,385.8h-12c-0.6,0-1-0.4-1-1c0-0.6,0.4-1,1-1h12c0.6,0,1,0.4,1,1
								C638.8,385.4,638.4,385.8,637.8,385.8z M613.8,385.8h-12c-0.6,0-1-0.4-1-1c0-0.6,0.4-1,1-1h12c0.6,0,1,0.4,1,1
								C614.8,385.4,614.4,385.8,613.8,385.8z M589.8,385.8h-12c-0.6,0-1-0.4-1-1c0-0.6,0.4-1,1-1h12c0.6,0,1,0.4,1,1
								C590.8,385.4,590.4,385.8,589.8,385.8z M565.8,385.8h-12c-0.6,0-1-0.4-1-1c0-0.6,0.4-1,1-1h12c0.6,0,1,0.4,1,1
								C566.8,385.4,566.4,385.8,565.8,385.8z M541.8,385.8h-12c-0.6,0-1-0.4-1-1c0-0.6,0.4-1,1-1h12c0.6,0,1,0.4,1,1
								C542.8,385.4,542.4,385.8,541.8,385.8z M517.8,385.8h-12c-0.6,0-1-0.4-1-1c0-0.6,0.4-1,1-1h12c0.6,0,1,0.4,1,1
								C518.8,385.4,518.4,385.8,517.8,385.8z M493.8,385.8h-12c-0.6,0-1-0.4-1-1c0-0.6,0.4-1,1-1h12c0.6,0,1,0.4,1,1
								C494.8,385.4,494.4,385.8,493.8,385.8z"/>
						</g>
					</g>
				</g>
			</g>
		</g>
		<g>
			<g>
				<path class="st0" d="M496.1,744.1h-331c-3.6,0-6.5,2.9-6.5,6.5v12c0,3.6,2.9,6.5,6.5,6.5h331c3.6,0,6.5-2.9,6.5-6.5v-12
					C502.6,747.1,499.7,744.1,496.1,744.1z"/>
				<path d="M496.1,770.1h-331c-4.1,0-7.5-3.4-7.5-7.5v-12c0-4.1,3.4-7.5,7.5-7.5h331c4.1,0,7.5,3.4,7.5,7.5v12
					C503.6,766.8,500.2,770.1,496.1,770.1z M165.1,745.1c-3,0-5.5,2.5-5.5,5.5v12c0,3,2.5,5.5,5.5,5.5h331c3,0,5.5-2.5,5.5-5.5v-12
					c0-3-2.5-5.5-5.5-5.5H165.1z"/>
			</g>
			<g>
				<path class="st0" d="M532.1,705.1h-340c-6.4,0-11.5,5.1-11.5,11.5v16c0,6.4,5.1,11.5,11.5,11.5h340c6.4,0,11.5-5.1,11.5-11.5
					v-16C543.6,710.3,538.5,705.1,532.1,705.1z"/>
				<path d="M532.1,745.1h-340c-6.9,0-12.5-5.6-12.5-12.5v-16c0-6.9,5.6-12.5,12.5-12.5h340c6.9,0,12.5,5.6,12.5,12.5v16
					C544.6,739.5,539,745.1,532.1,745.1z M192.1,706.1c-5.8,0-10.5,4.7-10.5,10.5v16c0,5.8,4.7,10.5,10.5,10.5h340
					c5.8,0,10.5-4.7,10.5-10.5v-16c0-5.8-4.7-10.5-10.5-10.5H192.1z"/>
			</g>
			<g>
				<path class="st0" d="M518.6,667.1h-365c-5,0-9,4-9,9v19c0,5,4,9,9,9h365c5,0,9-4,9-9v-19C527.6,671.2,523.6,667.1,518.6,667.1z"
					/>
				<path d="M518.6,705.1h-365c-5.5,0-10-4.5-10-10v-19c0-5.5,4.5-10,10-10h365c5.5,0,10,4.5,10,10v19
					C528.6,700.7,524.1,705.1,518.6,705.1z M153.6,668.1c-4.4,0-8,3.6-8,8v19c0,4.4,3.6,8,8,8h365c4.4,0,8-3.6,8-8v-19
					c0-4.4-3.6-8-8-8H153.6z"/>
			</g>
		</g>
		<g>
			<g>
				<g>
					<path class="st0" d="M216.6,616.1c-5.5-3.5,9.9-22.3,3.5-50c-3.4-14.6-9.2-16.3-9.7-29.9c-0.7-19.3,10.6-33.6,12.2-35.6
						c8.2-10.1,11.9-6.8,25.5-18.5c7.3-6.3,24-20.7,26.5-41c1.2-10.2-2.5-11.6,0-20c4.6-15.3,21.3-29,31-25c6.4,2.6,9.3,12.9,9,21
						c-0.7,17.7-18.3,20.7-22,39c-3.5,17.3,10.7,22.3,7,37c-5,20-32.6,17.1-42,40c-6.2,15.2,3.9,21-1,41
						C249.9,601.4,222.7,620,216.6,616.1z"/>
					<path d="M218.7,617.7c-1.1,0-1.9-0.2-2.6-0.7c-2.8-1.8-1.6-6,0.3-12.2c2.6-8.8,6.6-22,2.8-38.4c-1.5-6.3-3.4-10.3-5.1-13.7
						c-2.3-4.6-4.3-8.6-4.6-16.4c-0.7-19.1,10.2-33.5,12.4-36.2c4.5-5.5,7.7-7.2,11.7-9.3c3.6-1.9,7.6-4,13.9-9.4
						c7.1-6.1,23.7-20.4,26.1-40.4c0.6-4.6,0.1-7.4-0.4-9.8c-0.5-2.9-1-5.6,0.4-10.4c3-10.1,11.4-20.1,20.4-24.4
						c4.5-2.1,8.6-2.6,11.9-1.2c6.8,2.8,10,13.2,9.6,22c-0.4,9.6-5.4,14.9-10.8,20.5c-4.7,5-9.5,10.1-11.3,18.6
						c-1.7,8.5,1,13.9,3.7,19.2c2.6,5.1,5.2,10.3,3.3,17.9c-2.6,10.3-10.9,14.8-19.6,19.4c-8.8,4.7-17.8,9.5-22.4,20.7
						c-3,7.4-2,12.4-0.9,18.3c1.1,5.8,2.4,12.5-0.1,22.6c-5.3,21.6-23.4,37.9-33.9,42.1C221.7,617.3,220.1,617.7,218.7,617.7z
						 M217.1,615.3c1,0.7,3.1,0.4,5.8-0.6c10.2-4.1,27.6-19.8,32.7-40.8c2.4-9.7,1.1-16.1,0-21.7c-1.2-5.9-2.3-11.5,1-19.5
						c4.9-11.9,14.7-17.1,23.3-21.7c8.4-4.5,16.3-8.7,18.6-18.2c1.7-6.8-0.7-11.5-3.2-16.5c-2.7-5.3-5.7-11.3-3.8-20.5
						c1.8-9.1,6.9-14.4,11.8-19.6c5.1-5.4,9.9-10.4,10.2-19.3c0.3-7.9-2.5-17.6-8.4-20c-2.8-1.1-6.3-0.7-10.3,1.2
						c-8.5,4.1-16.5,13.6-19.4,23.2c-1.3,4.3-0.9,6.5-0.4,9.4c0.5,2.6,1,5.5,0.4,10.4c-2.5,20.7-19.5,35.4-26.8,41.6
						c-6.5,5.6-10.8,7.8-14.3,9.6c-4,2.1-6.9,3.6-11.1,8.7c-2.1,2.6-12.6,16.5-12,34.9c0.3,7.4,2.2,11.2,4.4,15.6
						c1.8,3.6,3.8,7.6,5.3,14.2c3.9,16.9-0.1,30.4-2.8,39.4C216.7,610.5,215.6,614.3,217.1,615.3z"/>
				</g>
				<path d="M291,420.3c-0.4,8.3-1.3,16.7-3.2,24.8c-1.9,8.2-4.6,16.1-8.3,23.7c-3.7,7.5-8.4,14.6-14,20.9c-2.8,3.2-5.7,6.1-8.8,9
					c-3.1,2.8-6.4,5.5-9.6,8.1c-3.2,2.6-6.5,5.2-9.5,8c-3,2.8-5.8,5.9-7.6,9.4c-0.9,1.8-1.6,3.7-2,5.6c-0.4,2-0.5,4-0.4,6
					c0.1,4,1.2,8,2.6,11.8c1.4,3.8,3.2,7.7,4.5,11.7c1.3,4,2.2,8.4,2.1,12.7c0,1.1-0.1,2.2-0.2,3.2c-0.1,0.5-0.1,1.1-0.2,1.6
					l-0.3,1.6c-0.4,2.1-1.1,4.2-1.9,6.2c-1.6,4-3.8,7.8-6.5,11.1c-0.5,0.6-1.5,0.8-2.1,0.2c-0.6-0.5-0.8-1.5-0.2-2.1c0,0,0,0,0,0
					c2.6-3.1,4.7-6.6,6.2-10.3c0.8-1.9,1.4-3.8,1.8-5.7l0.3-1.5c0.1-0.5,0.1-1,0.2-1.5c0.1-1,0.3-2,0.3-3c0.2-4-0.6-8-1.8-11.9
					c-1.2-3.9-2.9-7.7-4.3-11.7c-1.5-4-2.5-8.2-2.6-12.5c-0.1-2.2,0.1-4.3,0.6-6.5c0.5-2.1,1.2-4.2,2.2-6.1c2-3.9,5-7.1,8.1-9.9
					c3.1-2.8,6.5-5.4,9.7-8c3.3-2.6,6.5-5.2,9.6-7.9c3.1-2.7,6.1-5.6,8.8-8.7c5.5-6.2,10.3-13,14-20.4c3.8-7.4,6.5-15.3,8.5-23.3
					c1.9-8.1,3-16.4,3.5-24.7c0-0.1,0.1-0.2,0.3-0.2C290.9,420.1,291,420.2,291,420.3z"/>
			</g>
			<g>
				<g>
					<path class="st0" d="M233.6,296.1c8.7-1.7,20.3,22.2,27,36c11.8,24.3,20,41.2,16,60c-5.6,26.5-28.3,24-38,52
						c-10.3,30,13.4,39.5,3,73c-7.2,23.4-24.5,37.3-18,55c2.4,6.6,5.9,7.8,7,15c2.4,16.1-11.6,35.2-21,34c-3.5-0.4-5.6-3.5-14-20
						c-10.2-20-15.3-30-16-33c-6.8-27.9,21.3-38.7,22-71c0.7-30.7-24.5-33.6-24-63c0.5-29.2,25.5-32.1,41-76
						C230.9,323.4,224.8,297.9,233.6,296.1z"/>
					<path d="M210.5,622.2c-0.3,0-0.7,0-1-0.1c-3.9-0.5-6.1-3.6-14.8-20.5c-10.5-20.7-15.3-30.1-16.1-33.2
						c-3.7-15.1,2.6-25.4,9.4-36.3c6-9.8,12.3-20,12.6-34.9c0.3-15.2-5.6-23.2-12-31.7c-6-8.1-12.3-16.5-12-31.3
						c0.2-15.4,7.1-23.6,15.8-34c7.9-9.4,17.8-21.2,25.2-42.3c6.1-17.3,7.7-32.3,8.8-43.3c1.2-11.4,1.9-18.4,7-19.4
						c8.7-1.7,18.7,17.1,28.1,36.5c11.7,24.1,20.1,41.5,16.1,60.6c-2.9,13.9-10.4,20-18.3,26.4c-7.4,6-15.1,12.3-19.7,25.7
						c-5,14.4-1.9,24,1.4,34.1c3.4,10.6,7,21.6,1.6,38.9c-2.7,8.8-6.9,16.3-10.6,23c-6.4,11.5-11.4,20.7-7.5,31.4
						c1,2.7,2.1,4.4,3.3,6.1c1.6,2.4,3.1,4.7,3.8,9.1c1.6,11.3-4.3,23.2-10.5,29.6C217.5,620.2,213.7,622.2,210.5,622.2z
						 M233.6,296.1l0.2,1c-3.6,0.7-4.3,7.4-5.4,17.6c-1.1,11-2.7,26.2-8.9,43.7c-7.6,21.5-17.6,33.4-25.6,42.9
						c-8.5,10.1-15.1,18.1-15.4,32.8c-0.2,14.1,5.5,21.9,11.6,30.1c6.2,8.4,12.7,17.1,12.4,32.9c-0.3,15.5-7,26.4-12.9,35.9
						c-6.8,11-12.6,20.5-9.1,34.8c0.7,2.9,6.1,13.5,15.9,32.8c8,15.8,10.3,19.1,13.2,19.5c2.8,0.4,6.5-1.5,9.9-5
						c5.9-6,11.5-17.3,10-27.9c-0.6-4-1.9-6-3.5-8.3c-1.1-1.7-2.4-3.6-3.5-6.5c-4.2-11.6,1.2-21.5,7.6-33c3.6-6.6,7.7-14,10.4-22.6
						c5.2-16.7,1.7-27.4-1.6-37.7c-3.4-10.4-6.6-20.3-1.4-35.4c4.8-14,12.7-20.4,20.4-26.6c7.6-6.2,14.8-12.1,17.6-25.3
						c3.9-18.5-4-34.7-15.9-59.4c-6.3-12.9-18-37-25.9-35.5L233.6,296.1z"/>
				</g>
				<path d="M229.7,389.8c-5.7,7.4-10.7,15.5-14.3,24.1c-3.6,8.6-5.8,17.9-6.2,27.2c0,1.2-0.1,2.3-0.1,3.5l0.1,3.5
					c0,0.6,0,1.2,0.1,1.7l0.2,1.7c0.1,1.2,0.2,2.3,0.4,3.5c0.8,4.6,2,9.1,3.6,13.5c1.5,4.4,3.3,8.8,4.9,13.2
					c1.5,4.5,2.9,9.1,3.4,13.9c0.2,1.2,0.2,2.4,0.3,3.6l0.1,1.8c0,0.6,0,1.2-0.1,1.8l-0.2,3.6l-0.5,3.5c-0.8,4.7-2,9.4-4,13.8
					c-1.9,4.4-4.3,8.5-6.9,12.5c-2.6,4-5.3,7.8-7.4,11.9c-4.4,8.1-5.2,17.6-3.4,26.6c1.8,9,6.1,17.4,11.7,24.7
					c0.5,0.7,0.4,1.6-0.3,2.1c-0.7,0.5-1.6,0.4-2.1-0.3l0,0c-5.7-7.7-10.2-16.5-11.9-26c-0.4-2.4-0.7-4.8-0.8-7.2
					c-0.1-1.2,0-2.4,0-3.6l0.1-1.8l0.2-1.8c0.6-4.8,2.2-9.5,4.4-13.8c2.2-4.3,5-8.1,7.6-12c2.6-3.9,5-7.8,6.9-12.1
					c1.9-4.2,3.2-8.7,4-13.2l0.5-3.4l0.2-3.5c0-0.6,0.1-1.2,0.1-1.7l-0.1-1.7c-0.1-1.2,0-2.3-0.2-3.5c-0.9-9.2-4.9-17.9-7.9-26.8
					c-1.5-4.5-2.7-9.1-3.5-13.8c-0.2-1.2-0.3-2.4-0.4-3.5L208,450c0-0.6,0-1.2-0.1-1.8l-0.1-3.6c0-1.2,0.1-2.4,0.2-3.6
					c0.4-9.5,2.8-18.8,6.5-27.5c3.7-8.7,8.8-16.8,14.6-24.1c0.1-0.1,0.3-0.2,0.4,0C229.7,389.5,229.8,389.7,229.7,389.8z"/>
			</g>
			<path class="st1" d="M212.6,667.1c-16.6,0-30-13.4-30-30v-30h60v30C242.6,653.7,229.2,667.1,212.6,667.1z"/>
		</g>
		<g>
			<g>
				<path class="st0" d="M630.5,48.9H265.4c-8.1,0-14.7,6.6-14.7,14.7v142.1c0,8.1,6.6,14.7,14.7,14.7h365.1
					c8.1,0,14.7-6.6,14.7-14.7V63.6C645.2,55.5,638.6,48.9,630.5,48.9z"/>
				<path d="M630.5,221.4H265.4c-8.7,0-15.7-7-15.7-15.7V63.6c0-8.7,7-15.7,15.7-15.7h365.1c8.7,0,15.7,7,15.7,15.7v142.1
					C646.2,214.3,639.1,221.4,630.5,221.4z M265.4,49.9c-7.6,0-13.7,6.1-13.7,13.7v142.1c0,7.6,6.1,13.7,13.7,13.7h365.1
					c7.6,0,13.7-6.1,13.7-13.7V63.6c0-7.6-6.1-13.7-13.7-13.7H265.4z"/>
			</g>
			<g>
				<path d="M633.5,74H262.4c-0.6,0-1-0.4-1-1c0-0.6,0.4-1,1-1h371.1c0.6,0,1,0.4,1,1C634.5,73.5,634,74,633.5,74z"/>
				<path d="M276.9,60.2c0,2.1-1.7,3.8-3.8,3.8c-2.1,0-3.8-1.7-3.8-3.8s1.7-3.8,3.8-3.8C275.2,56.4,276.9,58.1,276.9,60.2z"/>
				<path d="M292,60.2c0,2.1-1.7,3.8-3.8,3.8c-2.1,0-3.8-1.7-3.8-3.8s1.7-3.8,3.8-3.8C290.3,56.4,292,58.1,292,60.2z"/>
				<circle cx="303.3" cy="60.2" r="3.8"/>
				<path d="M633.7,61.2h-21.2c-0.6,0-1-0.4-1-1c0-0.6,0.4-1,1-1h21.2c0.6,0,1,0.4,1,1C634.7,60.7,634.2,61.2,633.7,61.2z"/>
				<path d="M602.9,61.2h-245c-0.6,0-1-0.4-1-1c0-0.6,0.4-1,1-1h245c0.6,0,1,0.4,1,1C603.9,60.7,603.4,61.2,602.9,61.2z"/>
				<path d="M334.8,61.2h-18.7c-0.6,0-1-0.4-1-1c0-0.6,0.4-1,1-1h18.7c0.6,0,1,0.4,1,1C335.8,60.7,335.4,61.2,334.8,61.2z"/>
			</g>
			<g>
				<path d="M369.6,193H273c-0.6,0-1-0.4-1-1V95.4c0-0.6,0.4-1,1-1h96.6c0.6,0,1,0.4,1,1V192C370.6,192.6,370.1,193,369.6,193z
					 M274,191h94.6V96.4H274V191z"/>
				<g>
					<path d="M408.5,117.5h-21.1c-0.6,0-1-0.4-1-1V95.4c0-0.6,0.4-1,1-1h21.1c0.6,0,1,0.4,1,1v21.1C409.5,117,409,117.5,408.5,117.5
						z M388.4,115.5h19.1V96.4h-19.1V115.5z"/>
					<path d="M624,117.5h-201c-0.6,0-1-0.4-1-1V95.4c0-0.6,0.4-1,1-1h201c0.6,0,1,0.4,1,1v21.1C625,117,624.5,117.5,624,117.5z
						 M423.9,115.5h199V96.4h-199V115.5z"/>
				</g>
				<g>
					<path d="M408.5,155.2h-21.1c-0.6,0-1-0.4-1-1v-21.1c0-0.6,0.4-1,1-1h21.1c0.6,0,1,0.4,1,1v21.1
						C409.5,154.8,409,155.2,408.5,155.2z M388.4,153.2h19.1v-19.1h-19.1V153.2z"/>
					<path d="M624,155.2h-201c-0.6,0-1-0.4-1-1v-21.1c0-0.6,0.4-1,1-1h201c0.6,0,1,0.4,1,1v21.1C625,154.8,624.5,155.2,624,155.2z
						 M423.9,153.2h199v-19.1h-199V153.2z"/>
				</g>
				<g>
					<path d="M408.5,193h-21.1c-0.6,0-1-0.4-1-1v-21.1c0-0.6,0.4-1,1-1h21.1c0.6,0,1,0.4,1,1V192C409.5,192.6,409,193,408.5,193z
						 M388.4,191h19.1v-19.1h-19.1V191z"/>
					<path d="M624,193h-201c-0.6,0-1-0.4-1-1v-21.1c0-0.6,0.4-1,1-1h201c0.6,0,1,0.4,1,1V192C625,192.6,624.5,193,624,193z
						 M423.9,191h199v-19.1h-199V191z"/>
				</g>
			</g>
		</g>
		<g>
			<g>
				<g>
					<rect x="746.1" y="732.2" class="st0" width="22.6" height="26.6"/>
					<path d="M768.7,759.8h-22.6c-0.6,0-1-0.4-1-1v-26.6c0-0.6,0.4-1,1-1h22.6c0.6,0,1,0.4,1,1v26.6
						C769.7,759.4,769.3,759.8,768.7,759.8z M747.1,757.8h20.6v-24.6h-20.6V757.8z"/>
				</g>
				<g>
					
						<rect x="683" y="730.3" transform="matrix(0.9733 -0.2297 0.2297 0.9733 -152.249 179.4042)" class="st0" width="22.6" height="26.6"/>
					<path d="M686.4,760.1c-0.2,0-0.4-0.1-0.5-0.1c-0.2-0.1-0.4-0.4-0.4-0.6l-6.1-25.9c-0.1-0.5,0.2-1.1,0.7-1.2l22-5.2
						c0.5-0.1,1.1,0.2,1.2,0.7l6.1,25.9c0.1,0.5-0.2,1.1-0.7,1.2l-22,5.2C686.5,760.1,686.5,760.1,686.4,760.1z M681.5,734l5.6,23.9
						l20.1-4.7l-5.6-23.9L681.5,734z"/>
				</g>
				<path class="st1" d="M787.4,402.4c0,0,6.8,53.5,1.6,74.2c-5.2,20.8-17.3,212.6-17.3,264.5h-30.5l-13.8-245.2l-42.6,89
					c-3.1,7.2-3.9,15.2-2.2,22.9l25.2,133.3l-28.6,2l-47.7-146.4c-2.1-7.3-2.3-15-0.5-22.3l38.7-154.9L787.4,402.4z"/>
				<path class="st0" d="M728.8,491.5c-0.2,0-0.4-0.1-0.6-0.2c-0.4-0.3-0.5-1-0.2-1.4l15.8-19.7c0.3-0.4,1-0.5,1.4-0.2
					c0.4,0.3,0.5,1,0.2,1.4l-15.8,19.7C729.4,491.4,729.1,491.5,728.8,491.5z"/>
				<g>
					<g>
						<path class="st0" d="M770.2,752.9h-26.6l-3.9,20.1c-0.8,3.9,2,7.5,5.8,7.5h22.9c3.7,0,6.5-3.6,5.8-7.5L770.2,752.9z"/>
						<path d="M768.3,781.5h-22.9c-2,0-3.9-0.9-5.2-2.5c-1.4-1.7-2-4-1.5-6.2l3.9-20.1c0.1-0.5,0.5-0.8,1-0.8h26.6
							c0.5,0,0.9,0.3,1,0.8l3.9,20.1c0.4,2.2-0.1,4.5-1.5,6.2C772.3,780.6,770.4,781.5,768.3,781.5z M744.4,753.9l-3.8,19.3
							c-0.3,1.6,0.1,3.3,1.1,4.5c0.9,1.1,2.3,1.8,3.7,1.8h22.9c1.4,0,2.8-0.6,3.7-1.8c1-1.3,1.4-2.9,1.1-4.5l-3.8-19.3H744.4z"/>
					</g>
					<g>
						<path d="M770.2,775.1h-27.6c-0.6,0-1-0.4-1-1c0-0.6,0.4-1,1-1h27.6c0.6,0,1,0.4,1,1C771.2,774.6,770.7,775.1,770.2,775.1z"/>
					</g>
				</g>
				<g>
					<path class="st0" d="M709.1,747l7.3,24.2c1.3,4.2-1.3,8.6-5.1,8.8l-50,1.7c-3.1,0.1-4.3-4.7-1.7-6.7c8.1-6.1,19-14.6,21.9-18.6
						c6.9-9.3,13.8-1.2,13.8-1.2S700.3,747,709.1,747z"/>
					<path d="M661.2,782.6c-1.7,0-3.1-1.1-3.7-2.9c-0.6-1.8-0.4-4.2,1.5-5.6c11.8-8.8,19.5-15.4,21.7-18.4c2.3-3.1,4.9-4.8,7.7-4.9
						c3-0.1,5.5,1.6,6.7,2.7c1.7-2.3,6.5-7.6,13.9-7.6c0.4,0,0.8,0.3,1,0.7l7.3,24.2c0.8,2.5,0.3,5.3-1.1,7.3
						c-1.2,1.7-3,2.7-4.8,2.7l-50,1.7C661.3,782.6,661.3,782.6,661.2,782.6z M688.7,752.9c-0.1,0-0.1,0-0.2,0
						c-2.2,0.1-4.3,1.4-6.2,4.1c-3,4.1-13.7,12.5-22.1,18.8c-1.1,0.8-1.2,2.3-0.8,3.3c0.1,0.4,0.7,1.6,1.9,1.5l50-1.7
						c1.3,0,2.4-0.7,3.3-1.9c1.1-1.5,1.4-3.7,0.9-5.6l-7.1-23.4c-7.7,0.4-12.1,7.6-12.2,7.7c-0.2,0.3-0.5,0.5-0.8,0.5
						c-0.3,0-0.6-0.1-0.8-0.4C694.6,755.8,692,752.9,688.7,752.9z"/>
				</g>
				<g>
					<path class="st0" d="M666.8,774.1l45.3-2L666.8,774.1z"/>
					<path d="M666.8,775.1c-0.5,0-1-0.4-1-1c0-0.6,0.4-1,1-1l45.3-2c0.6,0,1,0.4,1,1c0,0.6-0.4,1-1,1L666.8,775.1
						C666.8,775.1,666.8,775.1,666.8,775.1z"/>
				</g>
			</g>
			<g>
				<g>
					<path class="st0" d="M735.7,236.4l24.6,16.7l-67.8-3.2l19.5-12.5l2.6-12.1c-3.5-0.5-8.2-0.9-9.8-2.8
						c-2.7-3.3-1.5-14.9-1.5-14.9l-2.9-2.3c-0.3-0.2-0.5-0.4-0.6-0.8c-0.1-0.3,0-0.7,0.1-1c2.5-4,4.8-5.3,6-9.3
						c1.1-4,0.6-3.4,4.9-12l25.8,0l0.1,19.3c0,0,4-2.6,6.5,0.9c1.8,2.5-2.2,10.9-5.5,10.9L735.7,236.4z"/>
					<path d="M760.3,254.2C760.3,254.2,760.3,254.2,760.3,254.2l-67.8-3.2c-0.4,0-0.8-0.3-0.9-0.7c-0.1-0.4,0.1-0.9,0.4-1.1
						l19.2-12.3l2.3-10.7c-0.2,0-0.3,0-0.5-0.1c-3.6-0.5-7.3-1-8.8-2.9c-2.6-3.2-2-12.5-1.7-15.1l-2.4-1.9c-0.5-0.3-0.9-0.8-1.1-1.3
						c-0.2-0.6-0.1-1.3,0.3-1.8c1-1.5,1.9-2.7,2.7-3.7c1.4-1.7,2.5-3,3.1-5.4c0.1-0.5,0.3-1,0.4-1.4c0.7-2.7,0.8-3.3,4.6-10.8
						c0.2-0.3,0.5-0.6,0.9-0.6l25.8,0c0,0,0,0,0,0c0.5,0,1,0.4,1,1l0.1,17.8c1.9-0.6,4.5-0.6,6.3,1.9c1.3,1.8,0.4,5.1-0.8,7.6
						c-0.5,1-2.2,4-4.5,4.7l-2,21.7l24.1,16.4c0.4,0.3,0.5,0.7,0.4,1.1C761.1,253.9,760.8,254.2,760.3,254.2z M695.7,249.1l61.1,2.9
						l-21.7-14.7c-0.3-0.2-0.5-0.6-0.4-0.9l2.1-23.1c0-0.5,0.5-0.9,1-0.9c1,0,2.6-1.6,3.7-3.8c1.3-2.5,1.5-4.8,1-5.5
						c-1.9-2.7-5-0.7-5.1-0.6c-0.3,0.2-0.7,0.2-1,0c-0.3-0.2-0.5-0.5-0.5-0.9l-0.1-18.3l-24.2,0c-3.4,6.8-3.5,7.4-4.2,9.8
						c-0.1,0.4-0.2,0.9-0.4,1.4c-0.8,2.8-2,4.3-3.5,6.1c-0.8,1-1.7,2.1-2.6,3.5c0,0.1,0,0.1,0,0.2c0,0.1,0.1,0.1,0.1,0.2
						c0.1,0,0.1,0.1,0.2,0.1l2.9,2.3c0.3,0.2,0.4,0.5,0.4,0.9c-0.3,3.1-0.7,11.7,1.3,14.2c1,1.3,4.6,1.8,7.5,2.2
						c0.6,0.1,1.1,0.1,1.6,0.2c0.3,0,0.5,0.2,0.7,0.4c0.2,0.2,0.2,0.5,0.2,0.8l-2.6,12.1c-0.1,0.3-0.2,0.5-0.4,0.6L695.7,249.1z"/>
				</g>
				<path d="M739.1,222c-5.2,1.7-10.3-2.3-11.2-3.1c-3.6-2.9-6.6-8-5.1-10.2c0.8-1.2,2.2-0.6,4.1-2c2.7-2.2,3.5-6.9,2-8.2
					c-1.2-1-3.1,1-5.1,0c-2.4-1.2-1.2-4.9-3.1-8.2c-3.1-5.4-10.2-2.1-15.7-7.8c-3.6-3.7-5.2-9.9-3.1-13.5c0.6-1,1.5-1.9,2.8-2.7
					c8.7-4.8,10,1.8,18.4,1.8c17.3,0.1,25.9,3.6,29,10.8c2.1,4.9-0.5,12.6-1.7,16.4c-0.4,1.3-1.3,3.6-2,7.2c-0.8,3.9-0.6,4.8-1,7.2
					C746.9,211.4,745.2,220,739.1,222z"/>
			</g>
			<g>
				<g>
					<path class="st0" d="M535.1,225.7l-6.8-29.5l-19-16.9c0,0-10.8,0.2,6.9,18.7c0,0-8.5,16.6-3,23.1c1.6,1.9,10.7,13.8,10.7,13.8
						L535.1,225.7z"/>
					<path d="M523.8,235.9c0,0-0.1,0-0.1,0c-0.3,0-0.5-0.2-0.7-0.4c-0.1-0.1-9.1-11.8-10.7-13.7c-5.3-6.3,1-20.4,2.6-23.6
						c-7.9-8.4-11-14.1-9.6-17.4c1-2.4,3.8-2.5,3.9-2.5c0.2,0,0.5,0.1,0.7,0.3l19,16.9c0.2,0.1,0.3,0.3,0.3,0.5l6.8,29.5
						c0.1,0.4,0,0.8-0.3,1l-11.2,9.2C524.3,235.8,524.1,235.9,523.8,235.9z M508.9,180.4c-0.5,0.1-1.4,0.4-1.8,1.2
						c-0.5,1.2-0.5,5.1,9.7,15.8c0.3,0.3,0.4,0.8,0.2,1.1c-0.1,0.2-8.1,16.1-3.1,22c1.4,1.6,8,10.2,10.1,13l9.9-8.2l-6.6-28.6
						L508.9,180.4z"/>
				</g>
				<g>
					<path class="st0" d="M782,250.2c-36.7-13.5-74.6-11-96.5-7.7l0-0.2c-43.3,3-59.1,35.4-92.6,30.5c-33.5-4.9-55.1-53.2-55.1-53.2
						l-20.7,13.8c12.8,37.4,52.2,102.4,89.6,104.4c17.7,0.9,36.5-7,51.4-15.5c0,30.8,5.6,33.4,0.3,54.4c-2.3,9.2-6.9,22.9,0,33.5
						c3.1,4.7,7.5,7.4,10.8,8.9c6.1,1.5,15.2,3.7,26.3,6.5c9.7,2.4,15.6,4,17,4.4c15.4,3.9,49.8,5.6,70.9-4.6l4.9,12.1
						c0,0,65.7-37.8,65.7-82.4C854.1,293.2,813.5,259.1,782,250.2z M798.5,389.7c-0.4-3.3-0.8-7.3-1.3-11.9
						c-3.6-34.5-2.9-35.8-4.3-49.6c9.5,5.1,18.4,13,19,24.6C812.8,366.6,806.2,379.5,798.5,389.7z"/>
					<path d="M788.4,438.4c-0.1,0-0.2,0-0.3-0.1c-0.3-0.1-0.5-0.3-0.6-0.6l-4.5-11.2c-21.2,9.7-54.5,8.3-70.6,4.3
						c-0.4-0.1-1.1-0.3-2-0.5c-2.8-0.7-7.9-2-15-3.8c-8.8-2.2-17.6-4.4-26.3-6.5c-0.1,0-0.1,0-0.2-0.1c-4.9-2.2-8.7-5.3-11.3-9.2
						c-6.5-10-3.2-22.4-0.8-31.5c0.3-1,0.5-1.9,0.7-2.7c3.1-12.3,2.4-18.3,1.3-27.3c-0.7-6.1-1.6-13.5-1.6-25.1
						c-18.8,10.6-35.8,15.6-50.5,14.8c-21.4-1.1-41.6-22-54.8-39.3c-17.7-23.2-30.1-49.2-35.7-65.8c-0.1-0.4,0-0.9,0.4-1.2
						l20.7-13.8c0.2-0.2,0.5-0.2,0.8-0.1c0.3,0.1,0.5,0.3,0.6,0.6c0.2,0.5,21.8,47.8,54.4,52.6c16.8,2.5,28.9-4.6,42.9-12.7
						c13.2-7.7,28.1-16.3,49.5-17.8c0.2,0,0.3,0,0.5,0.1c20.2-3,59.1-5.9,96.4,7.8c17.9,5,35.5,17,48.3,32.9
						c16,19.7,24.4,45,24.4,72.9c0,23.4-18,44.8-33.2,58.6c-16.3,14.9-32.8,24.5-33,24.6C788.7,438.4,788.6,438.4,788.4,438.4z
						 M783.5,424.3c0.1,0,0.2,0,0.4,0.1c0.3,0.1,0.5,0.3,0.6,0.6l4.5,11.1c8.2-5,64.2-40.4,64.2-80.9c0-57.6-37-94.2-71.3-103.9
						c0,0-0.1,0-0.1,0c-37.2-13.7-76.1-10.7-96-7.7c-0.2,0-0.4,0-0.6-0.1c-20.6,1.5-35.2,10-48.1,17.5c-13.7,8-26.7,15.5-44.2,13
						c-31.3-4.6-51.9-45.3-55.4-52.7l-19.1,12.7c12,34.3,50.9,101,88.5,103c14.6,0.8,31.8-4.4,50.9-15.4c0.3-0.2,0.7-0.2,1,0
						c0.3,0.2,0.5,0.5,0.5,0.9c0,12.4,0.9,20.3,1.6,26.6c1.1,9.3,1.8,15.4-1.4,28.1c-0.2,0.9-0.5,1.8-0.7,2.8
						c-2.3,8.7-5.4,20.7,0.6,29.9c2.3,3.5,5.8,6.4,10.3,8.5c8.6,2.1,17.4,4.2,26.2,6.4c7.2,1.8,12.3,3.1,15,3.8c1,0.3,1.6,0.4,2,0.5
						c16.7,4.2,50.4,5,70.2-4.6C783.2,424.3,783.3,424.3,783.5,424.3z M798.5,390.7c-0.1,0-0.2,0-0.3,0c-0.4-0.1-0.7-0.4-0.7-0.9
						l-0.2-1.8c-0.3-2.9-0.7-6.3-1.1-10.1c-2.3-21.8-2.8-30.3-3.3-37.2c-0.3-3.9-0.5-7.4-1-12.4c0-0.4,0.1-0.7,0.4-0.9
						c0.3-0.2,0.7-0.2,1,0c12.4,6.8,19,15.3,19.6,25.4c0.7,12-4,24.6-13.7,37.6C799.1,390.5,798.8,390.7,798.5,390.7z M794.2,330
						c0.4,4.1,0.6,7.1,0.8,10.6c0.5,6.8,1,15.4,3.3,37.1c0.4,3.5,0.7,6.6,1,9.3c8.4-11.8,12.4-23.3,11.8-34.2
						C810.5,343.9,804.9,336.2,794.2,330z"/>
				</g>
				<path d="M774.9,429.6c-0.5,0-0.9-0.4-1-0.9c-0.1-0.5,0.3-1.1,0.8-1.1c1.1-0.2,27.2-4.3,23.7-29.1c-0.1-0.5,0.3-1.1,0.9-1.1
					c0.5-0.1,1.1,0.3,1.1,0.9c3.7,26.8-25.1,31.3-25.4,31.3C775,429.6,774.9,429.6,774.9,429.6z"/>
				<path d="M706.4,406.6c-0.3,0-0.5-0.1-0.7-0.3c-23.3-23-28.3-58.9-28.3-59.2c-0.1-0.5,0.3-1,0.9-1.1c0.5-0.1,1,0.3,1.1,0.9
					c0,0.4,4.9,35.6,27.7,58.1c0.4,0.4,0.4,1,0,1.4C707,406.5,706.7,406.6,706.4,406.6z"/>
			</g>
		</g>
		<g>
			<g>
				<path class="st0" d="M574.1,510.9h-292c-11.4,0-19.3,9.2-17.6,20.6l33.6,231.7c1.7,11.4,12.2,20.6,23.6,20.6h292
					c11.4,0,19.3-9.2,17.6-20.6l-33.6-231.7C596.1,520.2,585.5,510.9,574.1,510.9z"/>
				<path d="M613.7,784.9h-292c-11.9,0-22.9-9.6-24.6-21.5l-33.6-231.7c-0.8-5.8,0.7-11.3,4.2-15.5c3.5-4.1,8.6-6.3,14.4-6.3h292
					c11.9,0,22.9,9.6,24.6,21.5l33.6,231.7c0.8,5.8-0.7,11.3-4.2,15.5C624.6,782.7,619.5,784.9,613.7,784.9z M282.1,511.9
					c-5.2,0-9.8,2-12.9,5.6c-3.2,3.7-4.5,8.6-3.8,13.9l33.6,231.7c1.6,10.9,11.7,19.8,22.6,19.8h292c5.2,0,9.8-2,12.9-5.6
					c3.2-3.7,4.5-8.6,3.8-13.9l-33.6-231.7c-1.6-10.9-11.7-19.8-22.6-19.8H282.1z"/>
			</g>
			<g>
				<path d="M583.3,545.8H282.8c-0.6,0-1-0.4-1-1c0-0.6,0.4-1,1-1h300.5c0.6,0,1,0.4,1,1C584.3,545.4,583.8,545.8,583.3,545.8z"/>
				<path d="M300.6,526.8c0.4,2.9-1.6,5.3-4.5,5.3c-2.9,0-5.6-2.4-6.1-5.3c-0.4-2.9,1.6-5.3,4.5-5.3
					C297.4,521.5,300.2,523.9,300.6,526.8z"/>
				<path d="M321.7,526.8c0.4,2.9-1.6,5.3-4.5,5.3c-2.9,0-5.6-2.4-6.1-5.3c-0.4-2.9,1.6-5.3,4.5-5.3
					C318.6,521.5,321.3,523.9,321.7,526.8z"/>
				<path d="M342.9,526.8c0.4,2.9-1.6,5.3-4.5,5.3c-2.9,0-5.6-2.4-6.1-5.3c-0.4-2.9,1.6-5.3,4.5-5.3
					C339.8,521.5,342.5,523.9,342.9,526.8z"/>
				<path d="M580.9,527.8h-29.8c-0.6,0-1-0.4-1-1s0.4-1,1-1h29.8c0.6,0,1,0.4,1,1S581.5,527.8,580.9,527.8z"/>
				<path d="M537.7,527.8H414.3c-0.6,0-1-0.4-1-1s0.4-1,1-1h123.4c0.6,0,1,0.4,1,1S538.3,527.8,537.7,527.8z"/>
				<path d="M381.9,527.8h-26.3c-0.6,0-1-0.4-1-1s0.4-1,1-1h26.3c0.6,0,1,0.4,1,1S382.4,527.8,381.9,527.8z"/>
			</g>
			<g>
				<path d="M493.9,653.7H305.6c-4.3,0-8.2-3.5-8.9-7.7l-10.9-75.1c-0.3-2.1,0.2-4.2,1.6-5.7c1.3-1.5,3.2-2.3,5.3-2.3H481
					c4.3,0,8.2,3.5,8.9,7.7l10.9,75.1c0.3,2.1-0.2,4.2-1.6,5.7C497.9,652.9,496.1,653.7,493.9,653.7z M292.7,564.8
					c-1.5,0-2.9,0.6-3.8,1.6c-0.9,1.1-1.3,2.5-1.1,4.1l10.9,75.1c0.5,3.3,3.6,6,6.9,6h188.3c1.5,0,2.9-0.6,3.8-1.6
					c0.9-1.1,1.3-2.5,1.1-4.1l-10.9-75.1c-0.5-3.3-3.6-6-6.9-6H292.7z"/>
				<path d="M509.6,761.6H321.3c-4.3,0-8.2-3.5-8.9-7.7l-11.7-80.4c-0.3-2.1,0.2-4.2,1.6-5.7c1.3-1.5,3.2-2.3,5.3-2.3h188.3
					c4.3,0,8.2,3.5,8.9,7.7l11.7,80.4c0.3,2.1-0.2,4.2-1.6,5.7C513.6,760.8,511.7,761.6,509.6,761.6z M307.6,667.5
					c-1.5,0-2.9,0.6-3.8,1.6c-0.9,1.1-1.3,2.5-1.1,4.1l11.7,80.4c0.5,3.3,3.6,6,6.9,6h188.3c1.5,0,2.9-0.6,3.8-1.6
					c0.9-1.1,1.3-2.5,1.1-4.1l-11.7-80.4c-0.5-3.3-3.6-6-6.9-6H307.6z"/>
				<path d="M608,761.6H536c-4.3,0-8.2-3.5-8.9-7.7l-26.6-183c-0.3-2.1,0.2-4.2,1.6-5.7c1.3-1.5,3.2-2.3,5.3-2.3h71.9
					c4.3,0,8.2,3.5,8.9,7.7l26.6,183c0.3,2.1-0.2,4.2-1.6,5.7C612,760.8,610.1,761.6,608,761.6z M507.5,564.8
					c-1.5,0-2.9,0.6-3.8,1.6c-0.9,1.1-1.3,2.5-1.1,4.1l26.6,183c0.5,3.3,3.6,6,6.9,6H608c1.5,0,2.9-0.6,3.8-1.6
					c0.9-1.1,1.3-2.5,1.1-4.1l-26.6-183c-0.5-3.3-3.6-6-6.9-6H507.5z"/>
			</g>
		</g>
		<g>
			<g>
				<path class="st0" d="M543.1,586.6H365.3c-8.6,0-14.5,7-13.3,15.6l25.3,174.7c1.2,8.6,9.2,15.6,17.8,15.6h177.8
					c8.6,0,14.5-7,13.3-15.6l-25.3-174.7C559.7,593.5,551.7,586.6,543.1,586.6z"/>
				<path d="M572.9,793.3H395.1c-9.1,0-17.5-7.4-18.8-16.4L351,602.3c-0.6-4.5,0.5-8.7,3.2-11.9c2.7-3.1,6.6-4.8,11-4.8h177.8
					c9.1,0,17.5,7.4,18.8,16.4l25.3,174.7c0.6,4.5-0.5,8.7-3.2,11.9C581.3,791.6,577.4,793.3,572.9,793.3z M365.3,587.6
					c-3.8,0-7.2,1.5-9.5,4.2c-2.4,2.7-3.3,6.4-2.8,10.3l25.3,174.7c1.2,8.1,8.7,14.7,16.8,14.7h177.8c3.8,0,7.2-1.5,9.5-4.2
					c2.4-2.7,3.3-6.4,2.8-10.3l-25.3-174.7c-1.2-8.1-8.7-14.7-16.8-14.7H365.3z"/>
			</g>
			<g>
				<path d="M550,613.1H365.8c-0.6,0-1-0.4-1-1c0-0.6,0.4-1,1-1H550c0.6,0,1,0.4,1,1C551,612.7,550.5,613.1,550,613.1z"/>
				<path d="M379.2,598.5c0.3,2.2-1.2,4-3.4,4c-2.2,0-4.2-1.8-4.6-4c-0.3-2.2,1.2-4,3.4-4C376.8,594.6,378.9,596.3,379.2,598.5z"/>
				<path d="M395.1,598.5c0.3,2.2-1.2,4-3.4,4s-4.2-1.8-4.6-4c-0.3-2.2,1.2-4,3.4-4C392.8,594.6,394.8,596.3,395.1,598.5z"/>
				<path d="M411.1,598.5c0.3,2.2-1.2,4-3.4,4s-4.2-1.8-4.6-4c-0.3-2.2,1.2-4,3.4-4C408.7,594.6,410.8,596.3,411.1,598.5z"/>
				<path d="M548.2,599.5h-22.5c-0.6,0-1-0.4-1-1s0.4-1,1-1h22.5c0.6,0,1,0.4,1,1S548.8,599.5,548.2,599.5z"/>
				<path d="M515.7,599.5h-50.7c-0.6,0-1-0.4-1-1s0.4-1,1-1h50.7c0.6,0,1,0.4,1,1S516.2,599.5,515.7,599.5z"/>
				<path d="M440.5,599.5h-19.8c-0.6,0-1-0.4-1-1s0.4-1,1-1h19.8c0.6,0,1,0.4,1,1S441,599.5,440.5,599.5z"/>
			</g>
			<path d="M556.3,729.9H390.2c-0.5,0-0.9-0.4-1-0.9l-14.7-101.6c0-0.3,0-0.6,0.2-0.8c0.2-0.2,0.5-0.3,0.8-0.3h166.1
				c0.5,0,0.9,0.4,1,0.9l14.7,101.6c0,0.3,0,0.6-0.2,0.8C556.9,729.7,556.6,729.9,556.3,729.9z M391.1,727.9h164.1l-14.4-99.6H376.6
				L391.1,727.9z"/>
			<path d="M486.1,758.4h-84.5c-4.7,0-8.7-3.5-9.4-8.1c-0.4-2.7,0.4-5.5,2.2-7.6c1.8-2.1,4.4-3.3,7.2-3.3h84.5
				c4.7,0,8.7,3.5,9.4,8.1c0,0,0,0,0,0c0.4,2.7-0.4,5.5-2.2,7.6C491.5,757.2,488.9,758.4,486.1,758.4z M401.7,741.5
				c-2.2,0-4.2,0.9-5.6,2.6c-1.4,1.6-2.1,3.8-1.7,6c0.5,3.6,3.7,6.4,7.4,6.4h84.5c2.2,0,4.2-0.9,5.6-2.6c1.4-1.6,2.1-3.8,1.7-6
				c-0.5-3.6-3.7-6.4-7.4-6.4H401.7z"/>
		</g>
		<g>
			<path d="M666.8,68.3c-0.6,0-1-0.4-1-1v-7.7c0-0.6,0.4-1,1-1c0.6,0,1,0.4,1,1v7.7C667.8,67.9,667.3,68.3,666.8,68.3z"/>
			<path d="M666.8,86.3c-0.6,0-1-0.4-1-1v-7.7c0-0.6,0.4-1,1-1c0.6,0,1,0.4,1,1v7.7C667.8,85.8,667.3,86.3,666.8,86.3z"/>
			<path d="M661.7,73.4h-7.7c-0.6,0-1-0.4-1-1c0-0.6,0.4-1,1-1h7.7c0.6,0,1,0.4,1,1C662.7,73,662.2,73.4,661.7,73.4z"/>
			<path d="M679.6,73.4h-7.7c-0.6,0-1-0.4-1-1c0-0.6,0.4-1,1-1h7.7c0.6,0,1,0.4,1,1C680.6,73,680.2,73.4,679.6,73.4z"/>
		</g>
		<path d="M395.3,418.5c-0.1,0-0.1,0-0.2,0c-0.3-0.1-0.6-0.3-0.7-0.6l-9.9-23.1c-0.2-0.5,0-1,0.5-1.3c0.5-0.2,1-0.1,1.3,0.4
			l7.7,13.1c14.5-27.3,5.8-64.7-19.5-82.6c-18.2-12.9-41.5-15.4-64-17.8c-1.8-0.2-3.5-0.4-5.3-0.6c-25.2-2.8-50.7-7.8-67.2-26
			c-11.7-12.8-16.8-31.4-13.3-48.3c2.1-10.6,8.9-23.5,21.3-28.3c0.5-0.2,1.1,0.1,1.3,0.6c0.2,0.5-0.1,1.1-0.6,1.3
			c-11.7,4.4-18.1,16.7-20.1,26.8c-3.3,16.4,1.6,34.2,12.8,46.6c16.1,17.7,41.2,22.6,66,25.3c1.8,0.2,3.5,0.4,5.3,0.6
			c22.8,2.4,46.3,4.9,65,18.1c26.5,18.8,35.3,58.5,19.2,86.7c-0.2,0.3-0.5,0.5-0.9,0.5c-0.3,0-0.7-0.2-0.9-0.5l-0.7-1.3l3.2,7.6
			l14.3-13.6c0.4-0.4,1-0.4,1.4,0c0.4,0.4,0.4,1,0,1.4L396,418.2C395.9,418.4,395.6,418.5,395.3,418.5z"/>
		<path d="M566.4,589.2c-0.3,0-0.7-0.2-0.8-0.5c-0.3-0.5-0.2-1.1,0.3-1.4c26.5-16.8,44.5-45.4,48.2-76.5c3.7-31.1-7-63.2-28.7-85.7
			c-7.4-7.7-16.1-14.4-24.6-20.8c-8.7-6.7-17.7-13.6-25.4-21.7c-13.7-14.5-23.4-36.4-16.9-55.3l-9.4,10.2c-0.3,0.4-0.9,0.4-1.3,0.1
			c-0.4-0.3-0.6-0.8-0.3-1.3c3.8-7.8,10.1-14.3,17.9-18.2c0.3-0.1,0.6-0.1,0.9,0c0.3,0.1,0.5,0.4,0.6,0.7l4.7,17.9
			c0.1,0.5-0.2,1.1-0.7,1.2c-0.5,0.1-1.1-0.2-1.2-0.7l-4.4-16.7c-0.8,0.4-1.6,0.9-2.3,1.4c0.1,0.2,0,0.5-0.1,0.8
			c-10.5,19-0.4,43.1,14.1,58.5c7.6,8,16.5,14.9,25.2,21.5c8.5,6.5,17.3,13.2,24.8,21c22.1,23,33.1,55.7,29.3,87.4
			c-3.8,31.7-22.2,60.8-49.1,77.9C566.7,589.1,566.6,589.2,566.4,589.2z"/>
		<g>
			<path d="M233.1,143.4c-0.2,0-0.3,0-0.5-0.1L118.5,76.8c-0.5-0.3-0.6-0.9-0.4-1.4c0.3-0.5,0.9-0.6,1.4-0.4l114.1,66.4
				c0.5,0.3,0.6,0.9,0.4,1.4C233.8,143.2,233.5,143.4,233.1,143.4z"/>
			<path d="M236.1,130.3c-0.3,0-0.6-0.1-0.8-0.4l-47.8-56.8c-0.4-0.4-0.3-1.1,0.1-1.4c0.4-0.4,1.1-0.3,1.4,0.1l47.8,56.8
				c0.4,0.4,0.3,1.1-0.1,1.4C236.6,130.3,236.4,130.3,236.1,130.3z"/>
		</g>
		<path d="M340.5,811.1c-0.1,0-0.2,0-0.3-0.1c-73.9-24.5-125.8-81.6-126.3-82.2c-0.4-0.4-0.3-1,0.1-1.4c0.4-0.4,1-0.3,1.4,0.1
			c0.5,0.6,52.1,57.3,125.4,81.6c0.5,0.2,0.8,0.7,0.6,1.3C341.3,810.8,340.9,811.1,340.5,811.1z"/>
		<path d="M293.6,807c-0.1,0-0.2,0-0.4-0.1c-47.1-17.9-83.2-53-83.5-53.3c-0.4-0.4-0.4-1,0-1.4c0.4-0.4,1-0.4,1.4,0
			c0.4,0.3,36.1,35.1,82.9,52.9c0.5,0.2,0.8,0.8,0.6,1.3C294.4,806.8,294,807,293.6,807z"/>
		<path d="M205.2,722.2c-3.4,0-6.2-2.8-6.2-6.2s2.8-6.2,6.2-6.2c3.4,0,6.2,2.8,6.2,6.2S208.6,722.2,205.2,722.2z M205.2,711.8
			c-2.3,0-4.2,1.9-4.2,4.2s1.9,4.2,4.2,4.2c2.3,0,4.2-1.9,4.2-4.2S207.5,711.8,205.2,711.8z"/>
		<g>
			<path d="M799.7,134.1c-0.4,0-0.8-0.2-0.9-0.6C772,71.8,687,43.2,686.2,42.9c-0.5-0.2-0.8-0.7-0.6-1.3c0.2-0.5,0.7-0.8,1.3-0.6
				c0.2,0.1,21.9,7.3,46.6,22.1c22.8,13.7,53.1,36.9,67.3,69.6c0.2,0.5,0,1.1-0.5,1.3C800,134.1,799.9,134.1,799.7,134.1z"/>
			<path d="M820.1,145.7c-0.4,0-0.8-0.3-1-0.7c-17-62-66.1-84.2-66.6-84.5c-0.5-0.2-0.7-0.8-0.5-1.3c0.2-0.5,0.8-0.7,1.3-0.5
				c0.5,0.2,50.5,22.8,67.8,85.8c0.1,0.5-0.2,1.1-0.7,1.2C820.2,145.7,820.2,145.7,820.1,145.7z"/>
		</g>
	</g>
</g>
</svg>
