<?xml version="1.0" encoding="utf-8"?>
<!-- Generator: Adobe Illustrator 26.1.0, SVG Export Plug-In . SVG Version: 6.00 Build 0)  -->
<svg version="1.1" xmlns="http://www.w3.org/2000/svg" xmlns:xlink="http://www.w3.org/1999/xlink" x="0px" y="0px"
	 viewBox="0 0 959 934.5" style="enable-background:new 0 0 959 934.5;" xml:space="preserve">
<style type="text/css">
	.st0{fill:#FFFFFF;}
	.st1{fill:#FEEF87;}
</style>
<g id="Background">
</g>
<g id="Illustration">
	<g id="Back_end_development">
		<g>
			<g>
				<g>
					<path d="M786.7,195.4l-628.6-24.3c-15,0-27.1,12.2-27.1,27.1v438.8c0,15,12.2,27.1,27.1,27.1l227.1-15.4l-29.2,106.4l-30.9,0.2
						c-9.6,0-17.4,7.8-17.4,17.4c0,9.6,7.8,17.4,17.4,17.4L583.6,778c9.6,0-8.4-113.9-8.4-113.9S801.7,195.4,786.7,195.4z"/>
					<g>
						<polygon class="st0" points="571.2,608.1 410.9,608.1 365.4,774.1 616.7,774.1 						"/>
						<path d="M616.7,775.1H365.4c-0.3,0-0.6-0.1-0.8-0.4c-0.2-0.2-0.3-0.6-0.2-0.9l45.5-166c0.1-0.4,0.5-0.7,1-0.7h160.3
							c0.5,0,0.8,0.3,1,0.7l45.5,166c0.1,0.3,0,0.6-0.2,0.9C617.3,774.9,617,775.1,616.7,775.1z M366.7,773.1h248.6l-44.9-164H411.7
							L366.7,773.1z"/>
					</g>
					<g>
						<path class="st0" d="M811.1,172.6H171c-14.1,0-25.6,11.5-25.6,25.6v438.8c0,14.1,11.5,25.6,25.6,25.6h640.1
							c14.1,0,25.6-11.5,25.6-25.6V198.2C836.7,184.1,825.2,172.6,811.1,172.6z"/>
						<path d="M811.1,663.6H171c-14.7,0-26.6-11.9-26.6-26.6V198.2c0-14.7,11.9-26.6,26.6-26.6h640.1c14.7,0,26.6,11.9,26.6,26.6
							v438.8C837.7,651.7,825.7,663.6,811.1,663.6z M171,173.6c-13.6,0-24.6,11-24.6,24.6v438.8c0,13.6,11,24.6,24.6,24.6h640.1
							c13.6,0,24.6-11,24.6-24.6V198.2c0-13.6-11-24.6-24.6-24.6H171z"/>
					</g>
					<g>
						<path class="st0" d="M644,757H338.1c-8.8,0-15.9,7.1-15.9,15.9c0,8.8,7.1,15.9,15.9,15.9H644c8.8,0,15.9-7.1,15.9-15.9
							C659.9,764.1,652.8,757,644,757z"/>
						<path d="M644,789.8H338.1c-9.3,0-16.9-7.6-16.9-16.9c0-9.3,7.6-16.9,16.9-16.9H644c9.3,0,16.9,7.6,16.9,16.9
							C660.9,782.2,653.3,789.8,644,789.8z M338.1,758c-8.2,0-14.9,6.7-14.9,14.9c0,8.2,6.7,14.9,14.9,14.9H644
							c8.2,0,14.9-6.7,14.9-14.9c0-8.2-6.7-14.9-14.9-14.9H338.1z"/>
					</g>
				</g>
				<g>
					<g>
						<path class="st0" d="M168.2,521.7v105.4c0,7,5.7,12.7,12.7,12.7h620.3c7,0,12.7-5.7,12.7-12.7V454.3L168.2,521.7z"/>
						<path d="M801.2,640.9H180.9c-7.6,0-13.7-6.2-13.7-13.7V521.7c0-0.6,0.4-1,1-1c0.6,0,1,0.4,1,1v105.4c0,6.5,5.3,11.7,11.7,11.7
							h620.3c6.5,0,11.7-5.3,11.7-11.7V454.3c0-0.6,0.4-1,1-1s1,0.4,1,1v172.9C814.9,634.7,808.8,640.9,801.2,640.9z"/>
					</g>
					<g>
						<path d="M168.2,257.5c-0.6,0-1-0.4-1-1v-27c0-0.6,0.4-1,1-1c0.6,0,1,0.4,1,1v27C169.2,257,168.7,257.5,168.2,257.5z"/>
					</g>
					<g>
						<path class="st0" d="M217.8,195.4h-36.9c-7,0-12.7,5.7-12.7,12.7L217.8,195.4z"/>
						<path d="M168.2,209.1c-0.6,0-1-0.4-1-1c0-7.6,6.2-13.7,13.7-13.7h36.9c0.6,0,1,0.4,1,1c0,0.6-0.4,1-1,1h-36.9
							c-6.5,0-11.7,5.3-11.7,11.7C169.2,208.6,168.7,209.1,168.2,209.1z"/>
					</g>
					<g>
						<path class="st0" d="M813.9,229.5v-21.4c0-7-5.7-12.7-12.7-12.7h-37.9L813.9,229.5z"/>
						<path d="M813.9,230.5c-0.6,0-1-0.4-1-1v-21.4c0-6.5-5.3-11.7-11.7-11.7h-37.9c-0.6,0-1-0.4-1-1c0-0.6,0.4-1,1-1h37.9
							c7.6,0,13.7,6.2,13.7,13.7v21.4C814.9,230.1,814.5,230.5,813.9,230.5z"/>
					</g>
					<g>
						<path d="M813.9,290.3c-0.6,0-1-0.4-1-1v-29.8c0-0.6,0.4-1,1-1s1,0.4,1,1v29.8C814.9,289.8,814.5,290.3,813.9,290.3z"/>
					</g>
				</g>
			</g>
			<g>
				<g>
					<rect x="246.2" y="54.2" class="st0" width="478.6" height="584"/>
					<path d="M724.9,639.2H246.2c-0.6,0-1-0.4-1-1v-584c0-0.6,0.4-1,1-1h478.6c0.6,0,1,0.4,1,1v584
						C725.9,638.8,725.4,639.2,724.9,639.2z M247.2,637.2h476.6v-582H247.2V637.2z"/>
				</g>
				<g>
					<path d="M512.6,104.7H281.6c-0.6,0-1-0.4-1-1V89.1c0-0.6,0.4-1,1-1h231.1c0.6,0,1,0.4,1,1v14.6
						C513.6,104.2,513.2,104.7,512.6,104.7z M282.6,102.7h229.1V90.1H282.6V102.7z"/>
					<path d="M629.4,130H359.3c-0.6,0-1-0.4-1-1v-15.2c0-0.6,0.4-1,1-1h270.1c0.6,0,1,0.4,1,1V129C630.4,129.6,629.9,130,629.4,130z
						 M360.3,128h268.1v-13.2H360.3V128z"/>
					<path d="M689.5,155H419.4c-0.6,0-1-0.4-1-1v-15.2c0-0.6,0.4-1,1-1h270.1c0.6,0,1,0.4,1,1V154C690.5,154.6,690.1,155,689.5,155z
						 M420.4,153h268.1v-13.2H420.4V153z"/>
					<path d="M657,180.1H517.4c-0.6,0-1-0.4-1-1v-15.2c0-0.6,0.4-1,1-1H657c0.6,0,1,0.4,1,1v15.2C658,179.6,657.5,180.1,657,180.1z
						 M518.4,178.1H656v-13.2H518.4V178.1z"/>
					<path d="M512.6,304.9H281.6c-0.6,0-1-0.4-1-1v-14.6c0-0.6,0.4-1,1-1h231.1c0.6,0,1,0.4,1,1v14.6
						C513.6,304.4,513.2,304.9,512.6,304.9z M282.6,302.9h229.1v-12.6H282.6V302.9z"/>
					<path d="M629.4,330.2H359.3c-0.6,0-1-0.4-1-1V314c0-0.6,0.4-1,1-1h270.1c0.6,0,1,0.4,1,1v15.2
						C630.4,329.7,629.9,330.2,629.4,330.2z M360.3,328.2h268.1V315H360.3V328.2z"/>
					<path d="M689.5,355.2H419.4c-0.6,0-1-0.4-1-1V339c0-0.6,0.4-1,1-1h270.1c0.6,0,1,0.4,1,1v15.2
						C690.5,354.7,690.1,355.2,689.5,355.2z M420.4,353.2h268.1V340H420.4V353.2z"/>
					<path d="M689.5,380.2H517.4c-0.6,0-1-0.4-1-1V364c0-0.6,0.4-1,1-1h172.2c0.6,0,1,0.4,1,1v15.2
						C690.5,379.8,690.1,380.2,689.5,380.2z M518.4,378.2h170.2V365H518.4V378.2z"/>
					<path d="M629.4,205.1H359.3c-0.6,0-1-0.4-1-1v-15.2c0-0.6,0.4-1,1-1h270.1c0.6,0,1,0.4,1,1v15.2
						C630.4,204.6,629.9,205.1,629.4,205.1z M360.3,203.1h268.1v-13.2H360.3V203.1z"/>
					<path d="M689.5,230.1H419.4c-0.6,0-1-0.4-1-1v-15.2c0-0.6,0.4-1,1-1h270.1c0.6,0,1,0.4,1,1v15.2
						C690.5,229.6,690.1,230.1,689.5,230.1z M420.4,228.1h268.1v-13.2H420.4V228.1z"/>
					<path d="M624.4,280.1h-107c-0.6,0-1-0.4-1-1V264c0-0.6,0.4-1,1-1h107c0.6,0,1,0.4,1,1v15.2
						C625.4,279.7,624.9,280.1,624.4,280.1z M518.4,278.1h105V265h-105V278.1z"/>
					<path d="M689.5,255.1H517.4c-0.6,0-1-0.4-1-1v-15.2c0-0.6,0.4-1,1-1h172.2c0.6,0,1,0.4,1,1v15.2
						C690.5,254.7,690.1,255.1,689.5,255.1z M518.4,253.1h170.2v-13.2H518.4V253.1z"/>
					<path d="M512.6,404.9H281.6c-0.6,0-1-0.4-1-1v-14.6c0-0.6,0.4-1,1-1h231.1c0.6,0,1,0.4,1,1v14.6
						C513.6,404.5,513.2,404.9,512.6,404.9z M282.6,402.9h229.1v-12.6H282.6V402.9z"/>
					<path d="M629.4,430.3H359.3c-0.6,0-1-0.4-1-1v-15.2c0-0.6,0.4-1,1-1h270.1c0.6,0,1,0.4,1,1v15.2
						C630.4,429.8,629.9,430.3,629.4,430.3z M360.3,428.3h268.1v-13.2H360.3V428.3z"/>
					<path d="M680.8,455.3H419.4c-0.6,0-1-0.4-1-1v-15.2c0-0.6,0.4-1,1-1h261.4c0.6,0,1,0.4,1,1v15.2
						C681.8,454.8,681.4,455.3,680.8,455.3z M420.4,453.3h259.4v-13.2H420.4V453.3z"/>
					<path d="M689.5,480.3H517.4c-0.6,0-1-0.4-1-1v-15.2c0-0.6,0.4-1,1-1h172.2c0.6,0,1,0.4,1,1v15.2
						C690.5,479.8,690.1,480.3,689.5,480.3z M518.4,478.3h170.2v-13.2H518.4V478.3z"/>
					<path d="M565.4,605.4H419.4c-0.6,0-1-0.4-1-1v-15.2c0-0.6,0.4-1,1-1h145.9c0.6,0,1,0.4,1,1v15.2
						C566.4,604.9,565.9,605.4,565.4,605.4z M420.4,603.4h143.9v-13.2H420.4V603.4z"/>
					<path d="M629.4,505.3H359.3c-0.6,0-1-0.4-1-1v-15.2c0-0.6,0.4-1,1-1h270.1c0.6,0,1,0.4,1,1v15.2
						C630.4,504.9,629.9,505.3,629.4,505.3z M360.3,503.3h268.1v-13.2H360.3V503.3z"/>
					<path d="M689.5,530.3H419.4c-0.6,0-1-0.4-1-1v-15.2c0-0.6,0.4-1,1-1h270.1c0.6,0,1,0.4,1,1v15.2
						C690.5,529.9,690.1,530.3,689.5,530.3z M420.4,528.3h268.1v-13.2H420.4V528.3z"/>
					<path d="M689.5,580.4H517.4c-0.6,0-1-0.4-1-1v-15.2c0-0.6,0.4-1,1-1h172.2c0.6,0,1,0.4,1,1v15.2
						C690.5,579.9,690.1,580.4,689.5,580.4z M518.4,578.4h170.2v-13.2H518.4V578.4z"/>
					<path d="M615.9,555.4h-98.6c-0.6,0-1-0.4-1-1v-15.2c0-0.6,0.4-1,1-1h98.6c0.6,0,1,0.4,1,1v15.2
						C616.9,554.9,616.5,555.4,615.9,555.4z M518.4,553.4h96.6v-13.2h-96.6V553.4z"/>
				</g>
			</g>
		</g>
		<g>
			<path d="M593.8,817.2H587c-0.6,0-1-0.4-1-1c0-0.6,0.4-1,1-1h6.8c0.6,0,1,0.4,1,1C594.8,816.8,594.3,817.2,593.8,817.2z"/>
			<path d="M574.7,817.2H538c-0.6,0-1-0.4-1-1c0-0.6,0.4-1,1-1h36.7c0.6,0,1,0.4,1,1C575.7,816.8,575.3,817.2,574.7,817.2z"/>
			<path d="M520.9,817.2H291.5c-7.9,0-14.4-6.4-14.4-14.4V698.9c0-6.8-5.6-12.4-12.4-12.4H117.7c-7.9,0-14.4-6.4-14.4-14.4v-57.3
				c0-0.6,0.4-1,1-1c0.6,0,1,0.4,1,1v57.3c0,6.8,5.6,12.4,12.4,12.4h147.1c7.9,0,14.4,6.4,14.4,14.4v103.9c0,6.8,5.6,12.4,12.4,12.4
				h229.4c0.6,0,1,0.4,1,1C521.9,816.8,521.5,817.2,520.9,817.2z"/>
			<path d="M104.3,592.4c-0.6,0-1-0.4-1-1v-11.9c0-0.6,0.4-1,1-1c0.6,0,1,0.4,1,1v11.9C105.3,591.9,104.8,592.4,104.3,592.4z"/>
			<path d="M104.3,567.6c-0.6,0-1-0.4-1-1v-25c0-0.6,0.4-1,1-1c0.6,0,1,0.4,1,1v25C105.3,567.2,104.8,567.6,104.3,567.6z"/>
		</g>
		<g>
			<g>
				<g>
					<g>
						<path class="st0" d="M334.4,814.5c2.2-2.2,14.6-40.9,14.6-40.9l24.6,17.5l-27,36.2L334.4,814.5z"/>
						<path d="M346.7,828.4c-0.3,0-0.5-0.1-0.7-0.3l-12.2-12.9c-0.4-0.4-0.4-1,0-1.4c1.5-1.7,9.6-25.7,14.4-40.5
							c0.1-0.3,0.3-0.5,0.6-0.6c0.3-0.1,0.6-0.1,0.9,0.1l24.6,17.5c0.2,0.2,0.4,0.4,0.4,0.7c0,0.3,0,0.5-0.2,0.8l-27,36.2
							C347.3,828.3,347,828.4,346.7,828.4C346.7,828.4,346.7,828.4,346.7,828.4z M335.7,814.4l10.9,11.5l25.6-34.4l-22.6-16.2
							C347,783.3,338.5,809.1,335.7,814.4z"/>
					</g>
					<g>
						<path d="M378.7,863.5l-16.3-0.1c-10.8-0.1-20.9-5.6-26.8-14.6l-16.2-25.6c-4.5-7.1-2-16.4,5.4-20.4c6.7-3.6,13.8-7.1,15.5-6.9
							c3.4,0.3,4.7,16.2,4.7,16.2l14.6,0.6c0,0,7.2,29.9,13.5,33.3c4.6,2.5,7.8,6.1,10,9.4C385.4,858.9,382.9,863.5,378.7,863.5z"/>
						<path class="st0" d="M377.1,858.1c0,0-0.1,0-0.2,0l-22.4-3.4c-5.3-0.8-10-3.9-12.7-8.5l-19.8-33c-0.3-0.5-0.1-1.1,0.3-1.4
							c0.5-0.3,1.1-0.1,1.4,0.3l19.8,33c2.5,4.1,6.6,6.9,11.3,7.6l22.4,3.4c0.5,0.1,0.9,0.6,0.8,1.1
							C378,857.7,377.6,858.1,377.1,858.1z"/>
						<path class="st0" d="M349.5,833.3c-0.4,0-0.8-0.3-1-0.7c-0.1-0.5,0.2-1.1,0.7-1.2l12.5-3.4c0.5-0.1,1.1,0.2,1.2,0.7
							c0.1,0.5-0.2,1.1-0.7,1.2l-12.5,3.4C349.7,833.2,349.6,833.3,349.5,833.3z"/>
						<path class="st0" d="M356,839.7c-0.5,0-0.9-0.3-1-0.8c-0.1-0.5,0.2-1.1,0.7-1.2l8.4-2c0.5-0.1,1.1,0.2,1.2,0.7
							c0.1,0.5-0.2,1.1-0.7,1.2l-8.4,2C356.1,839.6,356.1,839.7,356,839.7z"/>
					</g>
					<g>
						<polygon class="st0" points="418.3,807.1 446.9,835.8 462,830.3 435.7,793.6 						"/>
						<path d="M446.9,836.8c-0.3,0-0.5-0.1-0.7-0.3l-28.5-28.7c-0.2-0.2-0.3-0.5-0.3-0.8c0-0.3,0.2-0.5,0.4-0.7l17.4-13.6
							c0.2-0.2,0.5-0.2,0.8-0.2c0.3,0,0.5,0.2,0.7,0.4l26.3,36.7c0.2,0.3,0.2,0.6,0.1,0.9c-0.1,0.3-0.3,0.5-0.6,0.6l-15.1,5.6
							C447.1,836.8,447,836.8,446.9,836.8z M419.8,807.2l27.3,27.4l13.3-4.9L435.5,795L419.8,807.2z"/>
					</g>
					<g>
						<path d="M437.8,831.3c0,0-1.4,12.2,1,23c1.2,5.7,6.4,9.8,12.3,9.8h70c5,0,7.3-6.2,3.4-9.5c-12.5-10.4-35.4-26.4-63.5-31
							l-7.9,11L437.8,831.3z"/>
						<path class="st0" d="M517.8,855.5h-72.6c-0.6,0-1-0.4-1-1c0-0.6,0.4-1,1-1h72.6c0.6,0,1,0.4,1,1
							C518.8,855,518.4,855.5,517.8,855.5z"/>
						<path class="st0" d="M477.3,842.6c-0.1,0-0.3,0-0.4-0.1c-0.5-0.2-0.8-0.8-0.5-1.3l3.8-9.3c0.2-0.5,0.8-0.8,1.3-0.5
							c0.5,0.2,0.8,0.8,0.5,1.3l-3.8,9.3C478.1,842.3,477.7,842.6,477.3,842.6z"/>
						<path class="st0" d="M489.9,845c-0.1,0-0.2,0-0.3-0.1c-0.5-0.2-0.8-0.7-0.6-1.3l2.8-8.4c0.2-0.5,0.7-0.8,1.3-0.6
							c0.5,0.2,0.8,0.7,0.6,1.3l-2.8,8.4C490.8,844.8,490.4,845,489.9,845z"/>
					</g>
					<path class="st1" d="M267.2,606.5c0,0,130.4-15.2,169.2,18.4c38.8,33.6-61.2,178-61.2,178l-31.6-23.5l30-102L253,643.1
						L267.2,606.5z"/>
					<path class="st1" d="M195.5,672.9c18.9,6,52.8,13.8,100.2,13.1c13.5-0.2,25.9,7.3,32,19.2c14,27.5,44.4,77.1,93.9,109.2
						l23.6-12.7L384.9,666c-5.5-12.4-15.8-22-28.5-26.7l-119.5-43.8c0,0-37.1-10.4-55.2,22.7c-3.2,5.9-5.5,11.2-6.9,16
						C169.8,650.6,179.2,667.8,195.5,672.9z"/>
					<path class="st0" d="M412.2,728.4c-0.4,0-0.7-0.2-0.9-0.6L384,666.4c-5.4-12.1-15.6-21.6-28-26.2l-57.2-21
						c-0.5-0.2-0.8-0.8-0.6-1.3c0.2-0.5,0.8-0.8,1.3-0.6l57.2,21c12.9,4.7,23.5,14.7,29.1,27.2l27.3,61.4c0.2,0.5,0,1.1-0.5,1.3
						C412.4,728.4,412.3,728.4,412.2,728.4z"/>
					<path class="st0" d="M380.3,781.1c-0.3,0-0.5-0.1-0.7-0.3c-5.5-5.7-10.9-11.8-16-18.2c-0.3-0.4-0.3-1.1,0.1-1.4
						c0.4-0.3,1.1-0.3,1.4,0.1c5.1,6.3,10.5,12.4,15.9,18.1c0.4,0.4,0.4,1,0,1.4C380.8,781,380.6,781.1,380.3,781.1z"/>
					<path class="st0" d="M364.4,763c-0.3,0-0.6-0.1-0.8-0.4c-2.5-3.1-5.1-6.4-7.5-9.7c-0.3-0.4-0.2-1.1,0.2-1.4
						c0.4-0.3,1.1-0.2,1.4,0.2c2.4,3.3,4.9,6.5,7.5,9.6c0.3,0.4,0.3,1.1-0.1,1.4C364.8,762.9,364.6,763,364.4,763z"/>
				</g>
				<g>
					<path d="M246.2,428.3c0,0,15.5-18.9,31.5-9.5c9.3,5.5,17.4,14.8,30.1,20.6c5.3,2.4,8.4,3,8.4,3s-8.8,5.3-33.8,6.2
						C257.1,449.4,246.2,428.3,246.2,428.3z"/>
					<g>
						<path d="M290.5,411.8c-12.8-2.1-20.5-14.7-22.9-21.7c-1.6-4.8-0.8-7.3-0.3-8.5c1.7-3.8,6.1-5.3,7.8-5.9
							c16.2-5.8,16.8-18.1,29.5-19.5c10.3-1.1,10.5,6.9,27.5,8.4c3.5,0.3,8.7,0.4,14.1,3.9c2.5,1.6,6.1,4,6.6,7.2
							c0.5,3.2-2,8.1-35.4,25.9C298.3,411.8,294.8,412.5,290.5,411.8z"/>
						<g>
							<path class="st0" d="M324.1,389.6c0,0-18.7-6.8-25.2-6.5c-6.5,0.4-6.2,16.9-6.2,16.9s-6.7-7.6-10.6-2.7
								c-4,4.9,6.4,10.4,6.4,10.4l-32.8,30l30.4,7.9l15.4-16.8c0,0,5.2,6,9.9,4.7c4.7-1.2,11.6-13.6,11.6-13.6
								c2.6-0.4,4.2-2.9,3.5-5.4l-1.2-4.5c-0.7-2.7-0.8-5.6-0.1-8.3c0.9-3.6,0.6-7.5-0.7-11L324.1,389.6z"/>
							<path d="M286.1,446.6c-0.1,0-0.2,0-0.3,0l-30.4-7.9c-0.4-0.1-0.6-0.4-0.7-0.7c-0.1-0.4,0-0.7,0.3-1l31.8-29.1
								c-2-1.3-5.9-4-6.5-7.2c-0.3-1.4,0.1-2.8,1-4c1.1-1.3,2.4-2,3.9-2c2.4,0,4.9,1.6,6.5,3c0.2-4.9,1.3-15.2,7.1-15.6
								c6.6-0.4,24.8,6.2,25.6,6.5c0.3,0.1,0.5,0.3,0.6,0.6l0.4,1.2c1.4,3.7,1.7,7.7,0.7,11.6c-0.6,2.6-0.6,5.3,0.1,7.8l1.2,4.5
								c0.4,1.5,0.1,3-0.7,4.3c-0.7,1.1-1.9,1.9-3.2,2.3c-1.4,2.4-7.3,12.5-12,13.7c-4.2,1.1-8.4-2.5-10.1-4.2l-14.7,16
								C286.7,446.5,286.4,446.6,286.1,446.6z M257.8,437.2l28,7.3l15-16.4c0.2-0.2,0.5-0.3,0.8-0.3c0.3,0,0.6,0.1,0.7,0.3
								c0,0.1,4.8,5.5,8.9,4.4c3.5-0.9,9.1-9.8,11-13.1c0.1-0.3,0.4-0.5,0.7-0.5c0.9-0.1,1.8-0.7,2.3-1.5c0.5-0.8,0.7-1.8,0.4-2.7
								l-1.2-4.5c-0.8-2.9-0.8-5.9-0.1-8.8c0.8-3.5,0.6-7.1-0.6-10.4l-0.3-0.7c-2.8-1-18.6-6.6-24.3-6.3c-4.5,0.3-5.4,11.9-5.3,15.9
								c0,0.4-0.2,0.8-0.6,0.9c-0.4,0.2-0.8,0-1.1-0.3c-1-1.1-4.2-4.1-6.7-4c-0.9,0-1.7,0.4-2.4,1.3c-0.6,0.7-0.8,1.5-0.6,2.3
								c0.6,2.8,5,5.7,6.7,6.6c0.3,0.2,0.5,0.4,0.5,0.8c0,0.3-0.1,0.6-0.3,0.9L257.8,437.2z"/>
						</g>
						<path d="M301.6,429.8c-0.3,0-0.6-0.1-0.8-0.3c-4.2-4.9-5.1-9.5-5.1-9.7c-0.1-0.5,0.3-1.1,0.8-1.2c0.5-0.1,1.1,0.3,1.2,0.8
							c0,0.1,0.9,4.4,4.7,8.8c0.4,0.4,0.3,1.1-0.1,1.4C302,429.7,301.8,429.8,301.6,429.8z"/>
					</g>
					<g>
						<path class="st0" d="M449.2,410.2h-15.9c0,0-1.4,50.5-49.8,56.1c-26.5,3.1-46.1-3-58.4-9.2c-2.5-1.6-5.3-3.2-8.4-4.8
							c-1.2-0.8-2.2-1.5-3.1-2.2l2.4-7.8c0,0-7.3,5.8-36.6-11c-13.6-7.8-16.8-9.1-26.5-8.5c-58.6,3.5-42.4,32.7-42.4,32.7
							c-24.9,26.3-42,44.7-53.2,70.6c-13,30-32.1,101.2,4.5,126.2c29,19.8,80.5-0.7,80.5-0.7c36.7-13.6,58.7-48.8,58.7-48.8
							s-15.9,1.6-16.9-37c-0.3-12.7,5-28,12.3-43c16.6,10.4,45.7,18.8,92.6,3.3C472.7,498.4,449.2,410.2,449.2,410.2z"/>
						<path d="M195,662c-11.8,0-23.9-2.2-33.6-8.9c-16.1-11-23.5-32.5-21.3-62.1c1.8-24.4,9.7-49.7,16.4-65.3
							c11.5-26.5,29.8-45.9,52.9-70.4c-1-1.9-1.8-5.7-1.9-7.9c-0.3-8.5,5.3-23.2,45.4-25.6c9.9-0.6,13.2,0.8,27,8.7
							c28,16,35.4,11.1,35.5,11.1c0.3-0.2,0.8-0.3,1.2,0c0.3,0.3,0.5,0.7,0.4,1.1l-2.2,7.1c0.8,0.6,1.6,1.2,2.5,1.7
							c2.8,1.5,5.6,3.1,8.3,4.8c11.6,5.8,31.2,12.1,57.8,9c19.7-2.3,33.9-12.2,42.2-29.5c6.3-13,6.7-25.5,6.7-25.6c0-0.5,0.5-1,1-1
							h15.9c0.5,0,0.8,0.3,1,0.7c0.1,0.2,5.9,22.6,1.3,48c-4.2,23.5-18.5,54.7-62.1,69.2c-46.7,15.5-75.9,7.2-92.5-2.8
							c-8.1,16.7-12,30.6-11.7,41.5c0.6,21.1,5.6,29.8,9.7,33.4c3.3,2.9,6.1,2.6,6.1,2.6c0.4,0,0.7,0.1,0.9,0.5
							c0.2,0.3,0.2,0.7,0,1.1c-0.2,0.4-22.5,35.7-59.2,49.2C241.4,653.1,218.7,662,195,662z M256.6,423.7c-1.1,0-2.2,0-3.5,0.1
							c-22.3,1.3-36.7,6.8-41.6,15.6c-4.2,7.7,0,15.5,0.1,15.6c0.2,0.4,0.2,0.9-0.1,1.2c-23.2,24.6-41.6,44-53,70.3
							c-11.4,26.2-32.8,99.8,4.1,125c28.3,19.3,79-0.6,79.5-0.8c31.9-11.8,52.8-40.4,57.3-47c-1.4-0.3-3.6-1-5.8-3
							c-4.4-3.9-9.8-13.1-10.4-34.9c-0.3-11.4,3.9-26,12.4-43.4c0.1-0.3,0.4-0.4,0.6-0.5c0.3-0.1,0.6,0,0.8,0.1
							c16,10,44.9,18.7,91.7,3.2c34.3-11.4,54.8-34.1,60.8-67.5c4.1-22.4-0.1-42.4-1.1-46.5h-14.1c-0.2,3.2-1.3,14-6.8,25.4
							c-5.9,12.4-18.4,27.8-43.8,30.7c-27.1,3.2-47-3.3-59-9.3c-2.8-1.7-5.6-3.3-8.4-4.8c-1.2-0.8-2.3-1.5-3.3-2.3
							c-0.3-0.3-0.5-0.7-0.4-1.1l1.8-5.8c-3.9,0.8-13.9,0.6-35.5-11.8C267.3,425.5,263.5,423.7,256.6,423.7z"/>
					</g>
					<g>
						<path class="st0" d="M437.5,400.9c0.7-1.3,3.9-5.2,5.4-6.3l15.7-14.6c0,0,2,7-0.4,11.2c4.8,0.2,8.6,1,8.6,1s7.2-6.3,8.9-7.4
							c1.8-1.1,4.1-2.8,6.5-2.8c2.4,0,4.8,1.9,4.8,1.9l-13.8,17.4l-25,6.9l-5.2,43.1L431.6,436L437.5,400.9z"/>
						<path d="M443,452.3c-0.3,0-0.6-0.1-0.8-0.4l-11.4-15.3c-0.2-0.2-0.2-0.5-0.2-0.8l5.9-35.1c0-0.1,0-0.2,0.1-0.3
							c0.7-1.4,4-5.3,5.6-6.6l15.6-14.5c0.3-0.2,0.6-0.3,0.9-0.2c0.3,0.1,0.6,0.4,0.7,0.7c0.1,0.3,1.7,6.1,0.1,10.5
							c3.2,0.2,5.8,0.6,6.8,0.8c1.5-1.3,7.1-6.2,8.7-7.2c0.2-0.1,0.5-0.3,0.8-0.5c1.7-1.1,3.9-2.5,6.3-2.4c2.7,0,5.3,2,5.4,2.1
							c0.2,0.2,0.3,0.4,0.4,0.7c0,0.3,0,0.5-0.2,0.7L474,401.9c-0.1,0.2-0.3,0.3-0.5,0.3l-24.4,6.7l-5.1,42.4c0,0.4-0.3,0.7-0.7,0.8
							C443.2,452.3,443.1,452.3,443,452.3z M432.7,435.7l9.7,12.9l4.9-40.6c0-0.4,0.3-0.7,0.7-0.8l24.7-6.8l12.9-16.3
							c-0.8-0.5-2.1-1.1-3.3-1.1c-1.7,0-3.7,1.2-5.2,2.1c-0.3,0.2-0.5,0.3-0.8,0.5c-1.4,0.9-6.8,5.6-8.8,7.3
							c-0.2,0.2-0.6,0.3-0.9,0.2c0,0-3.8-0.8-8.4-1c-0.4,0-0.7-0.2-0.8-0.5c-0.2-0.3-0.2-0.7,0-1c1.5-2.6,1.1-6.5,0.7-8.7
							l-14.4,13.4c0,0-0.1,0-0.1,0.1c-1.3,1-4.3,4.5-5,5.8L432.7,435.7z"/>
					</g>
					<g>
						<g>
							<path class="st0" d="M377.3,583.2c0.9-0.5,8.8-12.8,17.5-15.3c8.7-2.6,27.6,16.5,27.6,16.5L377.3,583.2z"/>
							<path d="M422.4,585.4C422.4,585.4,422.4,585.4,422.4,585.4l-45.1-1.2c-0.4,0-0.8-0.3-0.9-0.7c-0.1-0.4,0.1-0.8,0.4-1.1
								c0.2-0.2,0.7-0.8,1.2-1.4c2.8-3.6,9.4-11.9,16.6-14c9.2-2.7,27.8,16,28.6,16.8c0.3,0.3,0.4,0.7,0.2,1.1
								C423.2,585.2,422.8,585.4,422.4,585.4z M379.5,582.3l40.4,1.1c-6.2-5.9-18.8-16.3-24.8-14.5
								C388.5,570.8,382.2,578.8,379.5,582.3C379.5,582.2,379.5,582.3,379.5,582.3z"/>
						</g>
						<g>
							<path class="st0" d="M285.2,471.1c1.5,11.5,5,26.1,13.3,41.1c26.6,47.9,80,59.5,90.5,61.6l-10.6,11.8
								c0,0-113.4,18.6-146.2-85c0,0-12.5-38.7,15.3-48.2c5.8-2,13.4-3.1,20.6-0.3C280.8,456.9,284.7,469.4,285.2,471.1z"/>
							<path d="M358.3,587.8c-11,0-25.5-1-40.9-5c-29.8-7.6-69-28-86.1-82c-0.1-0.4-12.5-39.7,15.9-49.5c5.4-1.8,13.4-3.4,21.3-0.3
								c12.7,4.9,16.9,17.3,17.6,19.7c0,0.1,0,0.1,0,0.2c1.9,14.6,6.3,28.4,13.2,40.8c25.1,45.2,75.1,58.2,89.8,61.1
								c0.4,0.1,0.6,0.3,0.8,0.7c0.1,0.3,0,0.7-0.2,1l-10.6,11.8c-0.2,0.2-0.4,0.3-0.6,0.3C378.5,586.5,370.5,587.8,358.3,587.8z
								 M258.9,451.4c-4.2,0-8,0.9-11,2c-26.5,9.1-14.8,46.6-14.6,47c16.8,53.1,55.4,73.1,84.7,80.6c30,7.7,56.7,4.2,60,3.7
								l9.1-10.2c-16.8-3.6-64.8-17.4-89.5-61.7c-7-12.6-11.5-26.5-13.4-41.4c-0.7-2.4-4.7-13.8-16.4-18.3
								C264.8,451.8,261.8,451.4,258.9,451.4z"/>
						</g>
					</g>
					<path d="M217.8,451.6c-0.2,0-0.3,0-0.5-0.1c-0.5-0.3-0.7-0.9-0.4-1.4c0.2-0.3,16-28.5,49.7-14.6c0.5,0.2,0.8,0.8,0.5,1.3
						c-0.2,0.5-0.8,0.8-1.3,0.5c-32.1-13.2-47,13.4-47.2,13.7C218.5,451.4,218.1,451.6,217.8,451.6z"/>
					<path d="M304.3,525.1c-0.2,0-0.5-0.1-0.7-0.3c-0.4-0.4-0.4-1-0.1-1.4c17-19,13.9-45.8,13.9-46.1c-0.1-0.5,0.3-1,0.9-1.1
						c0.5-0.1,1,0.3,1.1,0.9c0,0.3,3.2,28-14.4,47.7C304.8,524.9,304.5,525.1,304.3,525.1z"/>
				</g>
			</g>
			<g>
				<path d="M534.1,581.3h-96l71.1-109.4c2.2-3.4,6.1-5.5,10.3-5.5h77.9c4.9,0,8,5.3,5.3,9.4L534.1,581.3z"/>
				<path class="st0" d="M554.6,504.7c-3.1,4.8-9.8,8.7-15,8.7c-5.2,0-6.8-3.9-3.7-8.7c3.1-4.8,9.8-8.7,15-8.7
					C556,496,557.7,499.9,554.6,504.7z"/>
				<path d="M527.4,590.4H361.9c-3.9,0-7.1-3.2-7.1-7.1v-2.9h179.6v2.9C534.4,587.2,531.3,590.4,527.4,590.4z"/>
				<path class="st0" d="M529.1,582.4h-82.4c-0.6,0-1-0.4-1-1c0-0.6,0.4-1,1-1h82.4c0.6,0,1,0.4,1,1
					C530.1,581.9,529.7,582.4,529.1,582.4z"/>
			</g>
		</g>
		<g>
			<g>
				<g>
					<path d="M557.4,303.7l-2.9-10.7l-12.1,0.5c-1.1-2.3-2.4-4.6-3.9-6.7l6.4-10.2l-7.9-7.8l-10.2,6.5c-2.1-1.5-4.4-2.7-6.7-3.8
						l0.4-12.1l-10.7-2.8l-5.6,10.7c-2.5-0.2-5.1-0.2-7.7,0.1l-5.7-10.7l-10.7,2.9l0.5,12.1c-2.3,1.1-4.6,2.4-6.7,3.9l-10.2-6.4
						l-7.8,7.9l6.5,10.2c-1.5,2.1-2.7,4.4-3.8,6.7l-12.1-0.4l-2.8,10.7l10.7,5.6c-0.2,2.5-0.2,5.1,0.1,7.7l-10.7,5.7L447,334
						l12.1-0.5c1.1,2.3,2.4,4.6,3.9,6.7l-6.4,10.2l7.9,7.8l10.2-6.5c2.1,1.5,4.4,2.7,6.7,3.8l-0.4,12.1l10.7,2.8l5.6-10.7
						c2.5,0.2,5.1,0.2,7.7-0.1l5.7,10.7l10.7-2.9l-0.5-12.1c2.3-1.1,4.6-2.4,6.7-3.9l10.2,6.4l7.8-7.9l-6.5-10.2
						c1.5-2.1,2.7-4.4,3.8-6.7l12.1,0.4l2.8-10.7l-10.7-5.6c0.2-2.5,0.2-5.1-0.1-7.7L557.4,303.7z M508.3,341
						c-15.2,4.2-30.8-4.8-35-19.9c-4.2-15.2,4.8-30.8,19.9-35c15.2-4.2,30.8,4.8,35,19.9C532.4,321.2,523.4,336.8,508.3,341z"/>
					<path class="st0" d="M491.6,371.3c-0.1,0-0.2,0-0.3,0l-10.7-2.8c-0.5-0.1-0.8-0.5-0.7-1l0.4-11.4c-2-0.9-3.9-2-5.7-3.2
						l-9.6,6.2c-0.4,0.3-0.9,0.2-1.2-0.1l-7.9-7.8c-0.3-0.3-0.4-0.8-0.1-1.2l6-9.7c-1.2-1.8-2.3-3.7-3.3-5.7l-11.4,0.5
						c-0.5,0-0.9-0.3-1-0.7l-2.9-10.7c-0.1-0.5,0.1-0.9,0.5-1.1l10.1-5.4c-0.2-2.2-0.2-4.4,0-6.5l-10.1-5.2
						c-0.4-0.2-0.6-0.7-0.5-1.1l2.8-10.7c0.1-0.5,0.5-0.8,1-0.7l11.4,0.4c0.9-2,2-3.9,3.2-5.7l-6.2-9.6c-0.3-0.4-0.2-0.9,0.1-1.2
						l7.8-7.9c0.3-0.3,0.8-0.4,1.2-0.1l9.7,6c1.8-1.2,3.7-2.3,5.7-3.3l-0.5-11.4c0-0.5,0.3-0.9,0.7-1l10.7-2.9
						c0.5-0.1,0.9,0.1,1.1,0.5l5.4,10.1c2.2-0.2,4.4-0.2,6.5,0l5.2-10.1c0.2-0.4,0.7-0.6,1.1-0.5l10.7,2.8c0.5,0.1,0.8,0.5,0.7,1
						l-0.4,11.4c2,0.9,3.9,2,5.7,3.2l9.6-6.2c0.4-0.3,0.9-0.2,1.2,0.1l7.9,7.8c0.3,0.3,0.4,0.8,0.1,1.2l-6,9.7
						c1.2,1.8,2.3,3.7,3.3,5.7l11.4-0.5c0.5,0,0.9,0.3,1,0.7l2.9,10.7c0.1,0.5-0.1,0.9-0.5,1.1l-10.1,5.4c0.2,2.2,0.2,4.4,0,6.5
						l10.1,5.2c0.4,0.2,0.6,0.7,0.5,1.1l-2.8,10.7c-0.1,0.5-0.5,0.8-1,0.7l-11.4-0.4c-0.9,2-2,3.9-3.2,5.7l6.2,9.6
						c0.3,0.4,0.2,0.9-0.1,1.2l-7.8,7.9c-0.3,0.3-0.8,0.4-1.2,0.1l-9.7-6c-1.8,1.2-3.7,2.3-5.7,3.3l0.5,11.4c0,0.5-0.3,0.9-0.7,1
						l-10.7,2.9c-0.5,0.1-0.9-0.1-1.1-0.5l-5.4-10.1c-2.2,0.2-4.4,0.2-6.5,0l-5.2,10.1C492.3,371.1,491.9,371.3,491.6,371.3z
						 M481.9,366.7l9.2,2.4l5.2-10c0.2-0.4,0.6-0.6,1-0.5c2.5,0.2,5,0.2,7.5-0.1c0.4,0,0.8,0.2,1,0.5l5.3,10l9.1-2.5l-0.5-11.3
						c0-0.4,0.2-0.8,0.6-0.9c2.3-1.1,4.5-2.4,6.5-3.8c0.3-0.2,0.8-0.2,1.1,0l9.6,6l6.7-6.7l-6.1-9.5c-0.2-0.3-0.2-0.8,0-1.1
						c1.4-2.1,2.7-4.3,3.7-6.5c0.2-0.4,0.5-0.6,0.9-0.6l11.3,0.4l2.4-9.2l-10-5.2c-0.4-0.2-0.6-0.6-0.5-1c0.2-2.5,0.2-5-0.1-7.5
						c0-0.4,0.2-0.8,0.5-1l10-5.3l-2.5-9.1l-11.3,0.5c-0.4,0-0.8-0.2-0.9-0.6c-1.1-2.3-2.4-4.5-3.8-6.5c-0.2-0.3-0.2-0.8,0-1.1
						l6-9.6l-6.7-6.7l-9.5,6.1c-0.3,0.2-0.8,0.2-1.1,0c-2.1-1.4-4.3-2.7-6.5-3.7c-0.4-0.2-0.6-0.5-0.6-0.9l0.4-11.3l-9.2-2.4
						l-5.2,10c-0.2,0.4-0.6,0.6-1,0.5c-2.5-0.2-5-0.2-7.5,0.1c-0.4,0-0.8-0.2-1-0.5l-5.3-10l-9.1,2.5l0.5,11.3
						c0,0.4-0.2,0.8-0.6,0.9c-2.3,1.1-4.5,2.4-6.5,3.8c-0.3,0.2-0.8,0.2-1.1,0l-9.6-6l-6.7,6.7l6.1,9.5c0.2,0.3,0.2,0.8,0,1.1
						c-1.4,2.1-2.7,4.3-3.7,6.5c-0.2,0.4-0.6,0.6-0.9,0.6l-11.3-0.4l-2.4,9.2l10,5.2c0.4,0.2,0.6,0.6,0.5,1c-0.2,2.5-0.2,5,0.1,7.5
						c0,0.4-0.2,0.8-0.5,1l-10,5.3l2.5,9.1l11.3-0.5c0.4,0,0.8,0.2,0.9,0.6c1.1,2.3,2.4,4.5,3.8,6.5c0.2,0.3,0.2,0.8,0,1.1l-6,9.6
						l6.7,6.7l9.5-6.1c0.3-0.2,0.8-0.2,1.1,0c2.1,1.4,4.3,2.7,6.5,3.7c0.4,0.2,0.6,0.5,0.6,0.9L481.9,366.7z M500.7,343
						c-13,0-24.9-8.6-28.4-21.7c-4.3-15.7,5-31.9,20.6-36.2c15.7-4.3,31.9,5,36.2,20.6c4.3,15.7-5,31.9-20.6,36.2
						C505.9,342.6,503.3,343,500.7,343z M500.7,286c-2.4,0-4.8,0.3-7.2,1c-14.6,4-23.2,19.1-19.2,33.8c4,14.6,19.1,23.2,33.8,19.2
						c14.6-4,23.2-19.1,19.2-33.8C523.9,294.1,512.8,286,500.7,286z"/>
				</g>
			</g>
			<g>
				<g>
					<path class="st0" d="M795,128.3l-1.4-4.9l-5.6,0.3c-0.5-1.1-1.1-2.1-1.8-3.1l3-4.7l-3.6-3.6l-4.7,3c-1-0.7-2-1.3-3.1-1.8
						l0.2-5.6l-5-1.3l-2.6,5c-1.2-0.1-2.4-0.1-3.6,0l-2.6-4.9l-4.9,1.4l0.3,5.6c-1.1,0.5-2.1,1.1-3.1,1.8l-4.7-3l-3.6,3.6l3,4.7
						c-0.7,1-1.3,2-1.8,3.1l-5.6-0.2l-1.3,5l5,2.6c-0.1,1.2-0.1,2.4,0,3.6l-4.9,2.6l1.4,4.9l5.6-0.3c0.5,1.1,1.1,2.1,1.8,3.1l-3,4.7
						l3.6,3.6l4.7-3c1,0.7,2,1.3,3.1,1.8l-0.2,5.6l5,1.3l2.6-5c1.2,0.1,2.4,0.1,3.6,0l2.6,4.9l4.9-1.4l-0.3-5.6
						c1.1-0.5,2.1-1.1,3.1-1.8l4.7,3l3.6-3.6l-3-4.7c0.7-1,1.3-2,1.8-3.1l5.6,0.2l1.3-5l-5-2.6c0.1-1.2,0.1-2.4,0-3.6L795,128.3z
						 M772.3,145.6c-7,1.9-14.3-2.2-16.2-9.2c-1.9-7,2.2-14.3,9.2-16.2c7-1.9,14.3,2.2,16.2,9.2
						C783.4,136.4,779.3,143.7,772.3,145.6z"/>
					<path d="M764.5,160.1c-0.1,0-0.2,0-0.3,0l-5-1.3c-0.5-0.1-0.8-0.5-0.7-1l0.2-4.9c-0.7-0.4-1.4-0.8-2.1-1.2l-4.2,2.7
						c-0.4,0.3-0.9,0.2-1.2-0.1l-3.6-3.6c-0.3-0.3-0.4-0.8-0.1-1.2l2.6-4.2c-0.4-0.7-0.8-1.4-1.2-2.1l-4.9,0.2c-0.5,0-0.9-0.3-1-0.7
						l-1.4-4.9c-0.1-0.5,0.1-0.9,0.5-1.1l4.4-2.3c0-0.8-0.1-1.6,0-2.4l-4.4-2.3c-0.4-0.2-0.6-0.7-0.5-1.1l1.3-5
						c0.1-0.5,0.5-0.8,1-0.7l4.9,0.2c0.4-0.7,0.8-1.4,1.2-2.1l-2.7-4.2c-0.3-0.4-0.2-0.9,0.1-1.2l3.6-3.6c0.3-0.3,0.8-0.4,1.2-0.1
						l4.2,2.6c0.7-0.4,1.4-0.8,2.1-1.2l-0.2-4.9c0-0.5,0.3-0.9,0.7-1l4.9-1.4c0.5-0.1,0.9,0.1,1.1,0.5l2.3,4.4c0.8,0,1.6-0.1,2.4,0
						l2.3-4.4c0.2-0.4,0.7-0.6,1.1-0.5l5,1.3c0.5,0.1,0.8,0.5,0.7,1l-0.2,4.9c0.7,0.4,1.4,0.8,2.1,1.2l4.2-2.7
						c0.4-0.3,0.9-0.2,1.2,0.1l3.6,3.6c0.3,0.3,0.4,0.8,0.1,1.2l-2.6,4.2c0.4,0.7,0.8,1.4,1.2,2.1l4.9-0.2c0.5,0,0.9,0.3,1,0.7
						l1.4,4.9c0.1,0.5-0.1,0.9-0.5,1.1l-4.4,2.3c0,0.8,0.1,1.6,0,2.4l4.4,2.3c0.4,0.2,0.6,0.7,0.5,1.1l-1.3,5
						c-0.1,0.5-0.5,0.8-1,0.7l-4.9-0.2c-0.4,0.7-0.8,1.4-1.2,2.1l2.7,4.2c0.3,0.4,0.2,0.9-0.1,1.2l-3.6,3.6
						c-0.3,0.3-0.8,0.4-1.2,0.1l-4.2-2.6c-0.7,0.4-1.4,0.8-2.1,1.2l0.2,4.9c0,0.5-0.3,0.9-0.7,1l-4.9,1.4c-0.5,0.1-0.9-0.1-1.1-0.5
						l-2.3-4.4c-0.8,0-1.6,0.1-2.4,0l-2.3,4.4C765.3,159.9,764.9,160.1,764.5,160.1z M760.6,157.1l3.4,0.9l2.2-4.2
						c0.2-0.4,0.6-0.6,1-0.5c1.1,0.1,2.3,0.1,3.4,0c0.4,0,0.8,0.2,1,0.5l2.3,4.2l3.4-0.9l-0.2-4.8c0-0.4,0.2-0.8,0.6-0.9
						c1-0.5,2-1.1,2.9-1.7c0.3-0.2,0.8-0.2,1.1,0l4.1,2.5l2.5-2.5l-2.6-4c-0.2-0.3-0.2-0.8,0-1.1c0.6-0.9,1.2-1.9,1.7-3
						c0.2-0.4,0.5-0.6,0.9-0.6l4.8,0.2l0.9-3.4l-4.2-2.2c-0.4-0.2-0.6-0.6-0.5-1c0.1-1.1,0.1-2.3,0-3.4c0-0.4,0.2-0.8,0.5-1l4.2-2.3
						l-0.9-3.4l-4.8,0.2c-0.4,0-0.8-0.2-0.9-0.6c-0.5-1-1.1-2-1.7-2.9c-0.2-0.3-0.2-0.8,0-1.1l2.5-4.1l-2.5-2.5l-4,2.6
						c-0.3,0.2-0.8,0.2-1.1,0c-0.9-0.6-1.9-1.2-3-1.7c-0.4-0.2-0.6-0.5-0.6-0.9l0.2-4.8l-3.4-0.9l-2.2,4.2c-0.2,0.4-0.6,0.6-1,0.5
						c-1.1-0.1-2.3-0.1-3.4,0c-0.4,0-0.8-0.2-1-0.5l-2.3-4.2l-3.4,0.9l0.2,4.8c0,0.4-0.2,0.8-0.6,0.9c-1,0.5-2,1.1-2.9,1.7
						c-0.3,0.2-0.8,0.2-1.1,0l-4.1-2.5l-2.5,2.5l2.6,4c0.2,0.3,0.2,0.8,0,1.1c-0.6,0.9-1.2,1.9-1.7,2.9c-0.2,0.4-0.5,0.6-0.9,0.6
						l-4.8-0.2l-0.9,3.4l4.2,2.2c0.4,0.2,0.6,0.6,0.5,1c-0.1,1.1-0.1,2.3,0,3.4c0,0.4-0.2,0.8-0.5,1l-4.2,2.3l0.9,3.4l4.8-0.2
						c0.4,0,0.8,0.2,0.9,0.6c0.5,1,1.1,2,1.7,2.9c0.2,0.3,0.2,0.8,0,1.1l-2.5,4.1l2.5,2.5l4-2.6c0.3-0.2,0.8-0.2,1.1,0
						c0.9,0.6,1.9,1.2,3,1.7c0.4,0.2,0.6,0.5,0.6,0.9L760.6,157.1z M768.8,147c-6.2,0-12-4.1-13.7-10.4c-2.1-7.5,2.4-15.4,9.9-17.4
						c7.5-2.1,15.4,2.4,17.4,9.9c2.1,7.5-2.4,15.4-9.9,17.4C771.3,146.9,770,147,768.8,147z M772.3,145.6L772.3,145.6L772.3,145.6z
						 M768.8,120.7c-1.1,0-2.1,0.1-3.2,0.4c-6.5,1.8-10.3,8.5-8.5,15c1.8,6.5,8.5,10.3,15,8.5c6.5-1.8,10.3-8.5,8.5-15
						C779.1,124.2,774.1,120.7,768.8,120.7z"/>
				</g>
			</g>
			<g>
				<g>
					<path d="M734.3,193.2l-5-18.3l-20.7,0.9c-1.9-4-4.1-7.8-6.6-11.4l10.9-17.5l-13.5-13.3L682,144.8c-3.6-2.5-7.5-4.7-11.4-6.5
						l0.7-20.7l-18.3-4.8l-9.5,18.3c-4.3-0.3-8.8-0.3-13.2,0.1l-9.7-18.2l-18.3,5l0.9,20.7c-4,1.9-7.8,4.1-11.4,6.6l-17.5-10.9
						l-13.3,13.5l11.1,17.4c-2.5,3.6-4.7,7.5-6.5,11.4L545,176l-4.8,18.3l18.3,9.5c-0.3,4.3-0.3,8.8,0.1,13.2l-18.2,9.7l5,18.3
						L566,244c1.9,4,4.1,7.8,6.6,11.4l-10.9,17.5l13.5,13.3l17.4-11.1c3.6,2.5,7.5,4.7,11.4,6.5l-0.7,20.7l18.3,4.8l9.5-18.3
						c4.3,0.3,8.8,0.3,13.2-0.1l9.7,18.2l18.3-5l-0.9-20.7c4-1.9,7.8-4.1,11.4-6.6l17.5,10.9l13.3-13.5l-11.1-17.4
						c2.5-3.6,4.7-7.5,6.5-11.4l20.7,0.7l4.8-18.3l-18.3-9.5c0.3-4.3,0.3-8.8-0.1-13.2L734.3,193.2z M650.2,257
						c-26,7.1-52.8-8.2-59.9-34.1c-7.1-26,8.2-52.8,34.1-59.9c26-7.1,52.8,8.2,59.9,34.1C691.4,223,676.1,249.8,650.2,257z"/>
					<path class="st0" d="M621.7,308.1c-0.1,0-0.2,0-0.3,0l-18.3-4.8c-0.5-0.1-0.8-0.5-0.7-1l0.7-20c-3.6-1.7-7.1-3.7-10.4-5.9
						l-16.9,10.8c-0.4,0.3-0.9,0.2-1.2-0.1L561,273.6c-0.3-0.3-0.4-0.8-0.1-1.2l10.6-17c-2.2-3.3-4.3-6.7-6.1-10.4l-20,0.9
						c-0.5,0-0.9-0.3-1-0.7l-5-18.3c-0.1-0.5,0.1-0.9,0.5-1.1l17.7-9.4c-0.3-4-0.4-8.1-0.1-12l-17.7-9.2c-0.4-0.2-0.6-0.7-0.5-1.1
						l4.8-18.3c0.1-0.5,0.5-0.8,1-0.7l20,0.7c1.7-3.6,3.7-7.1,6-10.4l-10.8-16.9c-0.3-0.4-0.2-0.9,0.1-1.2l13.3-13.5
						c0.3-0.3,0.8-0.4,1.2-0.1l17,10.6c3.3-2.2,6.7-4.3,10.4-6.1l-0.9-20c0-0.5,0.3-0.9,0.7-1l18.3-5c0.5-0.1,0.9,0.1,1.1,0.5
						l9.4,17.7c4-0.3,8.1-0.4,12-0.1l9.2-17.7c0.2-0.4,0.7-0.6,1.1-0.5l18.3,4.8c0.5,0.1,0.8,0.5,0.7,1l-0.7,20
						c3.6,1.7,7.1,3.7,10.4,5.9l16.9-10.8c0.4-0.3,0.9-0.2,1.2,0.1l13.5,13.3c0.3,0.3,0.4,0.8,0.1,1.2l-10.6,17
						c2.2,3.3,4.3,6.7,6.1,10.4l20-0.9c0.5,0,0.9,0.3,1,0.7l5,18.3c0.1,0.5-0.1,0.9-0.5,1.1l-17.7,9.4c0.3,4,0.4,8.1,0.1,12
						l17.7,9.2c0.4,0.2,0.6,0.7,0.5,1.1l-4.8,18.3c-0.1,0.5-0.5,0.8-1,0.7l-20-0.7c-1.7,3.6-3.7,7.1-6,10.4l10.8,16.9
						c0.3,0.4,0.2,0.9-0.1,1.2L701,286.2c-0.3,0.3-0.8,0.4-1.2,0.1l-17-10.6c-3.3,2.2-6.7,4.3-10.4,6.1l0.9,20c0,0.5-0.3,0.9-0.7,1
						l-18.3,5c-0.5,0.1-0.9-0.1-1.1-0.5l-9.4-17.7c-4,0.3-8.1,0.4-12,0.1l-9.2,17.7C622.4,307.9,622,308.1,621.7,308.1z
						 M604.4,301.5l16.8,4.4l9.1-17.6c0.2-0.4,0.6-0.6,1-0.5c4.3,0.3,8.6,0.3,13-0.1c0.4,0,0.8,0.2,1,0.5l9.3,17.5l16.7-4.6
						l-0.9-19.9c0-0.4,0.2-0.8,0.6-0.9c4-1.9,7.8-4.1,11.3-6.6c0.3-0.2,0.8-0.2,1.1,0l16.8,10.5l12.2-12.3l-10.7-16.7
						c-0.2-0.3-0.2-0.8,0-1.1c2.4-3.6,4.6-7.4,6.4-11.3c0.2-0.4,0.5-0.6,0.9-0.6l19.9,0.7l4.4-16.8l-17.6-9.1
						c-0.4-0.2-0.6-0.6-0.5-1c0.3-4.3,0.3-8.6-0.1-13c0-0.4,0.2-0.8,0.5-1l17.5-9.3l-4.6-16.7l-19.9,0.9c-0.4,0-0.8-0.2-0.9-0.6
						c-1.9-4-4.1-7.8-6.6-11.3c-0.2-0.3-0.2-0.8,0-1.1l10.5-16.8L699.3,135l-16.7,10.7c-0.3,0.2-0.8,0.2-1.1,0
						c-3.6-2.4-7.4-4.6-11.3-6.4c-0.4-0.2-0.6-0.5-0.6-0.9l0.7-19.9l-16.8-4.4l-9.1,17.6c-0.2,0.4-0.6,0.6-1,0.5
						c-4.3-0.3-8.6-0.3-13,0.1c-0.4,0-0.8-0.2-1-0.5l-9.3-17.5l-16.7,4.6l0.9,19.9c0,0.4-0.2,0.8-0.6,0.9c-4,1.9-7.8,4.1-11.2,6.6
						c-0.3,0.2-0.8,0.2-1.1,0l-16.8-10.5L562.3,148l10.7,16.7c0.2,0.3,0.2,0.8,0,1.1c-2.4,3.6-4.6,7.4-6.4,11.3
						c-0.2,0.4-0.5,0.6-0.9,0.6l-19.9-0.7l-4.4,16.8l17.6,9.1c0.4,0.2,0.6,0.6,0.5,1c-0.3,4.3-0.3,8.6,0.1,13c0,0.4-0.2,0.8-0.5,1
						l-17.5,9.3l4.6,16.7L566,243c0.4,0,0.8,0.2,0.9,0.6c1.9,4,4.1,7.8,6.6,11.3c0.2,0.3,0.2,0.8,0,1.1L563,272.8l12.3,12.2
						l16.7-10.7c0.3-0.2,0.8-0.2,1.1,0c3.6,2.4,7.4,4.6,11.3,6.4c0.4,0.2,0.6,0.5,0.6,0.9L604.4,301.5z M637.2,259.7
						c-8.5,0-16.9-2.2-24.5-6.5c-11.5-6.6-19.8-17.3-23.3-30.1c-3.5-12.8-1.8-26.2,4.8-37.8c6.6-11.5,17.3-19.8,30.1-23.3
						c12.8-3.5,26.2-1.8,37.8,4.8c11.5,6.6,19.8,17.3,23.3,30.1c3.5,12.8,1.8,26.2-4.8,37.8s-17.3,19.8-30.1,23.3
						C646.1,259.1,641.7,259.7,637.2,259.7z M637.4,162.2c-4.2,0-8.5,0.6-12.7,1.7c-12.3,3.4-22.5,11.3-28.9,22.4
						c-6.3,11.1-7.9,23.9-4.6,36.2c3.4,12.3,11.3,22.5,22.4,28.9c11.1,6.3,23.9,7.9,36.2,4.6c12.3-3.4,22.5-11.3,28.9-22.4
						c6.3-11.1,7.9-23.9,4.6-36.2c-3.4-12.3-11.3-22.5-22.4-28.9C653.7,164.3,645.6,162.2,637.4,162.2z"/>
				</g>
			</g>
		</g>
		<path d="M742.1,631.2H611c-7.8,0-14.1-6.3-14.1-14.1v-17.1c0-6.7-5.4-12.1-12.1-12.1h-39.5c-0.6,0-1-0.4-1-1c0-0.6,0.4-1,1-1h39.5
			c7.8,0,14.1,6.3,14.1,14.1V617c0,6.7,5.4,12.1,12.1,12.1h131.1c6.7,0,12.1-5.4,12.1-12.1V419.6c0-0.6,0.4-1,1-1c0.6,0,1,0.4,1,1
			V617C756.2,624.8,749.9,631.2,742.1,631.2z"/>
		<g>
			<g>
				<path class="st0" d="M790.4,764.5h-80.5c0,0-11,67.1,37,72.5C795,842.4,790.4,764.5,790.4,764.5z"/>
				<path d="M751.5,838.3c-1.5,0-3.1-0.1-4.7-0.3c-11.7-1.3-21-6.4-27.6-15c-16.2-21.4-10.6-57.1-10.3-58.6c0.1-0.5,0.5-0.8,1-0.8
					h80.5c0.5,0,1,0.4,1,0.9c0.1,1.9,2.4,46.1-17.8,65.2C767.6,835.4,760.2,838.3,751.5,838.3z M710.7,765.5
					c-0.8,5.6-4.3,37.3,10.1,56.3c6.2,8.2,15,13,26.2,14.2c10.1,1.1,18.6-1.5,25.2-7.8c18-17.1,17.4-56.2,17.2-62.7H710.7z"/>
			</g>
			<g>
				<path class="st1" d="M765.5,750.2c4.4,0.1,13.8,0.3,22.6-5.7c3.3-2.2,12.2-8.3,11.4-16.4c-0.7-6.9-8.4-13.2-18.9-14.4
					c12.4,1.5,22.4-7.8,22.4-17.5c0-7.4-5.8-14.7-14.5-17.1c13.4-10.1,20.4-26.4,18.2-42.6c-2.2-15.7-13.1-31.3-29.5-36
					c-2.1-0.6-20-5.5-32.8,5.5c-10.8,9.2-10.9,23.5-11,33.3c-0.1,17.3,6.8,30.5,11,37.1c-0.9-0.1-9.8-3-18.1,4.4
					c-8.5,7.5-8.9,24.8-4.8,31.7c4.3,7.2,14.7,5.6,16.6,6.2c-7.8,6.9-7.5,12.6-7.4,13.7C731.6,743.4,751.9,749.8,765.5,750.2z"/>
				<path class="st0" d="M761.1,758.1c-0.5,0-0.9-0.4-1-0.9c-7.9-58.4,10.5-124.2,10.7-124.8c0.2-0.5,0.7-0.8,1.2-0.7
					c0.5,0.2,0.8,0.7,0.7,1.2c-0.2,0.7-18.5,66.1-10.7,124c0.1,0.5-0.3,1.1-0.9,1.1C761.1,758.1,761.1,758.1,761.1,758.1z"/>
			</g>
			<g>
				<g>
					<path class="st0" d="M748.8,751.6c1.8-4.5,9.7-25.1-0.5-42.5c-2.1-3.6-9.2-15.6-19.4-14.7c-7.6,0.6-12.5,8-13.5,9.7
						c3.1-11.2-2.5-22.6-11.7-26.5c-10.9-4.6-25.4,1.8-29.4,15.2c-2.7-0.8-10-2.4-17.3,1.1c-9.7,4.6-15.5,16.1-14.2,28.9
						c4,13.7,16.5,22,28.4,20.5c12.9-1.7,19-14.3,19.4-15.2c-2,3.2-5,9-3.2,14.7c3,9.6,18.1,14.3,28.9,11.6c10-2.6,12.9-10.7,21-10
						C742.6,744.7,746.5,748.8,748.8,751.6z"/>
					<path d="M709.9,756c-9.9,0-20.8-4.7-23.5-13c-0.7-2.3-0.8-4.7-0.3-6.9c-3.3,3.6-8.2,7.2-14.9,8.1c-12.7,1.7-25.4-7.4-29.5-21.2
						c0-0.1,0-0.1,0-0.2c-1.4-13.1,4.6-25.1,14.7-29.9c6.6-3.1,13.2-2.3,17.1-1.4c2.2-6.3,6.8-11.5,12.8-14.3
						c5.8-2.7,12.3-3,17.7-0.7c8.7,3.7,13.9,13.5,13,23.4c2.5-2.9,6.5-6.2,11.7-6.7c7.2-0.6,14.1,4.5,20.4,15.2
						c9.8,16.6,3.7,35.9,0.6,43.4c-0.1,0.3-0.4,0.6-0.8,0.6c-0.4,0.1-0.7-0.1-0.9-0.4c-3.4-4.3-7.1-6.6-10.9-7
						c-4-0.4-6.5,1.6-9.8,4.1c-2.9,2.2-6.1,4.6-10.9,5.9C714.4,755.7,712.2,756,709.9,756z M689.9,731.2c-1.6,3.3-2.8,7.3-1.5,11.2
						c2.9,9.2,17.5,13.5,27.7,10.9c4.4-1.1,7.4-3.4,10.2-5.5c3.3-2.5,6.4-4.9,11.2-4.5c3.9,0.4,7.7,2.5,11.1,6.4
						c3.1-8.1,7.7-25.3-1.1-40.1c-5.9-10-12.1-14.7-18.5-14.2c-6.7,0.6-11.2,6.7-12.8,9.3c-0.3,0.4-0.8,0.6-1.2,0.4
						c-0.5-0.2-0.7-0.7-0.6-1.2c2.8-10.4-2-21.5-11.1-25.3c-4.9-2.1-10.8-1.9-16.1,0.6c-5.8,2.7-10.1,7.8-12,14
						c-0.2,0.5-0.7,0.8-1.2,0.7c-3.4-1-10.1-2.1-16.6,1c-9.4,4.4-14.9,15.6-13.6,27.8c3.8,12.8,15.5,21.2,27.2,19.7
						c9-1.2,14.6-8.1,17.1-12c0.5-1,1.1-2,1.6-2.8c0.3-0.4,0.9-0.6,1.3-0.3c0.5,0.3,0.6,0.8,0.4,1.3
						C691.4,728.6,690.8,729.6,689.9,731.2z"/>
				</g>
				<path d="M749.6,757.2c-0.5,0-0.9-0.3-1-0.8c-0.2-1.2-5.7-30.6-33.1-41.1c-19.7-7.5-37.4,0-42.3,2.5c-0.5,0.2-1.1,0-1.3-0.4
					c-0.2-0.5,0-1.1,0.4-1.3c5.1-2.6,23.5-10.3,43.9-2.6c28.4,10.8,34.1,41.3,34.4,42.6c0.1,0.5-0.3,1.1-0.8,1.2
					C749.8,757.2,749.7,757.2,749.6,757.2z"/>
			</g>
		</g>
		<path d="M205.6,139.1c-5.7,0-10.3-4.6-10.3-10.3c0-5.7,4.6-10.3,10.3-10.3c5.7,0,10.3,4.6,10.3,10.3
			C215.9,134.4,211.3,139.1,205.6,139.1z M205.6,120.5c-4.6,0-8.3,3.7-8.3,8.3c0,4.6,3.7,8.3,8.3,8.3c4.6,0,8.3-3.7,8.3-8.3
			C213.9,124.2,210.2,120.5,205.6,120.5z"/>
		<g>
			<path d="M813.4,752.9c-0.6,0-1-0.4-1-1V744c0-0.6,0.4-1,1-1c0.6,0,1,0.4,1,1v7.9C814.4,752.5,813.9,752.9,813.4,752.9z"/>
			<path d="M813.4,771.3c-0.6,0-1-0.4-1-1v-7.9c0-0.6,0.4-1,1-1c0.6,0,1,0.4,1,1v7.9C814.4,770.8,813.9,771.3,813.4,771.3z"/>
			<path d="M808.2,758.2h-7.9c-0.6,0-1-0.4-1-1c0-0.6,0.4-1,1-1h7.9c0.6,0,1,0.4,1,1C809.2,757.7,808.7,758.2,808.2,758.2z"/>
			<path d="M826.5,758.2h-7.9c-0.6,0-1-0.4-1-1c0-0.6,0.4-1,1-1h7.9c0.6,0,1,0.4,1,1C827.5,757.7,827.1,758.2,826.5,758.2z"/>
		</g>
		<g>
			<path d="M702,98.5c-0.6,0-1-0.4-1-1v-7.9c0-0.6,0.4-1,1-1c0.6,0,1,0.4,1,1v7.9C703,98,702.5,98.5,702,98.5z"/>
			<path d="M702,116.9c-0.6,0-1-0.4-1-1V108c0-0.6,0.4-1,1-1c0.6,0,1,0.4,1,1v7.9C703,116.4,702.5,116.9,702,116.9z"/>
			<path d="M696.8,103.7h-7.9c-0.6,0-1-0.4-1-1c0-0.6,0.4-1,1-1h7.9c0.6,0,1,0.4,1,1C697.8,103.3,697.3,103.7,696.8,103.7z"/>
			<path d="M715.1,103.7h-7.9c-0.6,0-1-0.4-1-1c0-0.6,0.4-1,1-1h7.9c0.6,0,1,0.4,1,1C716.1,103.3,715.7,103.7,715.1,103.7z"/>
		</g>
		<path d="M204.2,811.1c-6,0-10.9-4.9-10.9-10.9c0-6,4.9-10.9,10.9-10.9c6,0,10.9,4.9,10.9,10.9C215,806.2,210.2,811.1,204.2,811.1z
			 M204.2,791.4c-4.9,0-8.9,4-8.9,8.9c0,4.9,4,8.9,8.9,8.9c4.9,0,8.9-4,8.9-8.9C213,795.4,209.1,791.4,204.2,791.4z"/>
		<path d="M244.5,792.2c-0.2,0-0.5-0.1-0.6-0.2c-0.3-0.3-33.1-27.6-68.6-77.2c-0.3-0.4-0.2-1.1,0.2-1.4c0.4-0.3,1.1-0.2,1.4,0.2
			c35.3,49.3,67.9,76.6,68.2,76.8c0.4,0.4,0.5,1,0.1,1.4C245.1,792.1,244.8,792.2,244.5,792.2z"/>
		<path d="M158.7,715.2c-0.3,0-0.6-0.1-0.8-0.4c-2.1-2.9-4.1-5.8-6.2-8.7c-0.3-0.5-0.2-1.1,0.3-1.4c0.5-0.3,1.1-0.2,1.4,0.3
			c2,2.9,4.1,5.8,6.1,8.7c0.3,0.4,0.2,1.1-0.2,1.4C159.1,715.1,158.9,715.2,158.7,715.2z"/>
		<path d="M208.8,773.7c-0.2,0-0.5-0.1-0.7-0.3c-0.2-0.2-23.1-21.1-50.2-58.7c-0.3-0.4-0.2-1.1,0.2-1.4c0.4-0.3,1.1-0.2,1.4,0.2
			c27,37.4,49.7,58.1,50,58.3c0.4,0.4,0.4,1,0.1,1.4C209.3,773.6,209,773.7,208.8,773.7z"/>
		<path d="M77.4,234.5c-0.1,0-0.2,0-0.4-0.1c-0.5-0.2-0.8-0.8-0.6-1.3c0.3-0.7,29.2-74.6,91.3-98.1c0.5-0.2,1.1,0.1,1.3,0.6
			c0.2,0.5-0.1,1.1-0.6,1.3c-61.4,23.1-89.9,96.2-90.2,96.9C78.2,234.2,77.8,234.5,77.4,234.5z"/>
		<path d="M77.4,202.6c-0.1,0-0.2,0-0.3-0.1c-0.5-0.2-0.8-0.8-0.6-1.3c0.1-0.2,6.9-18.6,24.9-40c16.7-19.8,46.6-46.4,94.7-60.5
			c0.5-0.2,1.1,0.1,1.2,0.7c0.2,0.5-0.1,1.1-0.7,1.2c-47.6,14-77.2,40.3-93.7,59.9c-17.8,21.2-24.5,39.3-24.6,39.4
			C78.2,202.4,77.8,202.6,77.4,202.6z"/>
	</g>
</g>
</svg>
