<?xml version="1.0" encoding="UTF-8"?>
<svg xmlns="http://www.w3.org/2000/svg" xmlns:xlink="http://www.w3.org/1999/xlink" viewBox="0 0 384 384" width="384px" height="384px">
<g id="surface29130382">
<path style=" stroke:none;fill-rule:nonzero;fill:rgb(83.92157%,89.019608%,89.803922%);fill-opacity:1;" d="M 192 384 C 85.960938 384 0 298.039062 0 192 C 0 85.960938 85.960938 0 192 0 C 298.039062 0 384 85.960938 384 192 C 384 298.039062 298.039062 384 192 384 Z M 192 384 "/>
<path style=" stroke:none;fill-rule:nonzero;fill:rgb(19.607843%,24.313726%,28.235295%);fill-opacity:1;" d="M 263.558594 153.601562 L 218.441406 153.601562 L 218.441406 128 C 218.441406 114.789062 219.515625 106.46875 238.445312 106.46875 L 262.355469 106.46875 L 262.355469 65.765625 C 250.722656 64.5625 239.023438 63.972656 227.308594 64 C 192.585938 64 167.238281 85.210938 167.238281 124.148438 L 167.238281 153.601562 L 128.839844 153.601562 L 128.839844 204.800781 L 167.238281 204.785156 L 167.238281 320 L 218.441406 320 L 218.441406 204.761719 L 257.683594 204.75 Z M 263.558594 153.601562 "/>
</g>
</svg>
