<?xml version="1.0" encoding="UTF-8"?>
<svg xmlns="http://www.w3.org/2000/svg" xmlns:xlink="http://www.w3.org/1999/xlink" viewBox="0 0 500 500" width="500px" height="500px">
<g id="surface29139767">
<path style=" stroke:none;fill-rule:nonzero;fill:rgb(19.607843%,24.313726%,28.235295%);fill-opacity:1;" d="M 250 500 C 111.929688 500 0 388.070312 0 250 C 0 111.929688 111.929688 0 250 0 C 388.070312 0 500 111.929688 500 250 C 500 388.070312 388.070312 500 250 500 Z M 250 500 "/>
<path style=" stroke:none;fill-rule:nonzero;fill:rgb(83.92157%,89.019608%,89.803922%);fill-opacity:1;" d="M 134.570312 99.097656 C 111.007812 99.097656 93.898438 113.21875 93.898438 132.636719 C 93.898438 152.125 111.417969 166.863281 134.570312 166.863281 C 158.132812 166.863281 175.242188 152.472656 175.242188 132.238281 C 174.15625 112.75 157.386719 99.097656 134.570312 99.097656 Z M 100.621094 180.511719 C 96.886719 180.511719 93.832031 183.566406 93.832031 187.300781 L 93.832031 384.210938 C 93.832031 387.945312 96.886719 391 100.621094 391 L 168.519531 391 C 172.253906 391 175.308594 387.945312 175.308594 384.210938 L 175.308594 187.300781 C 175.308594 183.566406 172.253906 180.511719 168.519531 180.511719 Z M 202.46875 180.511719 C 198.734375 180.511719 195.679688 183.566406 195.679688 187.300781 L 195.679688 384.210938 C 195.679688 387.945312 198.734375 391 202.46875 391 L 263.578125 391 C 267.328125 391 270.371094 387.957031 270.371094 384.210938 L 270.371094 278.964844 C 270.371094 262.875 282.730469 249.765625 298.484375 248.542969 C 299.300781 248.40625 300.109375 248.410156 300.925781 248.410156 C 301.738281 248.410156 302.550781 248.40625 303.363281 248.542969 C 319.117188 249.765625 331.480469 262.875 331.480469 278.964844 L 331.480469 384.210938 C 331.480469 387.957031 334.523438 391 338.269531 391 L 399.378906 391 C 403.113281 391 406.167969 387.945312 406.167969 384.210938 L 406.167969 268.78125 C 406.167969 224.847656 382.601562 180.511719 330.046875 180.511719 C 306.148438 180.511719 288.089844 189.746094 277.160156 197.417969 L 277.160156 187.300781 C 277.160156 183.566406 274.105469 180.511719 270.371094 180.511719 Z M 202.46875 180.511719 "/>
</g>
</svg>
