<?xml version="1.0" encoding="UTF-8"?>
<svg xmlns="http://www.w3.org/2000/svg" xmlns:xlink="http://www.w3.org/1999/xlink" viewBox="0 0 240 240" width="240px" height="240px">
<g id="surface29145981">
<path style=" stroke:none;fill-rule:nonzero;fill:rgb(19.607843%,24.313726%,28.235295%);fill-opacity:1;" d="M 120 240 C 53.726562 240 0 186.273438 0 120 C 0 53.726562 53.726562 0 120 0 C 186.273438 0 240 53.726562 240 120 C 240 186.273438 186.273438 240 120 240 Z M 120 240 "/>
<path style=" stroke:none;fill-rule:nonzero;fill:rgb(83.92157%,89.019608%,89.803922%);fill-opacity:1;" d="M 120 63.199219 C 98.382812 63.199219 70.328125 68.617188 70.328125 68.617188 L 70.257812 68.695312 C 60.414062 70.269531 52.871094 78.730469 52.871094 89.019531 L 52.871094 150.996094 C 52.890625 161.148438 60.28125 169.777344 70.308594 171.359375 L 70.328125 171.390625 C 70.328125 171.390625 98.382812 176.816406 120 176.816406 C 141.617188 176.816406 169.671875 171.390625 169.671875 171.390625 L 169.683594 171.378906 C 179.71875 169.800781 187.121094 161.15625 187.128906 150.996094 L 187.128906 89.019531 C 187.117188 78.867188 179.722656 70.226562 169.691406 68.644531 L 169.671875 68.617188 C 169.671875 68.617188 141.617188 63.199219 120 63.199219 Z M 104.507812 96.242188 L 145.820312 120.003906 L 104.507812 143.765625 Z M 104.507812 96.242188 "/>
</g>
</svg>
