<?xml version="1.0" encoding="UTF-8"?>
<svg xmlns="http://www.w3.org/2000/svg" xmlns:xlink="http://www.w3.org/1999/xlink" viewBox="0 0 512 512" width="512px" height="512px">
<g id="surface29172331">
<path style=" stroke:none;fill-rule:nonzero;fill:rgb(19.607843%,24.313726%,28.235295%);fill-opacity:1;" d="M 256 512 C 114.613281 512 0 397.386719 0 256 C 0 114.613281 114.613281 0 256 0 C 397.386719 0 512 114.613281 512 256 C 512 397.386719 397.386719 512 256 512 Z M 256 512 "/>
<path style=" stroke:none;fill-rule:nonzero;fill:rgb(83.92157%,89.019608%,89.803922%);fill-opacity:1;" d="M 167.1875 116.1875 L 187.96875 191.261719 L 187.980469 191.261719 L 187.980469 227.277344 L 205.972656 227.277344 L 205.972656 191.261719 L 227.027344 116.1875 L 208.890625 116.1875 L 201.34375 150.34375 C 199.222656 160.316406 197.867188 167.421875 197.242188 171.648438 L 196.707031 171.648438 C 195.828125 165.742188 194.453125 158.585938 192.605469 150.210938 L 185.320312 116.1875 Z M 248.015625 144.535156 C 241.910156 144.535156 236.996094 145.730469 233.25 148.167969 C 229.492188 150.59375 226.738281 154.457031 224.96875 159.75 C 223.210938 165.054688 222.324219 172.070312 222.324219 180.804688 L 222.324219 192.585938 C 222.324219 201.226562 223.097656 208.15625 224.640625 213.367188 C 226.1875 218.574219 228.789062 222.414062 232.453125 224.882812 C 236.121094 227.351562 241.183594 228.589844 247.621094 228.613281 C 253.886719 228.613281 258.851562 227.402344 262.507812 224.96875 C 266.164062 222.539062 268.820312 218.710938 270.449219 213.453125 C 272.078125 208.195312 272.898438 201.257812 272.898438 192.605469 L 272.898438 180.804688 C 272.898438 172.070312 272.058594 165.085938 270.382812 159.828125 C 268.707031 154.578125 266.070312 150.714844 262.441406 148.242188 C 258.824219 145.773438 254.011719 144.535156 248.015625 144.535156 Z M 282.359375 146.109375 L 282.359375 206.738281 C 282.359375 214.246094 283.65625 219.773438 286.210938 223.296875 C 288.773438 226.820312 292.742188 228.589844 298.132812 228.589844 C 305.898438 228.589844 311.722656 224.851562 315.597656 217.347656 L 316.003906 217.347656 L 317.589844 227.265625 L 331.882812 227.265625 L 331.882812 146.109375 L 313.609375 146.109375 L 313.609375 210.578125 C 312.90625 212.089844 311.832031 213.308594 310.371094 214.285156 C 308.910156 215.265625 307.398438 215.75 305.808594 215.75 C 303.945312 215.75 302.625 214.976562 301.828125 213.429688 C 301.03125 211.886719 300.636719 209.316406 300.636719 205.6875 L 300.636719 146.109375 Z M 247.621094 157.113281 C 250.175781 157.113281 251.972656 158.445312 252.980469 161.140625 C 254 163.820312 254.5 168.085938 254.5 173.914062 L 254.5 199.203125 C 254.5 205.210938 253.988281 209.535156 252.980469 212.183594 C 251.972656 214.828125 250.167969 216.148438 247.621094 216.164062 C 245.066406 216.164062 243.300781 214.832031 242.328125 212.183594 C 241.347656 209.535156 240.875 205.199219 240.875 199.203125 L 240.875 173.914062 C 240.875 168.09375 241.386719 163.832031 242.394531 161.140625 C 243.402344 158.457031 245.152344 157.113281 247.621094 157.113281 Z M 155.199219 250.433594 C 139.738281 250.433594 127.199219 262.972656 127.199219 278.433594 L 127.199219 368.03125 C 127.199219 383.496094 139.738281 396.03125 155.199219 396.03125 L 356.800781 396.03125 C 372.261719 396.03125 384.800781 383.496094 384.800781 368.03125 L 384.800781 278.433594 C 384.800781 262.972656 372.261719 250.433594 356.800781 250.433594 Z M 256.667969 271.75 L 271.226562 271.75 L 271.226562 307.089844 L 271.335938 307.089844 C 272.640625 304.535156 274.503906 302.476562 276.914062 300.910156 C 279.320312 299.339844 281.910156 298.558594 284.6875 298.558594 C 288.265625 298.558594 291.074219 299.507812 293.101562 301.402344 C 295.128906 303.292969 296.613281 306.367188 297.519531 310.601562 C 298.425781 314.839844 298.886719 320.710938 298.886719 328.21875 L 298.886719 338.820312 L 298.898438 338.820312 C 298.898438 348.816406 297.683594 356.160156 295.277344 360.867188 C 292.867188 365.578125 289.113281 367.933594 284.011719 367.933594 C 281.167969 367.933594 278.574219 367.269531 276.234375 365.964844 C 273.894531 364.660156 272.160156 362.863281 270.996094 360.59375 L 270.65625 360.59375 L 269.136719 366.9375 L 256.667969 366.9375 Z M 166.398438 275.140625 L 211.144531 275.140625 L 211.144531 287.292969 L 196.160156 287.292969 L 196.160156 366.9375 L 181.394531 366.9375 L 181.394531 287.292969 L 166.398438 287.292969 Z M 326.121094 298.601562 C 331.289062 298.601562 335.265625 299.550781 338.042969 301.445312 C 340.804688 303.347656 342.769531 306.304688 343.90625 310.304688 C 345.03125 314.3125 345.601562 319.855469 345.601562 326.929688 L 345.601562 338.4375 L 320.335938 338.4375 L 320.335938 341.828125 C 320.335938 346.136719 320.464844 349.371094 320.726562 351.515625 C 320.992188 353.660156 321.511719 355.246094 322.3125 356.21875 C 323.113281 357.207031 324.347656 357.6875 326.023438 357.6875 C 328.277344 357.6875 329.835938 356.800781 330.679688 355.0625 C 331.515625 353.320312 331.964844 350.394531 332.039062 346.3125 L 345.0625 347.078125 C 345.132812 347.648438 345.171875 348.464844 345.171875 349.484375 C 345.171875 355.683594 343.480469 360.332031 340.085938 363.382812 C 336.695312 366.457031 331.898438 367.976562 325.695312 367.976562 C 318.257812 367.976562 313.042969 365.632812 310.042969 360.96875 C 307.039062 356.300781 305.558594 349.082031 305.558594 339.3125 L 305.558594 327.597656 C 305.558594 317.535156 307.121094 310.1875 310.21875 305.546875 C 313.3125 300.90625 318.609375 298.601562 326.121094 298.601562 Z M 232.496094 299.835938 L 247.601562 299.835938 L 247.601562 366.90625 L 247.566406 366.90625 L 247.566406 366.9375 L 235.753906 366.9375 L 234.441406 358.726562 L 234.113281 358.726562 C 230.894531 364.933594 226.082031 368.03125 219.664062 368.03125 C 215.207031 368.03125 211.9375 366.582031 209.820312 363.65625 C 207.699219 360.746094 206.648438 356.164062 206.648438 349.976562 L 206.648438 299.859375 L 221.765625 299.859375 L 221.765625 349.101562 C 221.765625 352.078125 222.09375 354.238281 222.75 355.5 C 223.417969 356.78125 224.496094 357.414062 226.042969 357.414062 C 227.347656 357.414062 228.601562 357.011719 229.804688 356.199219 C 231.019531 355.398438 231.902344 354.367188 232.496094 353.125 Z M 325.792969 308.785156 C 324.183594 308.785156 323 309.265625 322.226562 310.207031 C 321.460938 311.160156 320.945312 312.710938 320.707031 314.867188 C 320.441406 317.011719 320.3125 320.285156 320.3125 324.65625 L 320.3125 329.46875 L 331.359375 329.46875 L 331.359375 324.65625 C 331.359375 320.34375 331.207031 317.089844 330.921875 314.867188 C 330.640625 312.632812 330.125 311.0625 329.359375 310.152344 C 328.589844 309.246094 327.410156 308.785156 325.792969 308.785156 Z M 277.886719 309.289062 C 276.429688 309.289062 275.082031 309.855469 273.839844 311.027344 C 272.601562 312.195312 271.71875 313.703125 271.214844 315.511719 L 271.214844 353.59375 C 271.878906 354.765625 272.730469 355.632812 273.785156 356.21875 C 274.835938 356.792969 275.980469 357.105469 277.230469 357.105469 C 278.835938 357.105469 280.105469 356.527344 281.058594 355.355469 C 282.011719 354.1875 282.695312 352.222656 283.082031 349.449219 C 283.484375 346.6875 283.683594 342.847656 283.683594 337.964844 L 283.683594 329.324219 C 283.683594 324.078125 283.519531 320.03125 283.191406 317.171875 C 282.882812 314.328125 282.285156 312.273438 281.460938 311.082031 C 280.628906 309.886719 279.4375 309.289062 277.886719 309.289062 Z M 277.886719 309.289062 "/>
</g>
</svg>
