<?xml version="1.0" encoding="UTF-8"?><svg xmlns="http://www.w3.org/2000/svg" viewBox="0 0 813.64 805.57"><defs><style>.e{fill:#fff;}.f{fill:#feef87;}</style></defs><g id="a"/><g id="b"><g id="c"><g id="d"><g><path d="M472.73,603.93c-.29,0-.58-.13-.78-.38-2.53-3.18-4.84-6.54-6.87-10-.28-.48-.12-1.09,.36-1.37,.48-.28,1.09-.12,1.37,.36,1.98,3.38,4.23,6.66,6.71,9.76,.34,.43,.27,1.06-.16,1.41-.18,.15-.4,.22-.62,.22Zm-12.08-20.64c-.4,0-.77-.24-.93-.63-1.5-3.72-2.75-7.61-3.71-11.55-.13-.54,.2-1.08,.73-1.21,.54-.13,1.08,.2,1.21,.73,.94,3.85,2.16,7.64,3.62,11.27,.21,.51-.04,1.1-.55,1.3-.12,.05-.25,.07-.37,.07Zm-5.69-23.23c-.51,0-.94-.38-.99-.9-.31-3.04-.46-6.16-.46-9.28,0-.94,.01-1.89,.04-2.84,.02-.55,.47-.98,1.03-.97,.55,.02,.99,.48,.97,1.03-.03,.93-.04,1.85-.04,2.78,0,3.05,.15,6.1,.45,9.08,.06,.55-.35,1.04-.89,1.1-.03,0-.07,0-.1,0Zm.67-23.93s-.1,0-.15-.01c-.55-.08-.92-.59-.84-1.14,.59-3.92,1.42-7.91,2.47-11.85,.14-.53,.69-.85,1.22-.71,.53,.14,.85,.69,.71,1.22-1.03,3.87-1.84,7.79-2.42,11.63-.07,.5-.5,.85-.99,.85Zm6.11-23.16c-.12,0-.24-.02-.35-.06-.52-.19-.78-.77-.58-1.29,1.4-3.71,3.02-7.44,4.8-11.1,.24-.5,.84-.7,1.34-.46,.5,.24,.7,.84,.46,1.34-1.76,3.6-3.35,7.27-4.73,10.92-.15,.4-.53,.65-.94,.65Zm10.5-21.55c-.18,0-.35-.05-.51-.14-.47-.28-.63-.9-.34-1.37,.24-.4,.49-.8,.73-1.2,1.83-2.98,3.8-5.98,5.85-8.91,.32-.45,.94-.56,1.39-.25,.45,.32,.56,.94,.25,1.39-2.02,2.9-3.97,5.87-5.79,8.82-.24,.39-.48,.79-.72,1.18-.19,.31-.52,.48-.86,.48Zm13.71-19.67c-.22,0-.44-.07-.62-.22-.43-.34-.5-.97-.16-1.4,2.45-3.09,5.06-6.19,7.75-9.22,.37-.41,1-.45,1.41-.08,.41,.37,.45,1,.08,1.41-2.67,3.01-5.26,6.08-7.68,9.14-.2,.25-.49,.38-.78,.38Zm15.92-17.94c-.25,0-.51-.1-.7-.29-.39-.39-.4-1.02-.01-1.41,2.73-2.78,5.64-5.61,8.63-8.4,.4-.38,1.04-.35,1.41,.05,.38,.4,.35,1.04-.05,1.41-2.97,2.77-5.86,5.57-8.57,8.33-.2,.2-.45,.3-.71,.3Zm17.54-16.37c-.28,0-.56-.12-.76-.35-.36-.42-.31-1.05,.1-1.41,2.93-2.53,6.04-5.12,9.24-7.71,.43-.35,1.06-.28,1.41,.15,.35,.43,.28,1.06-.15,1.41-3.19,2.58-6.28,5.16-9.19,7.67-.19,.16-.42,.24-.65,.24Zm18.64-15.11c-.3,0-.6-.13-.79-.39-.34-.44-.25-1.07,.18-1.4,3.06-2.34,6.2-4.71,9.61-7.22,.44-.33,1.07-.23,1.4,.21,.33,.44,.23,1.07-.21,1.4-3.4,2.51-6.54,4.86-9.58,7.19-.18,.14-.4,.21-.61,.21Zm-170.76-14.06h-.02c-4.01-.07-8.06-.29-12.05-.63-.55-.05-.96-.53-.91-1.08,.05-.55,.53-.96,1.08-.91,3.94,.34,7.95,.56,11.91,.63,.55,.01,.99,.47,.98,1.02-.01,.55-.46,.98-1,.98Zm190.07-.18c-.31,0-.62-.15-.81-.42-.32-.45-.22-1.07,.23-1.4,3.26-2.33,6.53-4.64,9.8-6.94,.45-.32,1.08-.21,1.39,.24,.32,.45,.21,1.08-.24,1.39-3.27,2.29-6.53,4.6-9.79,6.93-.18,.13-.38,.19-.58,.19Zm-178.08-.01c-.53,0-.97-.41-1-.95-.03-.55,.4-1.02,.95-1.05,3.95-.2,7.95-.54,11.89-1.01,.55-.06,1.05,.33,1.11,.87,.07,.55-.33,1.05-.87,1.11-3.98,.48-8.03,.82-12.02,1.02-.02,0-.03,0-.05,0Zm-35.88-1.89c-.05,0-.1,0-.16-.01-.9-.14-1.79-.29-2.7-.44-3.07-.53-6.15-1.15-9.15-1.83-.54-.12-.88-.66-.75-1.2,.12-.54,.66-.88,1.2-.75,2.97,.68,6.02,1.29,9.05,1.81,.89,.15,1.78,.3,2.67,.44,.55,.09,.92,.6,.83,1.14-.08,.49-.5,.84-.99,.84Zm59.69-.96c-.47,0-.89-.33-.98-.81-.1-.54,.25-1.07,.8-1.17,3.89-.74,7.81-1.61,11.64-2.61,.54-.14,1.08,.18,1.22,.72,.14,.53-.18,1.08-.72,1.22-3.88,1.01-7.84,1.89-11.78,2.64-.06,.01-.12,.02-.19,.02Zm-83.07-4.38c-.1,0-.19-.01-.29-.04-3.86-1.17-7.7-2.49-11.41-3.93-.52-.2-.77-.78-.57-1.29,.2-.52,.78-.77,1.29-.57,3.67,1.42,7.46,2.72,11.27,3.88,.53,.16,.83,.72,.67,1.25-.13,.43-.53,.71-.96,.71Zm106.29-1.65c-.42,0-.81-.26-.95-.68-.18-.52,.11-1.09,.63-1.27,3.81-1.27,7.57-2.68,11.18-4.18,.51-.21,1.1,.03,1.31,.54,.21,.51-.03,1.1-.54,1.31-3.65,1.52-7.46,2.94-11.31,4.23-.1,.03-.21,.05-.32,.05Zm150.68-4.92c-.32,0-.63-.15-.82-.43-.32-.45-.21-1.07,.24-1.39,2.72-1.9,5.42-3.79,8.11-5.67l1.72-1.2c.45-.32,1.08-.2,1.39,.25,.32,.45,.2,1.08-.25,1.39l-1.72,1.2c-2.69,1.89-5.4,3.78-8.11,5.67-.17,.12-.38,.18-.58,.18Zm-279.33-2.07c-.14,0-.29-.03-.43-.1-3.64-1.73-7.23-3.62-10.69-5.62-.48-.28-.64-.89-.37-1.37,.28-.48,.89-.64,1.37-.37,3.41,1.97,6.96,3.83,10.55,5.54,.5,.24,.71,.83,.47,1.33-.17,.36-.53,.57-.9,.57Zm150.79-2.25c-.36,0-.71-.2-.89-.54-.25-.49-.06-1.09,.43-1.35,5.16-2.67,8.6-4.9,10.1-6.1,.43-.34,1.06-.28,1.41,.16,.35,.43,.27,1.06-.16,1.41-1.58,1.26-5.14,3.58-10.43,6.31-.15,.08-.3,.11-.46,.11Zm148.28-9.34c-.32,0-.63-.15-.83-.44-.31-.46-.19-1.08,.27-1.39l2.08-1.41c2.58-1.75,5.21-3.53,7.85-5.34,.46-.31,1.08-.2,1.39,.26,.31,.46,.2,1.08-.26,1.39-2.64,1.81-5.27,3.59-7.86,5.35l-2.07,1.41c-.17,.12-.37,.17-.56,.17Zm-319.83-.4c-.2,0-.39-.06-.57-.18-3.33-2.3-6.57-4.74-9.65-7.27-.43-.35-.49-.98-.14-1.41,.35-.43,.98-.49,1.41-.14,3.03,2.49,6.24,4.91,9.52,7.17,.45,.31,.57,.94,.26,1.39-.19,.28-.51,.43-.82,.43Zm339.61-13.21c-.31,0-.62-.15-.82-.42-.32-.45-.21-1.07,.24-1.39,3.51-2.49,6.68-4.8,9.68-7.05,.44-.33,1.07-.24,1.4,.2,.33,.44,.24,1.07-.2,1.4-3.02,2.26-6.2,4.58-9.73,7.08-.18,.12-.38,.18-.58,.18Zm-358.12-2.03c-.25,0-.51-.1-.7-.29-3.01-2.97-5.77-5.97-8.19-8.93-.35-.43-.29-1.06,.14-1.41,.43-.35,1.06-.29,1.41,.14,2.37,2.9,5.08,5.85,8.04,8.77,.39,.39,.4,1.02,.01,1.41-.2,.2-.45,.3-.71,.3Zm377.29-12.42c-.29,0-.58-.13-.78-.37-.35-.43-.29-1.06,.14-1.41,3.22-2.62,6.27-5.24,9.07-7.78,.41-.37,1.04-.34,1.41,.07,.37,.41,.34,1.04-.07,1.41-2.82,2.56-5.9,5.2-9.15,7.85-.19,.15-.41,.22-.63,.22Zm-392.64-6.02c-.31,0-.61-.14-.8-.4-2.38-3.2-4.74-6.5-7.02-9.79-.31-.45-.2-1.08,.25-1.39,.45-.31,1.08-.2,1.39,.25,2.27,3.28,4.62,6.56,6.98,9.74,.33,.44,.24,1.07-.21,1.4-.18,.13-.39,.2-.6,.2Zm410.36-10.14c-.25,0-.5-.09-.69-.28-.4-.38-.41-1.02-.03-1.41,2.85-2.97,5.5-5.97,7.87-8.94,.35-.43,.98-.5,1.41-.15,.43,.35,.5,.98,.15,1.41-2.41,3.01-5.1,6.06-7.99,9.07-.2,.2-.46,.31-.72,.31Zm-424.02-9.62c-.33,0-.65-.16-.84-.46-2.17-3.38-4.3-6.83-6.34-10.24-.28-.47-.13-1.09,.35-1.37,.47-.28,1.09-.13,1.37,.35,2.02,3.4,4.14,6.82,6.3,10.18,.3,.46,.16,1.08-.3,1.38-.17,.11-.35,.16-.54,.16Zm438.95-9.12c-.18,0-.37-.05-.54-.16-.47-.3-.6-.91-.31-1.38,2.17-3.42,4.09-6.92,5.69-10.4,.23-.5,.83-.72,1.33-.49,.5,.23,.72,.83,.49,1.33-1.64,3.56-3.6,7.13-5.82,10.63-.19,.3-.51,.46-.85,.46Zm-451.22-11.52c-.35,0-.7-.19-.88-.52-1.94-3.54-3.82-7.13-5.58-10.67-.25-.49-.05-1.09,.45-1.34,.49-.25,1.09-.05,1.34,.45,1.75,3.52,3.62,7.09,5.55,10.61,.27,.48,.09,1.09-.4,1.36-.15,.08-.32,.12-.48,.12Zm461.15-10.22c-.09,0-.18-.01-.27-.04-.53-.15-.84-.7-.69-1.24,.16-.57,.32-1.14,.47-1.72,.83-3.23,1.57-6.55,2.2-9.89,.1-.54,.62-.9,1.17-.8,.54,.1,.9,.62,.8,1.17-.63,3.38-1.38,6.75-2.23,10.02-.15,.59-.31,1.18-.48,1.77-.12,.44-.53,.73-.96,.73Zm-471.86-11.27c-.38,0-.75-.22-.91-.59-1.66-3.7-3.24-7.43-4.69-11.1-.2-.51,.05-1.09,.56-1.3,.51-.2,1.09,.05,1.3,.56,1.44,3.64,3.01,7.35,4.66,11.02,.23,.5,0,1.1-.5,1.32-.13,.06-.27,.09-.41,.09Zm476.3-12.3s-.07,0-.11,0c-.55-.06-.95-.55-.88-1.1,.43-3.89,.73-7.89,.89-11.9,.02-.55,.48-.98,1.04-.96,.55,.02,.98,.49,.96,1.04-.16,4.05-.46,8.1-.9,12.04-.06,.51-.49,.89-.99,.89Zm-485.14-10.02c-.42,0-.8-.26-.95-.68-1.32-3.84-2.53-7.71-3.62-11.5-.15-.53,.16-1.09,.69-1.24,.53-.15,1.08,.16,1.24,.69,1.07,3.76,2.28,7.59,3.58,11.4,.18,.52-.1,1.09-.62,1.27-.11,.04-.22,.05-.32,.05Zm486.11-13.94c-.54,0-.99-.43-1-.97-.1-3.92-.33-7.93-.67-11.92-.05-.55,.36-1.04,.91-1.08,.55-.06,1.04,.36,1.08,.91,.35,4.03,.58,8.08,.68,12.04,.01,.55-.42,1.01-.97,1.02h-.03Zm-492.68-9.13c-.46,0-.87-.32-.97-.78-.89-3.96-1.66-7.95-2.29-11.84-.09-.55,.28-1.06,.83-1.15,.54-.09,1.06,.28,1.15,.83,.62,3.85,1.38,7.8,2.26,11.72,.12,.54-.22,1.07-.76,1.2-.07,.02-.15,.02-.22,.02Zm490.63-14.76c-.49,0-.92-.36-.99-.86-.56-3.89-1.24-7.85-2.03-11.78-.11-.54,.24-1.07,.78-1.18,.54-.11,1.07,.24,1.18,.78,.79,3.97,1.48,7.97,2.04,11.89,.08,.55-.3,1.05-.85,1.13-.05,0-.1,.01-.14,.01Zm-494.41-8.92c-.51,0-.95-.39-.99-.91-.37-4.04-.59-8.09-.66-12.05,0-.55,.43-1.01,.98-1.02,.54,0,1.01,.43,1.02,.98,.07,3.91,.29,7.91,.66,11.9,.05,.55-.35,1.04-.9,1.09-.03,0-.06,0-.09,0Zm489.73-14.62c-.45,0-.85-.3-.97-.76-.97-3.82-2.05-7.7-3.22-11.52-.16-.53,.14-1.09,.66-1.25,.53-.16,1.09,.14,1.25,.66,1.18,3.85,2.27,7.76,3.24,11.61,.14,.54-.19,1.08-.72,1.21-.08,.02-.16,.03-.25,.03Zm-490.13-9.34s-.04,0-.06,0c-.55-.03-.97-.51-.94-1.06,.25-4.04,.67-8.08,1.24-12.02,.08-.55,.59-.93,1.13-.84,.55,.08,.92,.59,.84,1.13-.57,3.88-.98,7.86-1.22,11.85-.03,.53-.47,.94-1,.94Zm483.13-13.62c-.41,0-.8-.25-.94-.66-1.33-3.72-2.77-7.48-4.28-11.16-.21-.51,.04-1.1,.55-1.3,.51-.21,1.1,.04,1.3,.55,1.52,3.71,2.97,7.5,4.31,11.25,.19,.52-.08,1.09-.6,1.28-.11,.04-.22,.06-.34,.06Zm-479.64-10.1c-.08,0-.15,0-.23-.03-.54-.13-.87-.67-.74-1.2,.69-2.91,1.49-5.83,2.37-8.68,.3-.98,.62-1.96,.94-2.94,.18-.52,.74-.81,1.27-.63,.52,.17,.81,.74,.63,1.27-.32,.96-.63,1.93-.93,2.89-.87,2.8-1.65,5.68-2.33,8.55-.11,.46-.52,.77-.97,.77Zm470.55-12.11c-.38,0-.74-.21-.91-.58-1.67-3.6-3.44-7.21-5.26-10.74-.25-.49-.06-1.09,.43-1.35,.49-.25,1.09-.06,1.35,.43,1.84,3.55,3.62,7.19,5.3,10.81,.23,.5,.01,1.1-.49,1.33-.14,.06-.28,.09-.42,.09Zm-462.96-10.6c-.13,0-.27-.03-.4-.08-.51-.22-.74-.81-.52-1.32,1.58-3.64,3.36-7.29,5.28-10.86,.26-.49,.87-.67,1.35-.41,.49,.26,.67,.87,.41,1.35-1.89,3.51-3.64,7.12-5.21,10.71-.16,.38-.53,.6-.92,.6Zm451.92-10.7c-.35,0-.68-.18-.87-.5-1.99-3.45-4.07-6.89-6.2-10.22-.3-.47-.16-1.08,.31-1.38s1.08-.16,1.38,.31c2.14,3.36,4.24,6.82,6.24,10.3,.28,.48,.11,1.09-.37,1.37-.16,.09-.33,.13-.5,.13Zm-440.58-10.4c-.19,0-.37-.05-.54-.16-.46-.3-.6-.92-.3-1.38,2.15-3.33,4.47-6.66,6.91-9.89,.33-.44,.96-.53,1.4-.2,.44,.33,.53,.96,.2,1.4-2.41,3.19-4.71,6.48-6.83,9.77-.19,.3-.51,.46-.84,.46Zm427.68-9.82c-.31,0-.62-.15-.82-.42-2.3-3.27-4.69-6.5-7.11-9.61-.34-.44-.26-1.06,.17-1.4,.44-.34,1.06-.26,1.4,.17,2.44,3.13,4.85,6.39,7.17,9.68,.32,.45,.21,1.08-.24,1.39-.17,.12-.38,.18-.57,.18Zm-413.26-9.32c-.23,0-.47-.08-.66-.25-.42-.36-.46-.99-.1-1.41,2.59-2.99,5.35-5.96,8.2-8.84,.39-.39,1.02-.4,1.41,0,.39,.39,.4,1.02,0,1.41-2.82,2.85-5.55,5.79-8.11,8.75-.2,.23-.48,.34-.76,.34Zm398.51-9.61c-.28,0-.56-.12-.76-.35-2.61-3.03-5.32-6.01-8.03-8.84-.38-.4-.37-1.03,.03-1.41,.4-.38,1.03-.37,1.41,.03,2.74,2.86,5.47,5.86,8.11,8.92,.36,.42,.31,1.05-.1,1.41-.19,.16-.42,.24-.65,.24Zm-381.67-7.46c-.27,0-.55-.11-.74-.33-.37-.41-.34-1.04,.08-1.41,2.94-2.64,6.04-5.27,9.19-7.8,.43-.35,1.06-.28,1.41,.15,.35,.43,.28,1.06-.15,1.41-3.13,2.51-6.19,5.11-9.11,7.73-.19,.17-.43,.26-.67,.26Zm365.05-9.85c-.24,0-.49-.09-.68-.27-2.95-2.74-5.97-5.39-8.98-7.87-.43-.35-.49-.98-.14-1.41,.35-.43,.98-.49,1.41-.14,3.04,2.5,6.1,5.18,9.07,7.95,.4,.38,.43,1.01,.05,1.41-.2,.21-.46,.32-.73,.32Zm-346.35-5.17c-.31,0-.62-.14-.81-.42-.32-.45-.22-1.07,.23-1.4,3.21-2.31,6.56-4.6,9.95-6.8,.46-.3,1.08-.17,1.38,.3,.3,.46,.17,1.08-.3,1.38-3.36,2.18-6.68,4.44-9.87,6.74-.18,.13-.38,.19-.58,.19Zm327.81-10.05c-.2,0-.41-.06-.59-.19-3.19-2.31-6.51-4.57-9.87-6.71-.47-.3-.6-.92-.3-1.38,.3-.46,.92-.6,1.38-.3,3.39,2.17,6.74,4.45,9.97,6.78,.45,.32,.55,.95,.22,1.4-.2,.27-.5,.41-.81,.41Zm-307.68-3c-.34,0-.68-.18-.86-.5-.28-.48-.12-1.09,.36-1.37,3.43-2,6.97-3.97,10.53-5.84,.49-.26,1.09-.07,1.35,.42,.26,.49,.07,1.09-.42,1.35-3.54,1.86-7.06,3.81-10.46,5.8-.16,.09-.33,.14-.5,.14Zm287.48-9.91c-.17,0-.33-.04-.49-.13-3.44-1.94-6.99-3.81-10.56-5.57-.5-.24-.7-.84-.45-1.34,.24-.49,.84-.7,1.34-.45,3.6,1.78,7.19,3.67,10.66,5.62,.48,.27,.65,.88,.38,1.36-.18,.33-.52,.51-.87,.51Zm-266.25-1.27c-.37,0-.73-.21-.9-.57-.24-.5-.02-1.1,.48-1.33,3.59-1.7,7.28-3.36,10.99-4.93,.51-.22,1.1,.02,1.31,.53,.22,.51-.02,1.1-.53,1.31-3.68,1.56-7.35,3.21-10.91,4.9-.14,.07-.28,.1-.43,.1Zm244.74-9.36c-.13,0-.27-.03-.39-.08-3.62-1.56-7.35-3.05-11.09-4.44-.52-.19-.78-.77-.59-1.29,.19-.52,.77-.78,1.29-.59,3.77,1.4,7.53,2.91,11.19,4.48,.51,.22,.74,.81,.52,1.31-.16,.38-.53,.61-.92,.61Zm-222.65-.02c-.4,0-.78-.25-.94-.65-.2-.52,.06-1.09,.58-1.29,3.72-1.41,7.54-2.77,11.34-4.05,.52-.17,1.09,.11,1.27,.63,.18,.52-.11,1.09-.63,1.27-3.78,1.27-7.57,2.62-11.27,4.02-.12,.04-.24,.07-.35,.07Zm22.75-7.64c-.43,0-.83-.28-.96-.72-.16-.53,.15-1.09,.68-1.24,3.82-1.13,7.72-2.2,11.59-3.18,.53-.14,1.08,.19,1.22,.72,.14,.54-.19,1.08-.72,1.22-3.84,.98-7.72,2.04-11.52,3.16-.09,.03-.19,.04-.28,.04Zm177.41-.69c-.1,0-.2-.02-.3-.05-3.76-1.19-7.62-2.31-11.48-3.34-.53-.14-.85-.69-.71-1.22,.14-.53,.69-.85,1.22-.71,3.88,1.03,7.78,2.16,11.57,3.36,.53,.17,.82,.73,.65,1.25-.13,.43-.53,.7-.95,.7Zm-154.19-5.23c-.46,0-.88-.32-.98-.79-.12-.54,.23-1.07,.77-1.19,3.9-.84,7.87-1.63,11.8-2.33,.54-.1,1.06,.26,1.16,.81,.1,.54-.26,1.06-.81,1.16-3.9,.7-7.85,1.48-11.73,2.32-.07,.02-.14,.02-.21,.02Zm131.01-.94c-.07,0-.14,0-.21-.02-3.85-.84-7.8-1.61-11.74-2.28-.54-.09-.91-.61-.82-1.15,.09-.54,.62-.91,1.15-.82,3.97,.68,7.94,1.46,11.82,2.3,.54,.12,.88,.65,.76,1.19-.1,.47-.52,.79-.98,.79Zm-107.4-3.28c-.49,0-.92-.36-.99-.86-.08-.55,.3-1.05,.85-1.13,3.96-.56,7.98-1.05,11.94-1.47,.54-.05,1.04,.34,1.1,.89,.06,.55-.34,1.04-.89,1.1-3.94,.41-7.94,.9-11.87,1.46-.05,0-.09,0-.14,0Zm83.76-.79s-.09,0-.13,0c-3.91-.5-7.91-.93-11.89-1.28-.55-.05-.96-.53-.91-1.08,.05-.55,.52-.96,1.08-.91,4.01,.35,8.03,.78,11.97,1.29,.55,.07,.93,.57,.86,1.12-.06,.5-.5,.87-.99,.87Zm-59.89-1.7c-.52,0-.96-.4-1-.93-.04-.55,.38-1.03,.93-1.06,4-.27,8.04-.47,12.03-.59,.55-.04,1.01,.42,1.03,.97,.02,.55-.42,1.01-.97,1.03-3.96,.12-7.98,.31-11.95,.58-.02,0-.05,0-.07,0Zm35.99-.39h-.05c-3.95-.19-7.98-.3-11.96-.33-.55,0-1-.46-.99-1.01,0-.55,.45-.99,1-.99h0c4.01,.03,8.06,.14,12.04,.33,.55,.03,.98,.49,.95,1.05-.03,.54-.47,.95-1,.95Z"/><g><path d="M18.07,339.24s-.08,0-.12,0c-.55-.07-.94-.56-.87-1.11,5.67-47.53,21.84-93.18,48.07-135.68,25.73-41.68,59.84-78.29,101.37-108.81,.44-.33,1.07-.23,1.4,.21,.33,.45,.23,1.07-.21,1.4C84.37,156.48,30.19,245.1,19.07,338.36c-.06,.51-.49,.88-.99,.88Z"/><path d="M36.5,404.79c-.51,0-.95-.39-.99-.91-4.6-48.33,2.62-96.03,21.45-141.76,18.19-44.18,46.15-84.11,83.11-118.7,.4-.38,1.04-.36,1.41,.05,.38,.4,.36,1.04-.05,1.41C66.41,215.09,28.53,309.42,37.49,403.7c.05,.55-.35,1.04-.9,1.09-.03,0-.06,0-.1,0Z"/><path d="M162.18,138.86c-.23,0-.45-.08-.63-.22l-10.5-8.51c-.29-.23-.42-.61-.35-.97,.07-.36,.34-.66,.69-.76l13.14-3.97c.33-.1,.69-.02,.95,.21,.26,.23,.38,.57,.33,.92-1.05,6.28-2.65,12.5-2.66,12.56-.08,.33-.33,.59-.66,.7-.1,.03-.21,.05-.31,.05Zm-8.4-9.1l7.81,6.33c.47-1.94,1.29-5.51,1.97-9.29l-9.78,2.95Z"/></g><g><path d="M688.71,25.66c-.07,0-.13,0-.2-.02l-7.6-1.54c-.54-.11-.89-.64-.78-1.18,.11-.54,.63-.89,1.18-.78l7.6,1.54c.54,.11,.89,.64,.78,1.18-.1,.47-.51,.8-.98,.8Z"/><path d="M706.42,29.24c-.07,0-.13,0-.2-.02l-7.6-1.54c-.54-.11-.89-.64-.78-1.18,.11-.54,.63-.89,1.18-.78l7.6,1.54c.54,.11,.89,.64,.78,1.18-.1,.47-.51,.8-.98,.8Z"/><path d="M691.2,39.34c-.07,0-.13,0-.2-.02-.54-.11-.89-.64-.78-1.18l1.54-7.6c.11-.54,.63-.89,1.18-.78,.54,.11,.89,.64,.78,1.18l-1.54,7.6c-.1,.47-.51,.8-.98,.8Z"/><path d="M694.78,21.62c-.07,0-.13,0-.2-.02-.54-.11-.89-.64-.78-1.18l1.54-7.6c.11-.54,.63-.89,1.18-.78,.54,.11,.89,.64,.78,1.18l-1.54,7.6c-.1,.47-.51,.8-.98,.8Z"/></g><g><path d="M812.58,540.57h-.02c-.55-.01-.99-.47-.98-1.02,1.05-51.46-13.06-94.4-41.94-127.64-.36-.42-.32-1.05,.1-1.41,.42-.36,1.05-.32,1.41,.1,29.21,33.62,43.49,77.02,42.43,128.99-.01,.54-.46,.98-1,.98Z"/><path d="M797.21,539.22c-.55,0-.99-.44-1-.98-.81-51.47-16.47-93.87-46.53-126.04-.38-.4-.36-1.04,.05-1.41,.4-.38,1.04-.36,1.41,.05,30.41,32.54,46.25,75.39,47.07,127.37,0,.55-.43,1.01-.98,1.02h-.02Z"/></g></g><g><g><path class="e" d="M589.2,171.03c-3.34-.85-5.81-3.87-5.81-7.47,0-2.13,.88-4.18,2.44-5.63,6.14-5.71,9.8-14.05,9.18-23.23-.99-14.57-12.93-26.23-27.52-26.9-16.61-.76-30.32,12.48-30.32,28.92,0,8.38,3.56,15.93,9.25,21.21,1.56,1.45,2.44,3.49,2.44,5.63,0,3.6-2.47,6.62-5.81,7.47h-61.94v58.6h.05v1.43c0,4.26,3.46,7.72,7.72,7.72,2.13,0,4.18-.88,5.63-2.44,5.71-6.14,14.05-9.8,23.23-9.18,14.57,.99,26.23,12.93,26.9,27.52,.76,16.61-12.48,30.32-28.92,30.32-8.38,0-15.93-3.56-21.21-9.25-1.45-1.56-3.49-2.44-5.63-2.44-4.26,0-7.72,3.46-7.72,7.72v1.43h-.05v58.6h149.34c11.43,0,20.69-9.26,20.69-20.69V171.03h-61.94Z"/><path d="M630.45,342.06h-149.34c-.55,0-1-.45-1-1v-58.6c0-.11,.02-.21,.05-.3v-1.13c0-4.81,3.91-8.72,8.72-8.72,2.41,0,4.73,1.01,6.36,2.76,5.27,5.68,12.74,8.93,20.48,8.93s14.89-3.07,20.22-8.65c5.32-5.57,8.06-12.9,7.71-20.62-.65-14.18-11.82-25.6-25.97-26.57-8.49-.57-16.66,2.65-22.43,8.86-1.63,1.75-3.95,2.76-6.36,2.76-4.81,0-8.72-3.91-8.72-8.72v-1.14c-.03-.09-.05-.19-.05-.29v-58.6c0-.55,.45-1,1-1h61.81c2.92-.8,4.94-3.44,4.94-6.47,0-1.86-.77-3.64-2.12-4.89-6.08-5.65-9.57-13.65-9.57-21.94s3.29-15.95,9.27-21.66c5.97-5.7,13.81-8.63,22.1-8.26,15.2,.7,27.44,12.66,28.47,27.83,.62,9.09-2.84,17.85-9.5,24.03-1.35,1.25-2.12,3.04-2.12,4.9,0,3.03,2.03,5.67,4.94,6.47h61.81c.55,0,1,.45,1,1v149.34c0,11.96-9.73,21.69-21.69,21.69Zm-148.34-2h148.34c10.86,0,19.69-8.83,19.69-19.69V172.03h-60.94c-.08,0-.17-.01-.25-.03-3.87-.98-6.57-4.45-6.57-8.44,0-2.41,1.01-4.73,2.76-6.36,6.21-5.77,9.44-13.95,8.86-22.43-.96-14.15-12.38-25.32-26.57-25.97-7.73-.36-15.05,2.38-20.62,7.71-5.58,5.33-8.65,12.51-8.65,20.22s3.25,15.21,8.93,20.48c1.75,1.63,2.76,3.95,2.76,6.36,0,3.99-2.7,7.46-6.57,8.44-.08,.02-.16,.03-.25,.03h-60.94v57.31c.03,.09,.05,.19,.05,.29v1.43c0,3.7,3.01,6.72,6.72,6.72,1.86,0,3.64-.77,4.9-2.12,6.18-6.65,14.94-10.12,24.03-9.5,15.17,1.03,27.13,13.27,27.83,28.47,.38,8.28-2.55,16.12-8.26,22.1-5.71,5.98-13.4,9.27-21.66,9.27s-16.29-3.49-21.94-9.57c-1.25-1.35-3.04-2.12-4.89-2.12-3.7,0-6.72,3.01-6.72,6.72v1.43c0,.11-.02,.21-.05,.3v57.3Z"/></g><g><path class="e" d="M630.45,1h-149.34V62.45c-.66,3.59-3.8,6.31-7.58,6.31-2.13,0-4.18-.88-5.63-2.44-5.71-6.14-14.05-9.8-23.23-9.18-14.57,.99-26.23,12.93-26.9,27.52-.76,16.61,12.48,30.32,28.92,30.32,8.38,0,15.93-3.56,21.21-9.25,1.45-1.56,3.49-2.44,5.63-2.44,3.78,0,6.92,2.72,7.58,6.31v61.45h61.94c3.34-.85,5.81-3.87,5.81-7.47,0-2.13-.88-4.18-2.44-5.63-5.69-5.29-9.25-12.83-9.25-21.21,0-16.44,13.71-29.68,30.32-28.92,14.59,.67,26.53,12.33,27.52,26.9,.62,9.18-3.04,17.52-9.18,23.23-1.56,1.45-2.44,3.49-2.44,5.63,0,3.6,2.47,6.62,5.81,7.47h61.94V21.69c0-11.43-9.27-20.69-20.69-20.69Z"/><path d="M651.14,172.03h-61.94c-.08,0-.17-.01-.25-.03-3.87-.98-6.57-4.45-6.57-8.44,0-2.41,1.01-4.73,2.76-6.36,6.21-5.77,9.44-13.95,8.86-22.43-.96-14.15-12.38-25.32-26.57-25.97-7.73-.36-15.05,2.38-20.62,7.71-5.58,5.33-8.65,12.51-8.65,20.22s3.25,15.21,8.93,20.48c1.75,1.63,2.76,3.95,2.76,6.36,0,3.99-2.7,7.46-6.57,8.44-.08,.02-.16,.03-.25,.03h-61.94c-.55,0-1-.45-1-1v-61.35c-.62-3.13-3.38-5.4-6.58-5.4-1.86,0-3.64,.77-4.89,2.12-5.65,6.08-13.65,9.57-21.94,9.57s-15.95-3.29-21.66-9.27c-5.7-5.97-8.64-13.82-8.26-22.1,.7-15.2,12.66-27.44,27.83-28.47,9.09-.62,17.85,2.84,24.03,9.5,1.25,1.35,3.04,2.12,4.9,2.12,3.21,0,5.96-2.27,6.58-5.4V1c0-.55,.45-1,1-1h149.34c11.96,0,21.69,9.73,21.69,21.69V171.03c0,.55-.45,1-1,1Zm-61.81-2h60.81V21.69c0-10.86-8.83-19.69-19.69-19.69h-148.34V62.45c0,.06,0,.12-.02,.18-.76,4.13-4.37,7.12-8.57,7.12-2.41,0-4.73-1.01-6.36-2.76-5.77-6.21-13.95-9.44-22.43-8.86-14.15,.96-25.32,12.38-25.97,26.57-.35,7.73,2.38,15.05,7.7,20.62,5.33,5.58,12.51,8.65,20.22,8.65s15.21-3.25,20.48-8.93c1.63-1.75,3.95-2.76,6.36-2.76,4.2,0,7.8,3,8.57,7.12,.01,.06,.02,.12,.02,.18v60.45h60.81c2.92-.8,4.94-3.44,4.94-6.47,0-1.86-.77-3.64-2.12-4.89-6.08-5.65-9.57-13.65-9.57-21.94s3.29-15.95,9.27-21.66c5.97-5.7,13.81-8.63,22.1-8.26,15.2,.7,27.44,12.66,28.47,27.83,.62,9.09-2.84,17.85-9.5,24.03-1.35,1.25-2.12,3.04-2.12,4.9,0,3.03,2.03,5.67,4.94,6.47Z"/></g><g><path class="e" d="M444.67,57.13c9.18-.62,17.52,3.04,23.23,9.18,1.45,1.56,3.5,2.44,5.63,2.44,3.78,0,6.92-2.72,7.58-6.31V1h-149.34c-11.43,0-20.69,9.26-20.69,20.69V171.03h58.6v.04h1.43c4.26,0,7.72,3.46,7.72,7.72,0,2.13-.88,4.18-2.44,5.63-5.69,5.29-9.25,12.83-9.25,21.21,0,16.44,13.71,29.68,30.32,28.92,14.59-.67,26.53-12.33,27.52-26.9,.62-9.18-3.04-17.52-9.18-23.23-1.56-1.45-2.44-3.49-2.44-5.63,0-4.26,3.45-7.72,7.72-7.72h1.43v-.04h58.6v-61.45c-.66-3.59-3.8-6.31-7.58-6.31-2.13,0-4.18,.88-5.63,2.44-5.29,5.69-12.83,9.25-21.21,9.25-16.44,0-29.68-13.71-28.92-30.32,.67-14.59,12.33-26.53,26.9-27.52Z"/><path d="M396.08,235.58c-7.75,0-15.04-2.91-20.67-8.29-5.98-5.71-9.27-13.4-9.27-21.66s3.49-16.29,9.57-21.94c1.35-1.25,2.12-3.04,2.12-4.89,0-3.7-3.01-6.72-6.72-6.72h-1.43c-.09,0-.19-.01-.27-.04h-58.33c-.55,0-1-.45-1-1V21.69c0-11.96,9.73-21.69,21.69-21.69h149.34c.55,0,1,.45,1,1V62.45c0,.06,0,.12-.02,.18-.76,4.13-4.37,7.12-8.57,7.12-2.41,0-4.73-1.01-6.36-2.76-5.77-6.21-13.95-9.44-22.43-8.86-14.15,.96-25.32,12.38-25.97,26.57-.35,7.73,2.38,15.05,7.7,20.62,5.33,5.58,12.51,8.65,20.22,8.65s15.21-3.25,20.48-8.93c1.63-1.75,3.95-2.76,6.36-2.76,4.2,0,7.8,3,8.57,7.12,.01,.06,.02,.12,.02,.18v61.45c0,.55-.45,1-1,1h-58.34c-.08,.02-.17,.04-.26,.04h-1.43c-3.7,0-6.72,3.01-6.72,6.72,0,1.86,.77,3.64,2.12,4.9,6.65,6.18,10.11,14.94,9.5,24.03-1.03,15.17-13.27,27.13-28.47,27.83-.48,.02-.95,.03-1.43,.03Zm-26.13-65.51h1.16c4.81,0,8.72,3.91,8.72,8.72,0,2.41-1.01,4.73-2.76,6.36-5.68,5.27-8.93,12.74-8.93,20.48s3.07,14.89,8.65,20.22c5.57,5.32,12.89,8.06,20.62,7.71,14.18-.65,25.6-11.82,26.57-25.97,.58-8.49-2.65-16.66-8.86-22.43-1.75-1.63-2.76-3.95-2.76-6.36,0-4.81,3.91-8.72,8.72-8.72h1.17c.08-.02,.17-.04,.26-.04h57.6v-60.35c-.62-3.13-3.38-5.4-6.58-5.4-1.86,0-3.64,.77-4.89,2.12-5.65,6.08-13.65,9.57-21.94,9.57s-15.95-3.29-21.66-9.27c-5.7-5.97-8.64-13.82-8.26-22.1,.7-15.2,12.66-27.44,27.83-28.47,9.09-.62,17.85,2.84,24.03,9.5,1.25,1.35,3.04,2.12,4.9,2.12,3.21,0,5.96-2.27,6.58-5.4V2h-148.34c-10.86,0-19.69,8.83-19.69,19.69V170.03h57.6c.09,0,.19,.01,.27,.04Zm74.71-112.94h0Z"/></g></g><g><path class="e" d="M526.56,271.64c-.67-14.59-12.33-26.53-26.9-27.52-9.18-.62-17.52,3.04-23.23,9.18-1.45,1.56-3.49,2.44-5.63,2.44-4.26,0-7.72-3.46-7.72-7.72v-1.43h-.05v-58.6h-58.6v.04h-1.43c-4.26,0-7.72,3.46-7.72,7.72,0,2.13,.88,4.18,2.44,5.63,6.14,5.71,9.8,14.05,9.18,23.23-.99,14.57-12.93,26.23-27.52,26.9-16.61,.76-30.32-12.48-30.32-28.92,0-8.38,3.56-15.93,9.25-21.21,1.56-1.45,2.44-3.49,2.44-5.63,0-4.26-3.46-7.72-7.72-7.72h-1.43v-.04h-58.6v149.34c0,11.43,9.26,20.69,20.69,20.69h149.34v-58.6h.05v-1.43c0-4.26,3.46-7.72,7.72-7.72,2.13,0,4.18,.88,5.63,2.44,5.29,5.69,12.83,9.25,21.21,9.25,16.44,0,29.68-13.71,28.92-30.32Z"/><path d="M463.03,359.02h-149.34c-11.96,0-21.69-9.73-21.69-21.69V187.99c0-.55,.45-1,1-1h58.6c.09,0,.18,.01,.27,.04h1.16c4.81,0,8.72,3.91,8.72,8.72,0,2.41-1.01,4.73-2.76,6.36-5.68,5.27-8.93,12.74-8.93,20.48s3.07,14.89,8.65,20.22c5.57,5.32,12.9,8.06,20.62,7.71,14.18-.65,25.6-11.82,26.57-25.97,.58-8.49-2.65-16.66-8.86-22.43-1.75-1.63-2.76-3.95-2.76-6.36,0-4.81,3.91-8.72,8.72-8.72h1.17c.08-.02,.17-.04,.26-.04h58.6c.55,0,1,.45,1,1v58.31c.03,.09,.05,.19,.05,.29v1.43c0,3.7,3.01,6.72,6.72,6.72,1.86,0,3.64-.77,4.9-2.12,6.18-6.65,14.94-10.12,24.03-9.5,15.17,1.03,27.13,13.27,27.83,28.47,.38,8.28-2.55,16.12-8.26,22.1-5.71,5.98-13.4,9.27-21.66,9.27s-16.29-3.49-21.94-9.57c-1.25-1.35-3.04-2.12-4.89-2.12-3.7,0-6.72,3.01-6.72,6.72v1.43c0,.11-.02,.21-.05,.3v58.3c0,.55-.45,1-1,1Zm-169.03-170.03v148.34c0,10.86,8.83,19.69,19.69,19.69h148.34v-57.6c0-.11,.02-.21,.05-.3v-1.13c0-4.81,3.91-8.72,8.72-8.72,2.41,0,4.73,1.01,6.36,2.76,5.27,5.67,12.74,8.93,20.48,8.93s14.89-3.07,20.22-8.65c5.32-5.57,8.06-12.9,7.71-20.62-.65-14.18-11.82-25.6-25.97-26.57-8.49-.58-16.66,2.65-22.43,8.86-1.63,1.75-3.95,2.76-6.36,2.76-4.81,0-8.72-3.91-8.72-8.72v-1.14c-.03-.09-.05-.19-.05-.29v-57.6h-57.34c-.08,.02-.17,.04-.26,.04h-1.43c-3.7,0-6.72,3.01-6.72,6.72,0,1.86,.77,3.64,2.12,4.9,6.65,6.18,10.11,14.94,9.5,24.03-1.03,15.17-13.27,27.13-28.47,27.83-8.28,.38-16.12-2.55-22.1-8.26-5.98-5.71-9.27-13.4-9.27-21.66s3.49-16.29,9.57-21.94c1.35-1.25,2.12-3.04,2.12-4.89,0-3.7-3.01-6.72-6.72-6.72h-1.43c-.09,0-.18-.01-.27-.04h-57.33Z"/></g><g><g><path class="f" d="M169.14,356.53c12.64-8.35,33.73-3.85,41.85,17.12,6.63,17.13-8.2,30.35-11.96,42.98-12.16,40.86,27.17,128.05,.45,172.58-21.32,35.52-80.6,61.72-131.73,39.57-48.62-21.06-81.67-71.76-61.95-113.26,17.73-37.3,51.23-19.66,71.57-56.43,20.05-36.25,1.64-53.32,16.31-71.47,20.06-24.82,39.64-7.43,75.46-31.08Z"/><g><g><path class="e" d="M389.52,321.06l-8.04,25.77c-2.65,7.99-1.32,16.76,3.58,23.6l9.02,12.94c1.49,2.14,1.91,4.74,1.95,7.35,.11,5.85-.77,14.77-.77,14.77l21.49,.35s-2.36-11.33-3.44-15.22c-1.39-4.98-1.43-10.42,.74-15.11,6.9-14.92,5.02-15.45,5.02-15.45l-14.85-10.53s-4.56-7.75-3.69-21.28c.21-3.31-.14-5.83-.81-7.75-1.72-4.95-8.89-4.52-10.19,.55Z"/><path d="M416.75,406.85h-.02l-21.49-.35c-.28,0-.54-.13-.73-.33-.19-.21-.28-.49-.25-.76,0-.09,.87-8.93,.76-14.66-.06-2.98-.62-5.14-1.77-6.8l-9.02-12.94c-5.06-7.07-6.44-16.23-3.7-24.49l8.03-25.73c.72-2.77,3.05-4.64,5.94-4.76,2.83-.12,5.24,1.51,6.16,4.16,.77,2.22,1.06,4.96,.86,8.14-.76,11.93,2.82,19.32,3.46,20.53l14.62,10.36c.21,.13,.39,.33,.51,.59,.29,.62,1.15,2.5-5.15,16.13-1.9,4.1-2.14,9.22-.69,14.42,1.08,3.88,3.36,14.82,3.46,15.28,.06,.3-.01,.61-.21,.84-.19,.23-.47,.36-.77,.36Zm-20.39-2.33l19.16,.31c-.64-3.03-2.32-10.87-3.17-13.93-1.58-5.66-1.29-11.27,.8-15.8,5.01-10.83,5.22-13.71,5.16-14.34l-14.67-10.4c-.12-.08-.21-.19-.28-.31-.19-.33-4.7-8.17-3.83-21.85,.18-2.91-.07-5.39-.75-7.36-.75-2.17-2.66-2.87-4.18-2.81-1.52,.06-3.5,.96-4.09,3.29,0,.02,0,.03-.01,.05l-8.04,25.77c-2.54,7.67-1.26,16.16,3.43,22.72l9.03,12.95c1.83,2.62,2.09,5.77,2.13,7.9,.09,4.7-.44,11.25-.67,13.81Zm22.44-43.48h0Zm-.1-.03s.06,.02,.1,.03c-.03,0-.07-.02-.1-.03Zm-29.17-39.93h0Z"/></g><g><path class="e" d="M421.55,395.45l-32.26,2.79s-1.63,45-34.6,78.85c-23,23.62-57.47,18.6-82.6,12.69-39.19-14.48-96.39-11.42-126.6,1.65-60.44,26.16-95.71,232.77-76.55,277.23,17.5,40.6,167.54,48.8,209.3,13.89,17.79-14.87,12.18-103.25,9.16-138.57-.92-10.74-1.36-21.5-1.35-32.27l.02-17.56c15.81-3.44,113.04-26.77,134.63-84.41,23.04-61.52,.84-114.3,.84-114.3Z"/><path d="M184.51,805.57c-22.89,0-46.04-2.47-65.53-7.11-27.51-6.55-45.6-16.99-50.95-29.4-9.58-22.23-6.06-83.67,8.37-146.1,7.51-32.5,17.21-61.5,28.05-83.86,12.61-26.02,26.29-42.36,40.66-48.58,29.19-12.64,86.15-16.87,127.28-1.7,26.34,6.19,59.41,10.35,81.59-12.43,32.31-33.18,34.3-77.75,34.32-78.19,.02-.5,.41-.92,.91-.96l32.26-2.79c.43-.04,.84,.21,1.01,.61,.22,.53,22.09,53.85-.83,115.03-21.29,56.83-114.03,80.32-134.56,84.86l-.02,16.75c-.01,10.75,.44,21.58,1.35,32.19,3.15,36.89,8.53,124.33-9.52,139.42-18.3,15.3-55.97,22.25-94.39,22.25Zm27.03-324.29c-25.33,0-49.77,4.2-65.65,11.07-25.92,11.22-51.18,60.22-67.55,131.06-14.11,61.06-17.75,123.33-8.48,144.86,5.09,11.81,22.7,21.85,49.57,28.25,26.23,6.25,58.45,8.46,88.4,6.09,31.96-2.54,56.74-9.93,69.77-20.82,17.82-14.89,11.25-109.18,8.81-137.72-.91-10.66-1.37-21.55-1.36-32.36l.02-17.56c0-.47,.33-.88,.79-.98,7.94-1.73,36.1-8.41,64.94-21.81,36.76-17.08,59.96-37.93,68.96-61.97,21.24-56.71,3.55-106.55,1.12-112.88l-30.66,2.65c-.46,6.51-4.51,47.5-34.83,78.63-22.9,23.51-56.67,19.28-83.54,12.97-.04,0-.08-.02-.12-.04-17.81-6.58-39.31-9.44-60.21-9.44Z"/></g></g><g><path class="e" d="M155.58,428.78c1.32,.06,2.36-1.05,2.22-2.37-.67-6.26-2.68-18,3.31-23.26,7.68-6.75,20.46-17.02,25.41-10.74,4.34,5.51,8.73,16.68,19.22,20.84,1,.4,1.1,1.85,.66,2.83l-2.2,5.57c-.5,1.1-.06,3.66,.41,4.79,1.45,3.47,4.82,10.72,4.17,12.24-1.27,2.96-12.72,8.26-12.72,8.26l7.58,35.4c.29,1.34,1.19,3.57,2.51,3.24l13.99,1.04s-.87,19.19-30.62,24.49c-38.87,6.92-43.98-19.15-43.98-19.15,0,0,38-.6,21.45-42.04-.36-.91-1.19-1.56-2.15-1.71-3.7-.56-13.92-2.57-15.86-9.15-2.06-6.99,2.11-10.47,6.62-10.27Z"/><path d="M177.28,513.26c-28.23,0-32.69-20.88-32.74-21.12-.06-.29,.02-.59,.2-.82,.19-.23,.46-.37,.76-.37,.15,0,14.66-.37,21.3-10.35,4.7-7.07,4.45-17.28-.76-30.32-.23-.58-.76-.99-1.38-1.09-5.38-.82-14.7-3.18-16.67-9.86-1.31-4.46-.18-7.2,1.01-8.72,1.5-1.92,3.91-2.95,6.61-2.84,.34,.01,.66-.11,.89-.36,.23-.24,.33-.57,.3-.91-.06-.54-.13-1.12-.2-1.73-.8-6.86-2.02-17.23,3.84-22.39,6.62-5.82,16.15-13.5,22.55-12.91,1.78,.16,3.23,.94,4.31,2.31,1.12,1.42,2.24,3.21,3.43,5.1,3.48,5.54,7.81,12.44,15.37,15.43,.6,.24,1.06,.7,1.32,1.34,.34,.84,.29,1.93-.12,2.83l-2.18,5.52c-.34,.75-.05,2.96,.4,4.03,.22,.53,.49,1.16,.78,1.84,2.78,6.44,3.99,9.75,3.38,11.18-1.23,2.87-9.52,7.01-12.5,8.43l7.41,34.63c.24,1.11,.76,2.18,1.19,2.45,.06,.04,.08,.03,.1,.03,.1-.03,.21-.04,.32-.03l13.99,1.04c.54,.04,.95,.5,.92,1.04,0,.2-1.26,20.05-31.44,25.43-4.57,.81-8.69,1.17-12.4,1.17Zm-30.48-20.38c1.48,4.87,9.31,23.15,42.53,17.23,24.81-4.42,28.99-18.73,29.66-22.58l-12.8-.95c-.5,.08-1-.03-1.46-.31-1.42-.88-1.99-3.26-2.09-3.73l-7.58-35.41c-.1-.46,.13-.92,.56-1.12,4.61-2.13,11.45-5.94,12.22-7.74,.29-1.11-2.28-7.06-3.38-9.6-.3-.69-.57-1.32-.79-1.85-.51-1.21-1.07-4.11-.4-5.59l2.18-5.52c.2-.45,.24-.97,.1-1.3-.07-.18-.16-.22-.2-.23-8.16-3.24-12.69-10.44-16.32-16.23-1.16-1.84-2.25-3.59-3.31-4.92-.74-.93-1.69-1.44-2.92-1.55-6.26-.56-17.39,9.21-21.04,12.42-5.07,4.46-3.93,14.21-3.18,20.65,.07,.62,.14,1.21,.2,1.75,.1,.92-.2,1.82-.83,2.49-.62,.67-1.51,1.03-2.43,.99h0c-2.04-.08-3.85,.67-4.95,2.07-1.29,1.65-1.52,4.04-.67,6.92,1.72,5.82,11.1,7.85,15.05,8.45,1.32,.2,2.44,1.09,2.93,2.32,5.47,13.7,5.66,24.52,.56,32.18-6.11,9.17-17.8,10.85-21.67,11.16Z"/></g><g><g><path class="e" d="M307.75,718.42s22.76-8.08,38.55-3.64c0,0,2.36,9.86,9.18,14.25,6.82,4.39,23.5,6.43,26.68,15.91,3.18,9.48-30.18,18.61-42.1,13.79-11.91-4.81-22.67-16.79-33.97-16.22-11.3,.57,1.66-24.1,1.66-24.1Z"/><path d="M348.89,761.07c-3.61,0-6.82-.44-9.21-1.4-4.62-1.87-9.07-4.79-13.36-7.61-6.95-4.56-13.5-8.87-20.18-8.54-2.71,.14-4.06-1.06-4.72-2.09-3.67-5.75,4.5-21.68,5.45-23.48,.12-.22,.31-.39,.55-.48,.94-.33,23.25-8.14,39.16-3.66,.35,.1,.62,.38,.7,.73,.02,.09,2.35,9.53,8.74,13.64,2.12,1.36,5.34,2.53,8.76,3.77,7.51,2.72,16.03,5.8,18.33,12.66,.52,1.54,.52,3.95-2.38,6.69-6,5.65-20.77,9.75-31.83,9.75Zm-42-19.56c7.01,0,13.59,4.32,20.53,8.88,4.21,2.77,8.57,5.63,13.01,7.43,8.97,3.62,31.52-.99,38.92-7.95,1.71-1.61,2.34-3.16,1.86-4.59-2-5.94-10.03-8.85-17.11-11.42-3.52-1.28-6.85-2.48-9.16-3.97-6.18-3.98-8.82-12.03-9.45-14.28-14.19-3.7-34.09,2.65-37.03,3.64-2.51,4.87-7.87,17.17-5.35,21.12,.55,.86,1.5,1.24,2.94,1.17,.28-.01,.57-.02,.85-.02Z"/></g><path class="e" d="M151.71,593.06l26.53,61.27c5.49,12.67,16.17,22.35,29.32,26.57l101.78,32.65-2.38,35.36s-133.71-12.55-156.83-29.6c-21.64-15.96-48.85-89.61-48.85-89.61l50.44-36.64Z"/><path d="M306.95,749.9s-.06,0-.09,0c-5.47-.51-134.25-12.77-157.33-29.79-21.64-15.95-48.08-87.04-49.19-90.06-.19-.52,.07-1.09,.59-1.28,.52-.19,1.09,.07,1.28,.59,.27,.73,27.35,73.55,48.5,89.15,21.58,15.91,142.86,28.1,155.31,29.31l2.26-33.55-101.04-32.42c-13.42-4.31-24.33-14.19-29.93-27.12-.22-.51,.01-1.1,.52-1.31,.51-.22,1.1,.01,1.32,.52,5.37,12.4,15.83,21.89,28.7,26.02l101.78,32.65c.44,.14,.72,.56,.69,1.02l-2.38,35.36c-.02,.27-.14,.52-.35,.69-.18,.15-.41,.24-.65,.24Z"/></g></g><g><path class="e" d="M566.47,583.03c-3.92-16.41-50.07-21.82-55.19-14.11-11.89,17.9-32.3,62.78-43.21,87.48-4.88,11.05-13.25,20.17-23.84,25.99l-61.58,33.86c-3.28-.84-33.42-8.53-36.43-7.9-3.18,.67-6.94,6.61-14.83,11.07-7.89,4.46-13.85,7.13-11.98,10.58,1.66,3.07,16.47,1.88,26.88-2.71,2.1-.92,4.57-.37,6.12,1.33,3.72,4.09,20.06,11.36,34.74,11.29l98.72-16.2c10.28-1.69,19.33-7.73,24.81-16.59,18.85-30.51,61.03-102.11,55.78-124.08Z"/><path d="M386.95,740.91c-15.33,0-31.52-7.5-35.26-11.62-1.27-1.4-3.27-1.84-4.97-1.09-9.93,4.37-25.98,6.33-28.17,2.27-2.11-3.9,2.79-6.62,9.57-10.37,.9-.5,1.83-1.01,2.8-1.56,4.06-2.29,7-4.99,9.36-7.15,2.31-2.12,3.98-3.65,5.76-4.02,3.04-.63,28.2,5.69,36.5,7.81l61.23-33.67c10.33-5.68,18.64-14.75,23.4-25.52,11.06-25.04,31.39-69.72,43.29-87.63,2.96-4.46,16.26-4.7,27.87-2.64,6.14,1.09,26.37,5.55,29.12,17.07,5.34,22.38-37.32,94.76-55.91,124.84-5.63,9.1-14.92,15.32-25.5,17.06l-98.72,16.2c-.12,.02-.25,.01-.37,.01Zm-38.52-15.06c1.76,0,3.48,.73,4.73,2.1,3.44,3.78,19.24,10.96,33.79,10.96h.12l98.64-16.19c10.01-1.64,18.8-7.52,24.12-16.13,18.46-29.87,60.83-101.68,55.66-123.32-1.96-8.22-15.51-13.43-27.53-15.56-12.17-2.16-23.77-1.37-25.85,1.78-11.81,17.78-32.09,62.35-43.13,87.33-4.93,11.17-13.55,20.57-24.27,26.46l-61.58,33.86c-.22,.12-.48,.16-.73,.09-16.45-4.22-34.09-8.28-35.97-7.89-1.24,.26-2.82,1.71-4.82,3.54-2.44,2.24-5.48,5.02-9.73,7.42-.97,.55-1.91,1.07-2.81,1.57-6.35,3.52-9.89,5.61-8.78,7.67,1.11,2.06,14.61,1.69,25.6-3.15,.82-.36,1.68-.53,2.53-.53Z"/></g><g><g><path class="e" d="M797.35,623.67s-20.62-102.47-79.47-126.84c-58.85-24.36-150.59-10.85-171.34,3.84-20.75,14.69-51.54,83.6-51.54,83.6l45.24,59.92s-5.08,85.43,1.69,140.69c1.4,11.45,10.8,19.96,21.74,19.66,14.71-.41,35.18-1.19,49.6-2.6,27.05-2.64,83.77-1.33,128.55-.67,10.09,.15,17.63-8.41,16.75-19.02l-13.03-157.24,51.81-1.33Z"/><path d="M541.92,785.89c-.5,0-.93-.37-.99-.88-6.47-52.88-2.06-134.31-1.71-140.5l-45.02-59.63c-.22-.29-.26-.68-.12-1.01,1.26-2.82,31.14-69.33,51.88-84.01,20.01-14.17,111.52-29.11,172.3-3.95,30.71,12.71,50.85,46.76,62.34,73.08,12.41,28.43,17.68,54.23,17.73,54.48,.06,.29-.01,.59-.2,.82-.18,.23-.46,.37-.76,.38l-50.75,1.31,11.99,144.64c.05,.55-.36,1.03-.91,1.08-.55,.05-1.03-.36-1.08-.91l-12.07-145.69c-.02-.27,.07-.55,.25-.75,.18-.2,.44-.32,.72-.33l50.61-1.3c-2.53-11.4-24.31-102.46-78.62-124.94-34.83-14.42-77.3-14.12-99.51-12.65-30.99,2.04-60.14,8.78-70.88,16.39-19.33,13.69-48.03,76.18-50.96,82.66l44.89,59.45c.14,.19,.21,.42,.2,.66-.05,.85-4.99,85.97,1.68,140.5,.07,.55-.32,1.05-.87,1.11-.04,0-.08,0-.12,0Z"/><polygon points="547.69 709.22 659.52 703.58 618.19 580.42 506.36 586.06 547.69 709.22"/><g><path class="e" d="M788.33,623.91l-57.87-22.45s12.81,95.5-103.94,56.99c0,0,3.6-12.54,2.28-26.9-1.32-14.36-9.23,0-9.85,11.76-.62,11.76-27.74,8.37-44.13,4.57-16.39-3.8-37.44,.29,.96,19.02,38.4,18.72,46.13,9.12,46.13,9.12,0,0,51.08,64.36,109.73,47.18,72.14-21.13,56.69-99.29,56.69-99.29Z"/><path d="M711.47,727.09c-22.65,0-42.94-10.28-57.26-20.21-17.47-12.12-29.58-26.02-32.44-29.44-2.98,2.02-14.11,6.13-46.43-9.63-16.37-7.98-23.58-13.98-22.04-18.33,1.72-4.84,13.75-4.41,21.74-2.56,14.59,3.38,33.98,5.56,40.59,.58,1.47-1.1,2.22-2.49,2.31-4.23,.43-8.19,4.39-18.65,8.22-18.72h.05c2.93,0,3.41,5.21,3.57,6.93,1.13,12.31-1.26,23.15-2.06,26.34,38.56,12.56,66.83,11.71,84-2.53,22.16-18.38,17.78-53.31,17.73-53.67-.05-.35,.09-.7,.37-.92,.28-.22,.65-.27,.98-.15l57.87,22.45c.32,.12,.55,.4,.62,.74,.04,.2,3.85,20.01-1.3,42.14-4.76,20.5-18.36,47.25-56.09,58.3-6.96,2.04-13.81,2.92-20.45,2.92Zm-89.57-52.06h.02c.3,0,.58,.14,.77,.37,.13,.16,12.94,16.16,32.7,29.86,18.15,12.58,46.07,25.74,75.97,16.98,29.52-8.65,47.92-27.75,54.69-56.77,4.6-19.71,1.95-37.55,1.4-40.83l-55.84-21.66c.58,7.31,1.59,37.06-18.59,53.81-17.88,14.84-47.08,15.71-86.81,2.61-.51-.17-.8-.71-.65-1.23,.04-.12,3.53-12.54,2.24-26.53-.39-4.19-1.3-5.15-1.59-5.11-1.68,.03-5.81,8.19-6.27,16.83-.12,2.34-1.17,4.26-3.11,5.73-9,6.78-34.61,1.54-42.24-.23-9.17-2.12-18.42-1.51-19.41,1.28-.4,1.12-.06,5.59,21.03,15.87,36.82,17.95,44.84,9.46,44.92,9.38,.19-.22,.47-.35,.76-.35Z"/></g></g><g><path class="f" d="M628.22,452.45c5.12,4.23,14.95,9.21,22.24,5.07,5.43-3.09,8.17-10.51,7.56-18.82,2.59,.08,5.96-.27,8.27-2.53,3.55-3.47,2.55-9.47,2.2-13.44-1.59-18.29,8.91-21.63,5.68-33.94-2.54-9.67-10.51-15.1-12-16.12-7.52-5.13-12.34-3.11-24.68-5.69-20.77-4.34-21.87-13.14-35.38-12.5-.78,.04-19.15,1.17-24.75,14.18-4.55,10.58,2.01,22.84,8.47,29.12,8.36,8.14,13.85,3.63,22.17,10.39,14.61,11.87,5.03,31.69,20.23,44.26Z"/><g><path class="e" d="M585.66,421.82l.77-.74c3.88-3.7,7.9-7.97,8.71-13.27,3.45-22.53,23.47-31.66,25.45-11.23,.5,5.16,19.36,3.94,17.39,9.47-5.13,14.43-5.45,10.64,3.06,15.43,.94,0,1.87,.15,2.77,.51,4.32,1.76,6.11,7.42,3.99,12.64-1.29,3.17-3.73,5.43-6.4,6.35l1.13,22.34c.42,8.37,5.87,15.66,13.78,18.44l7.7,2.7s-34.02,24.73-70.99,1.33l4.66-2.38c8.2-4.19,13.3-12.69,13.12-21.89l-.18-4.37c-2.39,.33-4.72,.29-6.9-.23-10.13-2.4-14.03-13.74-13.05-28.13l-4.18-1.98c-1.95-.92-2.37-3.51-.81-5Z"/><path d="M626.55,496.8c-10.39,0-22.11-2.57-34.09-10.15-.3-.19-.48-.53-.46-.89,.02-.36,.22-.68,.54-.84l4.66-2.38c7.81-3.98,12.74-12.22,12.58-20.99l-.14-3.27c-2.2,.2-4.27,.08-6.18-.37-9.74-2.31-14.78-12.68-13.86-28.49l-3.56-1.69c-1.21-.58-2.06-1.71-2.28-3.03-.21-1.33,.24-2.67,1.21-3.6l.77-.74c3.66-3.5,7.64-7.65,8.41-12.7,2.23-14.58,11.06-23.45,18.07-23.45,.08,0,.15,0,.23,0,2.4,.07,8.09,1.4,9.14,12.28,.17,1.75,4.66,2.77,8.26,3.58,4,.91,7.77,1.76,8.92,3.85,.41,.74,.46,1.6,.15,2.47-.75,2.1-1.39,3.81-1.92,5.23-1.1,2.92-1.76,4.69-1.64,5.47,.07,.47,.64,.78,2.38,1.6,.95,.45,2.12,1,3.56,1.8,1.01,.02,1.98,.22,2.88,.58,4.83,1.96,6.86,8.22,4.54,13.95-1.23,3.03-3.55,5.47-6.3,6.64l1.09,21.62c.4,8,5.55,14.89,13.11,17.55l7.7,2.7c.35,.12,.6,.43,.66,.8,.05,.37-.1,.74-.4,.95-.23,.17-16.21,11.52-38.03,11.52Zm-31.51-10.92c30.87,18.48,59.63,3.23,66.71-1.14l-5.79-2.03c-8.33-2.93-14-10.52-14.45-19.33l-1.13-22.34c-.02-.45,.25-.85,.68-1,2.51-.85,4.68-3.01,5.8-5.78,1.91-4.71,.37-9.79-3.44-11.34-.73-.3-1.52-.43-2.38-.44-.19,0-.35-.04-.5-.13-1.48-.84-2.69-1.4-3.66-1.86-4.55-2.14-4.23-2.99-1.76-9.58,.53-1.4,1.17-3.11,1.91-5.19,.15-.43,.07-.68-.02-.84-.72-1.3-4.38-2.13-7.61-2.86-4.89-1.11-9.5-2.15-9.81-5.34-.63-6.54-3.26-10.36-7.2-10.47-6.21-.14-14.23,8.53-16.26,21.75-.87,5.67-5.11,10.12-9.01,13.85l-.77,.74h0c-.5,.48-.73,1.15-.62,1.83,.11,.68,.53,1.25,1.16,1.54l4.18,1.98c.37,.18,.6,.56,.57,.97-1.03,15.12,3.45,25,12.29,27.09,1.98,.47,4.18,.54,6.53,.21,.28-.04,.56,.04,.78,.22s.35,.44,.36,.73l.18,4.37c.18,9.55-5.18,18.5-13.67,22.83l-3.07,1.57Zm-9.38-64.06h0Z"/></g><path d="M610.6,458.16c-.46,0-.88-.33-.98-.8-.11-.54,.24-1.07,.78-1.18,13.09-2.69,18.68-13.32,18.74-13.43,.25-.49,.85-.69,1.35-.43,.49,.25,.69,.85,.44,1.34-.24,.47-6.05,11.59-20.12,14.48-.07,.01-.14,.02-.2,.02Z"/></g></g></g><g><path class="e" d="M150.56,216.94l-8.75,5.22,3.46,10.58c-1.81,1.57-3.47,3.27-4.96,5.09l-10.66-3.15-4.97,8.9,8.29,7.44c-.77,2.24-1.35,4.54-1.74,6.88l-10.83,2.61,.15,10.19,10.88,2.29c.45,2.3,1.1,4.59,1.95,6.83l-8.07,7.67,5.22,8.75,10.58-3.46c1.57,1.81,3.27,3.47,5.09,4.96l-3.15,10.66,8.9,4.97,7.44-8.29c2.24,.77,4.54,1.35,6.88,1.74l2.61,10.83,10.19-.15,2.29-10.88c2.3-.45,4.59-1.1,6.83-1.95l7.67,8.07,8.75-5.22-3.46-10.58c1.81-1.57,3.47-3.27,4.96-5.09l10.66,3.15,4.97-8.9-8.29-7.44c.77-2.24,1.35-4.54,1.74-6.88l10.83-2.61-.15-10.19-10.88-2.29c-.45-2.3-1.1-4.59-1.95-6.83l8.07-7.67-5.22-8.75-10.58,3.46c-1.57-1.81-3.27-3.47-5.09-4.96l3.15-10.66-8.9-4.97-7.43,8.29c-2.24-.77-4.54-1.35-6.88-1.74l-2.61-10.83-10.19,.15-2.29,10.88c-2.3,.45-4.59,1.1-6.83,1.95l-7.67-8.07Zm45.18,34.45c7.43,12.45,3.36,28.55-9.09,35.98-12.45,7.43-28.55,3.36-35.98-9.09-7.43-12.45-3.36-28.56,9.09-35.98,12.45-7.43,28.55-3.36,35.98,9.09Z"/><path d="M168.87,318.64c-.46,0-.86-.32-.97-.77l-2.45-10.19c-1.94-.35-3.87-.84-5.75-1.45l-7,7.8c-.31,.35-.82,.43-1.23,.21l-8.9-4.97c-.41-.23-.6-.71-.47-1.16l2.97-10.03c-1.49-1.27-2.92-2.66-4.25-4.15l-9.96,3.26c-.44,.14-.93-.04-1.17-.44l-5.22-8.75c-.24-.4-.17-.91,.17-1.24l7.59-7.22c-.68-1.88-1.23-3.8-1.63-5.71l-10.24-2.16c-.46-.1-.79-.5-.79-.96l-.15-10.19c0-.47,.31-.88,.77-.99l10.19-2.45c.35-1.94,.84-3.87,1.45-5.75l-7.8-7c-.35-.31-.43-.82-.21-1.23l4.97-8.9c.23-.41,.71-.6,1.16-.47l10.03,2.97c1.27-1.49,2.66-2.92,4.15-4.25l-3.26-9.96c-.15-.44,.04-.93,.44-1.17l8.75-5.22c.4-.24,.92-.17,1.24,.17l7.22,7.59c1.88-.68,3.8-1.23,5.71-1.63l2.15-10.24c.1-.46,.5-.79,.96-.79l10.19-.15c.48,.03,.88,.31,.99,.77l2.45,10.19c1.95,.35,3.88,.84,5.75,1.45l7-7.8c.31-.35,.82-.43,1.23-.21l8.9,4.97c.41,.23,.6,.71,.47,1.16l-2.96,10.03c1.49,1.27,2.92,2.66,4.25,4.15l9.96-3.26c.44-.14,.93,.04,1.17,.44l5.22,8.75c.24,.4,.17,.91-.17,1.24l-7.59,7.22c.68,1.88,1.23,3.8,1.63,5.71l10.24,2.15c.46,.1,.79,.5,.79,.96l.15,10.19c0,.47-.31,.88-.77,.99l-10.19,2.45c-.35,1.95-.84,3.88-1.45,5.75l7.8,7c.35,.31,.43,.82,.21,1.23l-4.97,8.9c-.23,.41-.71,.6-1.16,.47l-10.03-2.97c-1.27,1.49-2.66,2.92-4.15,4.26l3.26,9.96c.15,.44-.04,.93-.44,1.17l-8.75,5.22c-.4,.24-.92,.17-1.24-.17l-7.22-7.59c-1.89,.68-3.8,1.23-5.72,1.63l-2.15,10.24c-.1,.46-.5,.79-.96,.79l-10.19,.15h-.01Zm-9.48-14.56c.11,0,.22,.02,.32,.05,2.18,.75,4.44,1.32,6.72,1.7,.4,.07,.71,.36,.81,.75l2.42,10.05,8.59-.12,2.13-10.1c.08-.39,.39-.7,.79-.78,2.23-.43,4.47-1.07,6.67-1.9,.38-.14,.8-.04,1.08,.25l7.12,7.49,7.38-4.4-3.21-9.82c-.12-.38,0-.8,.29-1.07,1.77-1.54,3.4-3.21,4.84-4.96,.25-.31,.67-.44,1.06-.32l9.9,2.92,4.19-7.5-7.7-6.9c-.3-.27-.41-.69-.28-1.07,.75-2.18,1.32-4.44,1.7-6.72,.07-.4,.36-.71,.75-.81l10.05-2.42-.12-8.59-10.1-2.13c-.39-.08-.7-.39-.78-.79-.43-2.23-1.07-4.47-1.9-6.67-.14-.38-.04-.8,.25-1.08l7.49-7.12-4.4-7.38-9.82,3.21c-.38,.12-.8,0-1.07-.29-1.54-1.77-3.21-3.4-4.96-4.84-.31-.25-.44-.67-.32-1.06l2.92-9.9-7.5-4.19-6.9,7.7c-.27,.3-.69,.41-1.07,.28-2.18-.75-4.44-1.32-6.72-1.7-.4-.07-.71-.36-.81-.75l-2.42-10.05-8.59,.12-2.13,10.1c-.08,.39-.39,.7-.79,.78-2.23,.44-4.48,1.08-6.67,1.9-.38,.14-.8,.04-1.08-.25l-7.12-7.49-7.38,4.4,3.21,9.82c.12,.38,0,.8-.29,1.07-1.77,1.54-3.4,3.21-4.84,4.96-.26,.31-.67,.44-1.06,.32l-9.9-2.92-4.19,7.5,7.7,6.9c.3,.27,.41,.69,.28,1.07-.75,2.18-1.32,4.44-1.7,6.72-.07,.4-.36,.71-.75,.81l-10.05,2.42,.12,8.59,10.1,2.13c.39,.08,.7,.39,.78,.79,.44,2.23,1.08,4.48,1.9,6.67,.14,.38,.04,.8-.25,1.08l-7.49,7.12,4.4,7.38,9.82-3.21c.38-.12,.8,0,1.07,.29,1.53,1.77,3.21,3.4,4.96,4.84,.31,.25,.44,.67,.32,1.06l-2.92,9.9,7.5,4.19,6.9-7.7c.19-.22,.47-.33,.74-.33Zm13.87-11.99c-2.24,0-4.49-.28-6.72-.84-7.05-1.78-12.99-6.2-16.72-12.45-7.7-12.9-3.47-29.66,9.43-37.35,6.25-3.73,13.57-4.8,20.63-3.02,7.05,1.78,12.99,6.2,16.72,12.45,3.73,6.25,4.8,13.57,3.02,20.63-1.78,7.06-6.2,12.99-12.45,16.72-4.28,2.55-9.06,3.86-13.91,3.86Zm-.09-52.5c-4.5,0-8.93,1.21-12.89,3.58-11.95,7.13-15.87,22.66-8.74,34.61,3.46,5.79,8.96,9.89,15.49,11.54,6.54,1.65,13.33,.66,19.12-2.8,5.79-3.45,9.89-8.96,11.54-15.49,1.65-6.54,.66-13.33-2.8-19.12-3.45-5.79-8.96-9.89-15.5-11.54-2.06-.52-4.15-.78-6.23-.78Z"/></g><g><g><circle class="e" cx="774.08" cy="266.76" r="35.62" transform="translate(26.09 599.73) rotate(-43.01)"/><path d="M774.1,303.38c-.67,0-1.35-.02-2.02-.06-9.77-.53-18.74-4.84-25.27-12.13-6.53-7.29-9.83-16.68-9.3-26.45,.53-9.77,4.84-18.74,12.13-25.27,7.29-6.53,16.69-9.83,26.45-9.29,9.77,.53,18.74,4.84,25.27,12.13,6.53,7.29,9.83,16.68,9.29,26.45-1.07,19.48-17.26,34.62-36.55,34.62Zm-.07-71.25c-8.53,0-16.66,3.1-23.06,8.84-6.89,6.17-10.96,14.66-11.46,23.89-.51,9.23,2.62,18.11,8.79,25,6.17,6.89,14.66,10.96,23.89,11.46,19.05,1.04,35.42-13.62,36.47-32.68l1,.05-1-.05c.51-9.23-2.62-18.11-8.79-25-6.17-6.89-14.66-10.96-23.89-11.46-.65-.04-1.29-.05-1.94-.05Z"/></g><path d="M770.67,283.15c-.39,0-.75-.23-.91-.6l-10.22-23.06c-.22-.5,0-1.1,.51-1.32,.5-.22,1.1,0,1.32,.51l9.13,20.61c4.15-13.21,9.13-22.85,15.2-29.44,.37-.41,1.01-.43,1.41-.06,.41,.37,.43,1.01,.06,1.41-6.24,6.78-11.33,16.99-15.54,31.23-.12,.4-.48,.69-.89,.71-.02,0-.04,0-.06,0Z"/></g></g></g></g></svg>