<svg id="Livello_1" data-name="Livello 1" xmlns="http://www.w3.org/2000/svg" viewBox="0 0 425.2 306.48"><defs><style>.cls-1{fill:#52798e;}</style></defs><g id="Consegne"><g id="Artboard-Copy"><g id="Logo_Write" data-name="Logo+Write"><g id="Logo"><path id="Path" class="cls-1" d="M209.34,6.76C197-.19,180.17-1.73,159,2.63c-29,5.9-54,16.61-74.79,32.12A201.73,201.73,0,0,0,34.4,88c-13.13,20.2-22.34,39.76-27.62,58.92s-7.33,35.77-6,49.3C3,215.62,10.86,234.71,23.88,253c13.24,18,34.8,32.27,64.64,42.43S159,309,210,305.08c42.8-4.31,79.4-13.45,109.78-27.69,5.92-2.82,11.61-5.64,17-8.65,33.13-19,57.35-40.06,72.14-63.41s19.68-44,14.89-61.86c-2.39-11.44-10.7-22.54-24.49-33.56-14-11-36.06-17.75-66.39-20.42a182.92,182.92,0,0,0-32,.74c-25.87,2.1-56.53,8.41-92,18.69q-23.81,8-31.35,21.79c-4.79,9.18-5.38,18.18-1.73,27.25a40,40,0,0,0,17.5,20.85c8.22,5.13,17.29,6.46,27.46,3.7,8.28-1.58,19.93-4.24,35.26-7.52a282.43,282.43,0,0,1,45.62-5.83,62.5,62.5,0,0,1,7.24.26c12.22.51,23.19,3.39,32.42,8.67,10.85,6.61,16.27,18.49,16.3,36.13q-4.23,20.91-24.7,36c-4.87,3.48-9.76,6.7-14.9,10a188.59,188.59,0,0,1-31.34,14.58c-18,6-34.17,10.89-49,14.12-14.59,3.2-24.38,4.68-29.57,5-6.42.38-16.31.89-30,1-13.4.11-27.75-1.69-43.27-5.34A85.66,85.66,0,0,1,95,268c-11.74-10.49-19.29-26.13-22.1-46.72-.52-17.59,4.12-33.22,14-46.62a143,143,0,0,1,37-35,328,328,0,0,1,40.63-23.47c12.32-6,20.85-10,25.35-12.24,16.7-6.89,28.65-16.54,35.56-29.4,6.92-12.62,8.88-25.25,6.36-37.91Q228,17.27,209.43,6.83" transform="translate(-0.39 -0.19)"/><path id="Path-2" data-name="Path" class="cls-1" d="M330.17,215.24c-.49-9.89-3.79-18-10.12-24.07a32.14,32.14,0,0,0-9.61-6.75,30.78,30.78,0,0,0-15.2-2.94c-9.89.5-18,4.05-24,10.62a32.78,32.78,0,0,0-9.67,24.83c.48,9.88,4,18,10.84,24,6.57,6,14.84,9.18,24.53,9.2,7.66-.52,14.14-2.66,19.49-6.43A57.77,57.77,0,0,0,321,240a34.24,34.24,0,0,0,9.18-24.78" transform="translate(-0.39 -0.19)"/></g></g></g></g></svg>